<?xml version="1.0" encoding="utf-8"?>
<!-- Generator: Adobe Illustrator 17.0.1, SVG Export Plug-In . SVG Version: 6.00 Build 0)  -->
<!DOCTYPE svg PUBLIC "-//W3C//DTD SVG 1.1//EN" "http://www.w3.org/Graphics/SVG/1.1/DTD/svg11.dtd">
<svg version="1.1" id="Layer_1" xmlns="http://www.w3.org/2000/svg" xmlns:xlink="http://www.w3.org/1999/xlink" x="0px" y="0px"
	 width="120.775px" height="117.793px" viewBox="0 0 120.775 117.793" enable-background="new 0 0 120.775 117.793"
	 xml:space="preserve">
<rect x="180.779" y="158.672" width="530.973" height="275.986"/>
<path fill-rule="evenodd" clip-rule="evenodd" fill="#231E1B" d="M333.387-9.887c-8.995,0-16.289,7.293-16.289,16.291
	c0,7.196,4.667,13.302,11.141,15.456c0.814,0.149,1.112-0.354,1.112-0.785c0-0.387-0.014-1.411-0.022-2.771
	c-4.531,0.984-5.487-2.184-5.487-2.184c-0.741-1.882-1.809-2.383-1.809-2.383c-1.479-1.011,0.112-0.99,0.112-0.99
	c1.635,0.115,2.495,1.679,2.495,1.679c1.453,2.489,3.813,1.77,4.741,1.353c0.148-1.053,0.569-1.77,1.034-2.178
	c-3.617-0.411-7.42-1.809-7.42-8.051c0-1.778,0.635-3.232,1.677-4.371c-0.168-0.412-0.727-2.068,0.16-4.311
	c0,0,1.368-0.438,4.479,1.67c1.299-0.361,2.693-0.542,4.078-0.548c1.383,0.006,2.777,0.187,4.078,0.548
	c3.11-2.108,4.475-1.67,4.475-1.67c0.889,2.243,0.33,3.899,0.162,4.311c1.044,1.139,1.674,2.593,1.674,4.371
	c0,6.258-3.809,7.635-7.438,8.038c0.585,0.503,1.106,1.497,1.106,3.017c0,2.178-0.02,3.935-0.02,4.469
	c0,0.436,0.293,0.942,1.12,0.783c6.467-2.158,11.13-8.26,11.13-15.454C349.678-2.594,342.384-9.887,333.387-9.887z"/>
<g>
	<path fill-rule="evenodd" clip-rule="evenodd" fill="#231E1B" d="M531.388-58.897C498.041-58.897,471-31.862,471,1.491
		c0,26.681,17.303,49.316,41.297,57.302c3.018,0.559,4.126-1.31,4.126-2.905c0-1.439-0.056-6.197-0.082-11.243
		c-16.8,3.653-20.345-7.125-20.345-7.125c-2.747-6.979-6.705-8.836-6.705-8.836c-5.48-3.748,0.413-3.671,0.413-3.671
		c6.064,0.426,9.257,6.224,9.257,6.224c5.386,9.231,14.127,6.563,17.573,5.02c0.542-3.902,2.107-6.567,3.834-8.075
		c-13.413-1.526-27.514-6.705-27.514-29.844c0-6.593,2.359-11.98,6.223-16.209c-0.627-1.521-2.694-7.663,0.585-15.982
		c0,0,5.071-1.622,16.61,6.191c4.817-1.338,9.983-2.009,15.115-2.033c5.132,0.024,10.302,0.694,15.128,2.033
		c11.526-7.813,16.59-6.191,16.59-6.191c3.287,8.318,1.22,14.46,0.593,15.982c3.872,4.229,6.215,9.616,6.215,16.209
		c0,23.194-14.127,28.301-27.574,29.796c2.166,1.874,4.096,5.549,4.096,11.183c0,8.08-0.069,14.583-0.069,16.572
		c0,1.607,1.087,3.49,4.147,2.898c23.982-7.994,41.263-30.622,41.263-57.294C591.775-31.862,564.738-58.897,531.388-58.897z"/>
	<path fill="#231E1B" d="M493.872,27.806c-0.133,0.301-0.605,0.391-1.035,0.184c-0.439-0.197-0.684-0.606-0.542-0.907
		c0.13-0.309,0.602-0.395,1.04-0.189C493.773,27.093,494.023,27.506,493.872,27.806L493.872,27.806z M493.129,27.256"/>
	<path fill="#231E1B" d="M496.318,30.535c-0.288,0.267-0.852,0.143-1.233-0.279c-0.395-0.421-0.469-0.984-0.177-1.255
		c0.297-0.267,0.843-0.142,1.238,0.279C496.542,29.706,496.619,30.264,496.318,30.535L496.318,30.535z M495.742,29.917"/>
	<path fill="#231E1B" d="M498.699,34.012c-0.37,0.258-0.976,0.017-1.35-0.52c-0.37-0.537-0.37-1.182,0.009-1.439
		c0.374-0.258,0.971-0.025,1.35,0.507C499.077,33.105,499.077,33.75,498.699,34.012L498.699,34.012z M498.699,34.012"/>
	<path fill="#231E1B" d="M501.961,37.373c-0.331,0.365-1.036,0.267-1.552-0.231c-0.528-0.486-0.675-1.178-0.344-1.543
		c0.336-0.365,1.045-0.263,1.564,0.231C502.154,36.316,502.314,37.011,501.961,37.373L501.961,37.373z M501.961,37.373"/>
	<path fill="#231E1B" d="M506.461,39.324c-0.146,0.473-0.825,0.688-1.509,0.486c-0.684-0.207-1.13-0.761-0.992-1.238
		c0.142-0.477,0.824-0.7,1.513-0.485C506.155,38.293,506.603,38.843,506.461,39.324L506.461,39.324z M506.461,39.324"/>
	<path fill="#231E1B" d="M511.403,39.685c0.017,0.498-0.564,0.911-1.281,0.92c-0.722,0.017-1.307-0.387-1.314-0.877
		c0-0.503,0.567-0.911,1.289-0.924C510.815,38.791,511.403,39.191,511.403,39.685L511.403,39.685z M511.403,39.685"/>
	<path fill="#231E1B" d="M516.002,38.903c0.086,0.485-0.413,0.984-1.126,1.117c-0.701,0.129-1.35-0.172-1.439-0.653
		c-0.087-0.498,0.421-0.997,1.121-1.126C515.271,38.117,515.911,38.409,516.002,38.903L516.002,38.903z M516.002,38.903"/>
</g>
<g>
	<g>
		
			<line fill="none" stroke="#147EBC" stroke-linecap="round" stroke-miterlimit="10" x1="405.677" y1="-64.83" x2="405.677" y2="-64.33"/>
		
			<line fill="none" stroke="#147EBC" stroke-linecap="round" stroke-miterlimit="10" stroke-dasharray="0.9999,1.9999" x1="405.677" y1="-62.33" x2="405.677" y2="71.663"/>
		
			<line fill="none" stroke="#147EBC" stroke-linecap="round" stroke-miterlimit="10" x1="405.677" y1="72.663" x2="405.677" y2="73.163"/>
	</g>
</g>
<g>
	<path fill="#0069B4" d="M314.055,87.178c-0.38-0.276-0.866-0.414-1.458-0.414c-0.24,0-0.476,0.024-0.708,0.071
		c-0.232,0.049-0.438,0.129-0.618,0.24c-0.18,0.113-0.324,0.263-0.432,0.451c-0.108,0.188-0.162,0.422-0.162,0.701
		c0,0.264,0.078,0.479,0.234,0.643c0.156,0.164,0.364,0.298,0.624,0.401c0.26,0.104,0.554,0.19,0.882,0.259
		c0.328,0.067,0.662,0.142,1.002,0.221c0.34,0.08,0.674,0.175,1.002,0.283c0.328,0.107,0.622,0.254,0.882,0.438
		c0.26,0.184,0.468,0.416,0.624,0.695c0.156,0.281,0.234,0.633,0.234,1.057c0,0.456-0.102,0.846-0.306,1.17
		c-0.204,0.324-0.466,0.588-0.786,0.792c-0.32,0.204-0.678,0.353-1.074,0.444c-0.396,0.092-0.79,0.138-1.182,0.138
		c-0.48,0-0.934-0.06-1.362-0.18c-0.428-0.12-0.804-0.302-1.128-0.546c-0.324-0.244-0.58-0.557-0.768-0.937
		c-0.188-0.38-0.282-0.829-0.282-1.35h1.08c0,0.36,0.07,0.67,0.21,0.93c0.14,0.261,0.324,0.474,0.552,0.642
		c0.228,0.168,0.494,0.293,0.798,0.373c0.304,0.08,0.616,0.119,0.936,0.119c0.256,0,0.514-0.023,0.774-0.072
		c0.26-0.047,0.494-0.129,0.702-0.246c0.208-0.115,0.376-0.273,0.504-0.473c0.128-0.201,0.192-0.457,0.192-0.769
		c0-0.296-0.078-0.536-0.234-0.72c-0.156-0.184-0.364-0.334-0.624-0.45c-0.26-0.116-0.554-0.21-0.882-0.282
		c-0.328-0.072-0.662-0.146-1.002-0.223c-0.34-0.075-0.674-0.163-1.002-0.264c-0.328-0.1-0.623-0.232-0.882-0.396
		c-0.26-0.164-0.468-0.376-0.624-0.636c-0.156-0.26-0.234-0.586-0.234-0.979c0-0.432,0.088-0.806,0.264-1.122
		c0.176-0.315,0.41-0.575,0.702-0.78c0.292-0.203,0.624-0.355,0.996-0.455c0.372-0.101,0.754-0.15,1.146-0.15
		c0.44,0,0.848,0.053,1.224,0.156c0.376,0.104,0.706,0.268,0.99,0.492c0.284,0.224,0.508,0.506,0.672,0.846
		c0.164,0.34,0.254,0.746,0.27,1.218h-1.08C314.656,87.9,314.435,87.455,314.055,87.178z"/>
	<path fill="#0069B4" d="M318.333,88.373v0.912h0.024c0.464-0.705,1.132-1.057,2.004-1.057c0.384,0,0.732,0.08,1.044,0.24
		c0.312,0.16,0.532,0.432,0.66,0.816c0.208-0.336,0.482-0.596,0.822-0.78c0.34-0.185,0.714-0.276,1.121-0.276
		c0.312,0,0.594,0.034,0.846,0.102c0.252,0.068,0.468,0.175,0.648,0.318c0.18,0.145,0.32,0.33,0.42,0.559
		c0.1,0.228,0.15,0.502,0.15,0.822v4.547h-1.02v-4.067c0-0.192-0.017-0.372-0.048-0.54c-0.032-0.168-0.092-0.314-0.18-0.438
		c-0.088-0.125-0.21-0.223-0.366-0.295c-0.156-0.072-0.358-0.108-0.606-0.108c-0.504,0-0.9,0.144-1.188,0.432
		c-0.288,0.288-0.432,0.672-0.432,1.152v3.863h-1.02v-4.067c0-0.2-0.018-0.384-0.054-0.552c-0.036-0.168-0.098-0.314-0.186-0.438
		c-0.088-0.124-0.206-0.22-0.354-0.288c-0.148-0.068-0.338-0.102-0.57-0.102c-0.296,0-0.55,0.06-0.762,0.18
		c-0.212,0.12-0.384,0.264-0.516,0.432c-0.132,0.168-0.228,0.342-0.288,0.522c-0.06,0.181-0.09,0.33-0.09,0.45v3.863h-1.02v-6.203
		H318.333z"/>
	<path fill="#0069B4" d="M332.373,94.709c-0.264,0-0.474-0.074-0.63-0.223c-0.156-0.148-0.234-0.39-0.234-0.726
		c-0.28,0.336-0.606,0.578-0.978,0.726c-0.372,0.148-0.774,0.223-1.206,0.223c-0.28,0-0.544-0.03-0.792-0.09
		c-0.248-0.061-0.466-0.16-0.654-0.301c-0.188-0.14-0.336-0.319-0.444-0.539c-0.108-0.221-0.162-0.486-0.162-0.799
		c0-0.352,0.06-0.64,0.18-0.863c0.12-0.225,0.278-0.406,0.474-0.547c0.196-0.14,0.42-0.246,0.672-0.318
		c0.252-0.071,0.51-0.131,0.774-0.18c0.28-0.056,0.546-0.098,0.798-0.125c0.252-0.028,0.474-0.068,0.666-0.121
		c0.192-0.051,0.344-0.127,0.456-0.228c0.112-0.101,0.168-0.246,0.168-0.438c0-0.223-0.042-0.403-0.126-0.539
		c-0.084-0.137-0.192-0.24-0.324-0.313c-0.132-0.072-0.28-0.12-0.444-0.145c-0.164-0.023-0.326-0.035-0.486-0.035
		c-0.432,0-0.792,0.082-1.08,0.246c-0.288,0.164-0.444,0.474-0.468,0.93h-1.02c0.016-0.384,0.096-0.708,0.24-0.973
		c0.144-0.264,0.336-0.478,0.576-0.642c0.24-0.163,0.516-0.282,0.828-0.354c0.312-0.071,0.64-0.107,0.984-0.107
		c0.28,0,0.558,0.02,0.834,0.061c0.276,0.039,0.526,0.121,0.75,0.246c0.224,0.123,0.404,0.298,0.54,0.521
		c0.136,0.225,0.204,0.516,0.204,0.876v3.192c0,0.24,0.014,0.416,0.042,0.527c0.028,0.112,0.122,0.168,0.282,0.168
		c0.088,0,0.192-0.019,0.312-0.059v0.792C332.928,94.656,332.685,94.709,332.373,94.709z M330.944,91.582
		c-0.208,0.045-0.426,0.08-0.654,0.108c-0.228,0.028-0.458,0.06-0.69,0.097c-0.232,0.035-0.44,0.094-0.624,0.174
		c-0.185,0.08-0.335,0.193-0.45,0.342c-0.116,0.148-0.174,0.35-0.174,0.605c0,0.168,0.034,0.311,0.102,0.426
		c0.068,0.117,0.156,0.211,0.264,0.283c0.108,0.071,0.236,0.123,0.384,0.155c0.148,0.032,0.298,0.048,0.45,0.048
		c0.336,0,0.624-0.045,0.864-0.138c0.24-0.092,0.436-0.208,0.588-0.349c0.152-0.139,0.264-0.291,0.336-0.455
		c0.072-0.164,0.108-0.318,0.108-0.463v-1.043C331.32,91.469,331.152,91.539,330.944,91.582z"/>
	<path fill="#0069B4" d="M335.132,86.009v8.567h-1.02v-8.567H335.132z"/>
	<path fill="#0069B4" d="M337.796,86.009v8.567h-1.02v-8.567H337.796z"/>
	<path fill="#0069B4" d="M282.633,103.672v-0.899h1.044v-0.924c0-0.504,0.146-0.886,0.438-1.146c0.292-0.26,0.718-0.391,1.278-0.391
		c0.096,0,0.206,0.008,0.33,0.023c0.124,0.017,0.234,0.041,0.33,0.072v0.889c-0.088-0.032-0.184-0.055-0.288-0.066
		c-0.104-0.012-0.2-0.018-0.288-0.018c-0.248,0-0.44,0.048-0.576,0.144c-0.136,0.097-0.204,0.28-0.204,0.552v0.864h1.2v0.899h-1.2
		v5.305h-1.02v-5.305H282.633z"/>
	<path fill="#0069B4" d="M286.665,104.602c0.128-0.396,0.32-0.739,0.576-1.032c0.256-0.291,0.572-0.521,0.948-0.689
		c0.376-0.168,0.808-0.252,1.296-0.252c0.496,0,0.93,0.084,1.302,0.252c0.372,0.168,0.685,0.398,0.942,0.689
		c0.256,0.293,0.448,0.637,0.576,1.032c0.128,0.396,0.192,0.822,0.192,1.278c0,0.455-0.064,0.88-0.192,1.272
		c-0.128,0.393-0.32,0.734-0.576,1.026c-0.256,0.292-0.57,0.521-0.942,0.685c-0.372,0.163-0.806,0.245-1.302,0.245
		c-0.488,0-0.92-0.082-1.296-0.245c-0.376-0.164-0.692-0.393-0.948-0.685c-0.256-0.292-0.448-0.634-0.576-1.026
		c-0.128-0.392-0.192-0.816-0.192-1.272C286.473,105.425,286.537,104.998,286.665,104.602z M287.703,106.883
		c0.1,0.292,0.238,0.535,0.414,0.733c0.176,0.195,0.382,0.346,0.618,0.449c0.236,0.104,0.486,0.156,0.75,0.156
		c0.264,0,0.514-0.053,0.75-0.156c0.236-0.104,0.442-0.254,0.618-0.449c0.176-0.197,0.314-0.44,0.414-0.733
		c0.1-0.292,0.15-0.626,0.15-1.002c0-0.377-0.05-0.71-0.15-1.002c-0.1-0.293-0.238-0.538-0.414-0.738
		c-0.176-0.199-0.382-0.352-0.618-0.456c-0.236-0.104-0.486-0.156-0.75-0.156c-0.264,0-0.514,0.052-0.75,0.156
		c-0.236,0.104-0.442,0.257-0.618,0.456c-0.176,0.2-0.314,0.445-0.414,0.738c-0.1,0.292-0.15,0.625-0.15,1.002
		C287.553,106.257,287.603,106.591,287.703,106.883z"/>
	<path fill="#0069B4" d="M294.621,102.772v1.308h0.024c0.248-0.504,0.552-0.875,0.912-1.115c0.36-0.24,0.816-0.352,1.368-0.336v1.08
		c-0.408,0-0.756,0.056-1.044,0.168c-0.288,0.111-0.52,0.275-0.696,0.492c-0.176,0.215-0.304,0.478-0.384,0.785
		c-0.08,0.309-0.12,0.662-0.12,1.063v2.76h-1.02v-6.204H294.621z"/>
	<path fill="#0069B4" d="M303.512,108.976v-6.096h-2.208v-0.816c0.288,0,0.568-0.021,0.84-0.066
		c0.272-0.043,0.518-0.125,0.738-0.246c0.22-0.119,0.406-0.283,0.558-0.491c0.152-0.208,0.256-0.472,0.312-0.792h0.78v8.508H303.512
		z"/>
	<path fill="#0069B4" d="M311.457,101.717c-0.248-0.232-0.576-0.348-0.984-0.348c-0.432,0-0.78,0.105-1.044,0.317
		c-0.264,0.212-0.47,0.479-0.618,0.804c-0.148,0.324-0.25,0.674-0.306,1.051c-0.056,0.375-0.088,0.728-0.096,1.056l0.024,0.024
		c0.24-0.393,0.538-0.676,0.894-0.853c0.356-0.176,0.766-0.265,1.23-0.265c0.408,0,0.774,0.07,1.098,0.211
		c0.324,0.14,0.596,0.334,0.816,0.582c0.22,0.248,0.39,0.539,0.51,0.875c0.12,0.337,0.18,0.701,0.18,1.093
		c0,0.312-0.048,0.636-0.144,0.972c-0.096,0.336-0.254,0.642-0.474,0.918c-0.22,0.276-0.512,0.504-0.876,0.684
		c-0.364,0.181-0.814,0.271-1.35,0.271c-0.632,0-1.14-0.128-1.524-0.384c-0.384-0.256-0.68-0.584-0.888-0.984
		c-0.209-0.4-0.346-0.84-0.414-1.32c-0.068-0.479-0.102-0.943-0.102-1.392c0-0.583,0.05-1.149,0.15-1.698
		c0.1-0.547,0.27-1.033,0.51-1.457c0.24-0.424,0.56-0.764,0.96-1.021c0.4-0.256,0.904-0.384,1.512-0.384
		c0.704,0,1.264,0.186,1.68,0.558c0.416,0.372,0.656,0.91,0.72,1.614h-1.02C311.853,102.256,311.705,101.949,311.457,101.717z
		 M309.608,104.554c-0.216,0.1-0.4,0.236-0.552,0.408c-0.152,0.172-0.266,0.376-0.342,0.611c-0.076,0.236-0.114,0.486-0.114,0.75
		c0,0.264,0.04,0.512,0.12,0.744c0.08,0.232,0.194,0.432,0.342,0.6c0.148,0.168,0.332,0.303,0.552,0.402
		c0.22,0.101,0.47,0.15,0.75,0.15c0.28,0,0.526-0.05,0.738-0.15c0.212-0.1,0.39-0.238,0.534-0.414
		c0.144-0.176,0.254-0.378,0.33-0.605c0.076-0.229,0.114-0.467,0.114-0.715c0-0.264-0.034-0.514-0.102-0.75
		c-0.068-0.235-0.174-0.439-0.318-0.611c-0.144-0.172-0.324-0.311-0.54-0.414c-0.216-0.104-0.468-0.156-0.756-0.156
		C310.077,104.404,309.825,104.455,309.608,104.554z"/>
	<path fill="#0069B4" d="M315.429,102.772v0.841h0.024c0.168-0.345,0.432-0.595,0.792-0.75c0.36-0.156,0.756-0.234,1.188-0.234
		c0.48,0,0.898,0.088,1.254,0.264c0.356,0.176,0.652,0.414,0.888,0.714c0.236,0.3,0.414,0.646,0.534,1.038
		c0.12,0.393,0.18,0.809,0.18,1.248c0,0.439-0.058,0.855-0.174,1.248c-0.116,0.393-0.292,0.734-0.528,1.025
		c-0.236,0.293-0.532,0.522-0.888,0.69c-0.357,0.168-0.771,0.252-1.242,0.252c-0.152,0-0.322-0.017-0.51-0.048
		c-0.188-0.032-0.374-0.084-0.558-0.156c-0.184-0.072-0.358-0.17-0.522-0.294c-0.164-0.124-0.302-0.278-0.414-0.462h-0.024v3.191
		h-1.02v-8.567H315.429z M319.095,104.974c-0.076-0.275-0.192-0.521-0.348-0.738c-0.156-0.216-0.356-0.388-0.6-0.516
		c-0.244-0.128-0.53-0.192-0.858-0.192c-0.344,0-0.636,0.068-0.876,0.204c-0.24,0.137-0.436,0.314-0.588,0.534
		c-0.152,0.22-0.262,0.47-0.33,0.75c-0.068,0.28-0.102,0.563-0.102,0.853c0,0.304,0.036,0.598,0.108,0.881
		c0.072,0.285,0.186,0.535,0.342,0.75c0.156,0.217,0.358,0.391,0.607,0.522c0.247,0.132,0.548,0.198,0.9,0.198
		c0.352,0,0.646-0.068,0.882-0.204c0.236-0.136,0.426-0.315,0.57-0.54c0.144-0.224,0.248-0.48,0.312-0.768
		c0.064-0.289,0.096-0.584,0.096-0.889C319.208,105.533,319.171,105.25,319.095,104.974z"/>
	<path fill="#0069B4" d="M320.996,102.772h1.308l1.488,2.172l1.548-2.172h1.224l-2.136,2.856l2.4,3.348h-1.308l-1.728-2.568
		l-1.727,2.568h-1.236l2.328-3.264L320.996,102.772z"/>
	<path fill="#0069B4" d="M331.004,105.16v0.961h-3.468v-0.961H331.004z"/>
	<path fill="#0069B4" d="M334.856,108.976v-6.096h-2.208v-0.816c0.288,0,0.568-0.021,0.84-0.066
		c0.272-0.043,0.518-0.125,0.738-0.246c0.22-0.119,0.406-0.283,0.558-0.491c0.152-0.208,0.256-0.472,0.312-0.792h0.78v8.508H334.856
		z"/>
	<path fill="#0069B4" d="M338.936,102.281c0.112-0.369,0.286-0.687,0.522-0.955c0.236-0.268,0.53-0.478,0.882-0.629
		c0.352-0.152,0.752-0.229,1.2-0.229c0.368,0,0.714,0.054,1.038,0.162c0.324,0.107,0.606,0.264,0.846,0.468
		c0.24,0.204,0.43,0.458,0.57,0.762c0.14,0.304,0.21,0.656,0.21,1.056c0,0.377-0.058,0.709-0.174,0.996
		c-0.116,0.289-0.27,0.547-0.462,0.774c-0.192,0.228-0.412,0.435-0.66,0.618c-0.248,0.184-0.504,0.359-0.768,0.527
		c-0.264,0.16-0.528,0.318-0.792,0.475c-0.264,0.156-0.506,0.322-0.726,0.498c-0.22,0.176-0.408,0.365-0.564,0.57
		c-0.156,0.203-0.258,0.438-0.306,0.701h4.368v0.9h-5.556c0.04-0.504,0.13-0.934,0.27-1.29c0.14-0.356,0.318-0.666,0.534-0.931
		c0.216-0.264,0.46-0.495,0.732-0.695c0.272-0.199,0.556-0.388,0.852-0.564c0.36-0.224,0.676-0.43,0.948-0.617
		c0.272-0.188,0.498-0.379,0.678-0.57c0.18-0.191,0.316-0.4,0.408-0.624s0.138-0.483,0.138-0.78c0-0.231-0.045-0.441-0.132-0.63
		c-0.088-0.188-0.206-0.35-0.354-0.485c-0.148-0.137-0.322-0.24-0.522-0.313c-0.2-0.072-0.412-0.107-0.636-0.107
		c-0.296,0-0.55,0.062-0.762,0.186s-0.386,0.286-0.522,0.486c-0.136,0.199-0.234,0.426-0.294,0.678
		c-0.06,0.252-0.086,0.506-0.078,0.762h-1.02C338.78,103.049,338.824,102.648,338.936,102.281z"/>
	<path fill="#0069B4" d="M345.476,103.828c0.016-0.336,0.056-0.664,0.12-0.983c0.064-0.319,0.156-0.624,0.276-0.912
		c0.12-0.288,0.284-0.54,0.492-0.756c0.208-0.216,0.47-0.388,0.786-0.517c0.316-0.127,0.694-0.191,1.134-0.191
		c0.44,0,0.818,0.064,1.134,0.191c0.316,0.129,0.578,0.301,0.786,0.517c0.208,0.216,0.372,0.468,0.492,0.756
		c0.12,0.288,0.212,0.593,0.276,0.912c0.064,0.319,0.104,0.647,0.12,0.983c0.016,0.336,0.024,0.66,0.024,0.973
		s-0.008,0.636-0.024,0.972c-0.016,0.336-0.056,0.664-0.12,0.983c-0.064,0.32-0.156,0.623-0.276,0.906
		c-0.12,0.285-0.284,0.535-0.492,0.75c-0.208,0.217-0.468,0.387-0.78,0.51c-0.312,0.125-0.692,0.187-1.14,0.187
		c-0.44,0-0.818-0.062-1.134-0.187c-0.316-0.123-0.578-0.293-0.786-0.51c-0.208-0.215-0.372-0.465-0.492-0.75
		c-0.12-0.283-0.212-0.586-0.276-0.906c-0.064-0.319-0.104-0.647-0.12-0.983s-0.024-0.659-0.024-0.972
		S345.46,104.164,345.476,103.828z M346.562,105.863c0.02,0.396,0.084,0.768,0.192,1.115c0.108,0.348,0.282,0.643,0.522,0.882
		c0.24,0.24,0.576,0.36,1.008,0.36c0.432,0,0.768-0.12,1.008-0.36c0.24-0.239,0.414-0.534,0.522-0.882
		c0.108-0.348,0.172-0.72,0.192-1.115c0.02-0.396,0.03-0.755,0.03-1.074c0-0.209-0.002-0.438-0.006-0.69
		c-0.004-0.252-0.024-0.504-0.06-0.756c-0.036-0.253-0.088-0.498-0.156-0.738c-0.068-0.239-0.168-0.45-0.3-0.63
		c-0.132-0.18-0.298-0.326-0.498-0.438c-0.2-0.112-0.444-0.168-0.732-0.168c-0.288,0-0.532,0.056-0.732,0.168
		c-0.2,0.111-0.366,0.258-0.498,0.438c-0.132,0.18-0.232,0.391-0.3,0.63c-0.068,0.24-0.12,0.485-0.156,0.738
		c-0.036,0.252-0.056,0.504-0.06,0.756c-0.004,0.252-0.006,0.481-0.006,0.69C346.532,105.108,346.542,105.467,346.562,105.863z"/>
	<path fill="#0069B4" d="M353.444,102.772v0.841h0.024c0.168-0.345,0.432-0.595,0.792-0.75c0.36-0.156,0.756-0.234,1.188-0.234
		c0.48,0,0.898,0.088,1.254,0.264c0.356,0.176,0.652,0.414,0.888,0.714c0.236,0.3,0.414,0.646,0.534,1.038
		c0.12,0.393,0.18,0.809,0.18,1.248c0,0.439-0.058,0.855-0.174,1.248c-0.116,0.393-0.292,0.734-0.528,1.025
		c-0.236,0.293-0.532,0.522-0.888,0.69c-0.356,0.168-0.771,0.252-1.242,0.252c-0.152,0-0.322-0.017-0.51-0.048
		c-0.188-0.032-0.374-0.084-0.558-0.156c-0.184-0.072-0.358-0.17-0.522-0.294c-0.164-0.124-0.302-0.278-0.414-0.462h-0.024v3.191
		h-1.02v-8.567H353.444z M357.11,104.974c-0.076-0.275-0.192-0.521-0.348-0.738c-0.156-0.216-0.356-0.388-0.6-0.516
		c-0.244-0.128-0.53-0.192-0.858-0.192c-0.344,0-0.636,0.068-0.876,0.204c-0.24,0.137-0.436,0.314-0.588,0.534
		c-0.152,0.22-0.262,0.47-0.33,0.75c-0.068,0.28-0.102,0.563-0.102,0.853c0,0.304,0.036,0.598,0.108,0.881
		c0.072,0.285,0.186,0.535,0.342,0.75c0.156,0.217,0.358,0.391,0.606,0.522c0.248,0.132,0.548,0.198,0.9,0.198
		c0.352,0,0.646-0.068,0.882-0.204c0.236-0.136,0.426-0.315,0.57-0.54c0.144-0.224,0.248-0.48,0.312-0.768
		c0.064-0.289,0.096-0.584,0.096-0.889C357.224,105.533,357.186,105.25,357.11,104.974z"/>
	<path fill="#0069B4" d="M359.012,102.772h1.308l1.488,2.172l1.548-2.172h1.224l-2.136,2.856l2.4,3.348h-1.308l-1.728-2.568
		l-1.728,2.568h-1.236l2.328-3.264L359.012,102.772z"/>
</g>
<g>
	<path fill="#0069B4" d="M516.412,86.008v7.608h4.536v0.961h-5.676v-8.568H516.412z"/>
	<path fill="#0069B4" d="M526.54,94.707c-0.264,0-0.475-0.073-0.631-0.221c-0.155-0.149-0.233-0.391-0.233-0.727
		c-0.28,0.336-0.606,0.578-0.977,0.727c-0.373,0.147-0.774,0.221-1.207,0.221c-0.279,0-0.543-0.029-0.791-0.09
		c-0.248-0.06-0.467-0.16-0.654-0.299c-0.188-0.141-0.336-0.32-0.443-0.541c-0.109-0.22-0.162-0.486-0.162-0.798
		c0-0.352,0.06-0.64,0.18-0.864c0.119-0.224,0.277-0.405,0.474-0.545c0.196-0.141,0.42-0.246,0.672-0.318
		c0.252-0.072,0.511-0.133,0.774-0.18c0.279-0.057,0.546-0.099,0.798-0.127c0.252-0.027,0.474-0.067,0.666-0.119
		c0.192-0.053,0.344-0.129,0.456-0.229c0.111-0.1,0.168-0.246,0.168-0.438c0-0.225-0.042-0.404-0.126-0.541
		c-0.084-0.135-0.192-0.239-0.324-0.312c-0.132-0.071-0.28-0.12-0.444-0.144c-0.164-0.024-0.326-0.037-0.485-0.037
		c-0.433,0-0.792,0.083-1.08,0.246c-0.288,0.164-0.444,0.475-0.468,0.931h-1.021c0.017-0.384,0.097-0.708,0.24-0.972
		c0.143-0.264,0.336-0.479,0.575-0.643c0.24-0.164,0.517-0.281,0.828-0.354c0.313-0.072,0.641-0.108,0.984-0.108
		c0.28,0,0.559,0.021,0.834,0.06c0.276,0.041,0.526,0.123,0.75,0.246c0.225,0.125,0.404,0.299,0.54,0.522
		c0.136,0.224,0.204,0.517,0.204,0.876v3.191c0,0.24,0.014,0.416,0.042,0.529c0.028,0.111,0.122,0.168,0.282,0.168
		c0.088,0,0.191-0.02,0.313-0.06v0.792C527.096,94.656,526.853,94.707,526.54,94.707z M525.112,91.582
		c-0.209,0.044-0.426,0.08-0.654,0.107c-0.229,0.028-0.459,0.061-0.69,0.096c-0.231,0.037-0.44,0.095-0.624,0.174
		c-0.184,0.08-0.334,0.195-0.449,0.343c-0.117,0.147-0.174,0.351-0.174,0.606c0,0.168,0.033,0.31,0.102,0.426
		c0.067,0.115,0.156,0.209,0.264,0.281c0.107,0.072,0.236,0.125,0.385,0.156c0.147,0.032,0.297,0.049,0.449,0.049
		c0.336,0,0.624-0.047,0.864-0.139c0.239-0.092,0.436-0.208,0.588-0.348c0.151-0.141,0.265-0.293,0.336-0.457
		c0.071-0.163,0.108-0.317,0.108-0.461v-1.045C525.487,91.468,525.319,91.537,525.112,91.582z"/>
	<path fill="#0069B4" d="M529.144,88.371v1.309h0.023c0.248-0.504,0.553-0.876,0.912-1.116c0.36-0.239,0.816-0.352,1.369-0.336v1.08
		c-0.408,0-0.756,0.056-1.045,0.168c-0.287,0.112-0.52,0.276-0.695,0.492c-0.176,0.216-0.305,0.477-0.385,0.786
		c-0.08,0.308-0.119,0.662-0.119,1.063v2.76h-1.021v-6.205H529.144z"/>
	<path fill="#0069B4" d="M536.536,96.328c-0.465,0.504-1.192,0.756-2.184,0.756c-0.289,0-0.582-0.032-0.883-0.096
		c-0.3-0.064-0.572-0.168-0.816-0.313c-0.244-0.145-0.445-0.332-0.605-0.564c-0.16-0.233-0.248-0.516-0.264-0.852h1.02
		c0.008,0.184,0.066,0.34,0.174,0.468c0.108,0.128,0.24,0.231,0.396,0.312c0.156,0.08,0.326,0.139,0.51,0.175
		c0.184,0.036,0.359,0.054,0.527,0.054c0.337,0,0.621-0.059,0.852-0.174c0.232-0.116,0.425-0.275,0.576-0.48
		c0.151-0.203,0.262-0.449,0.33-0.738c0.067-0.287,0.103-0.604,0.103-0.947v-0.408h-0.024c-0.177,0.385-0.442,0.666-0.798,0.846
		c-0.356,0.181-0.734,0.271-1.135,0.271c-0.464,0-0.867-0.084-1.211-0.252c-0.345-0.168-0.633-0.394-0.865-0.679
		c-0.231-0.283-0.406-0.615-0.521-0.996c-0.116-0.379-0.174-0.781-0.174-1.205c0-0.368,0.048-0.746,0.144-1.135
		c0.096-0.387,0.256-0.739,0.479-1.056c0.224-0.315,0.521-0.575,0.888-0.78c0.368-0.203,0.82-0.306,1.355-0.306
		c0.393,0,0.752,0.087,1.08,0.259c0.328,0.172,0.584,0.43,0.769,0.773h0.013v-0.889h0.959v5.677
		C537.232,95.063,536.999,95.824,536.536,96.328z M535.233,93.537c0.236-0.139,0.426-0.323,0.57-0.551
		c0.144-0.229,0.25-0.486,0.318-0.775c0.067-0.288,0.102-0.576,0.102-0.864c0-0.271-0.031-0.54-0.096-0.805
		c-0.065-0.264-0.166-0.502-0.307-0.713c-0.14-0.213-0.322-0.383-0.545-0.51c-0.225-0.129-0.496-0.193-0.816-0.193
		c-0.328,0-0.608,0.063-0.84,0.187c-0.232,0.124-0.422,0.29-0.57,0.498c-0.148,0.208-0.256,0.448-0.324,0.72
		c-0.068,0.272-0.102,0.557-0.102,0.853c0,0.28,0.027,0.56,0.084,0.84c0.056,0.28,0.152,0.534,0.287,0.763
		c0.137,0.227,0.316,0.412,0.541,0.551c0.224,0.141,0.504,0.211,0.84,0.211C534.712,93.748,534.997,93.678,535.233,93.537z"/>
	<path fill="#0069B4" d="M543.159,94.179c-0.464,0.352-1.048,0.527-1.752,0.527c-0.496,0-0.926-0.08-1.289-0.239
		c-0.365-0.16-0.671-0.384-0.918-0.672c-0.248-0.288-0.435-0.632-0.559-1.032c-0.124-0.4-0.194-0.836-0.21-1.309
		c0-0.471,0.071-0.903,0.216-1.295c0.144-0.393,0.346-0.732,0.605-1.021c0.26-0.288,0.568-0.512,0.925-0.672
		c0.355-0.16,0.745-0.24,1.17-0.24c0.552,0,1.01,0.114,1.374,0.343c0.363,0.228,0.656,0.518,0.876,0.869
		c0.22,0.353,0.372,0.736,0.456,1.152c0.084,0.416,0.117,0.813,0.101,1.188h-4.643c-0.009,0.272,0.024,0.53,0.096,0.774
		c0.072,0.244,0.188,0.46,0.349,0.647c0.159,0.188,0.363,0.338,0.611,0.451c0.248,0.111,0.54,0.168,0.876,0.168
		c0.433,0,0.786-0.1,1.061-0.301c0.277-0.199,0.459-0.504,0.547-0.912h1.008C543.923,93.303,543.624,93.828,543.159,94.179z
		 M542.913,90.195c-0.092-0.216-0.215-0.402-0.371-0.558c-0.156-0.156-0.341-0.28-0.553-0.372c-0.212-0.092-0.445-0.139-0.701-0.139
		c-0.265,0-0.503,0.047-0.715,0.139s-0.394,0.219-0.546,0.378c-0.151,0.16-0.273,0.347-0.36,0.558
		c-0.088,0.213-0.14,0.438-0.155,0.679h3.563C543.06,90.639,543.005,90.412,542.913,90.195z"/>
	<path fill="#0069B4" d="M546.136,88.371v1.309h0.023c0.248-0.504,0.553-0.876,0.912-1.116c0.359-0.239,0.816-0.352,1.368-0.336
		v1.08c-0.408,0-0.756,0.056-1.044,0.168c-0.288,0.112-0.521,0.276-0.696,0.492c-0.176,0.216-0.304,0.477-0.384,0.786
		c-0.08,0.308-0.12,0.662-0.12,1.063v2.76h-1.021v-6.205H546.136z"/>
	<path fill="#0069B4" d="M499.036,103.672v-0.9h1.044v-0.924c0-0.504,0.145-0.887,0.438-1.146c0.291-0.26,0.717-0.39,1.277-0.39
		c0.096,0,0.206,0.009,0.33,0.024c0.124,0.016,0.234,0.039,0.33,0.072v0.887c-0.088-0.031-0.184-0.053-0.288-0.065
		c-0.104-0.012-0.2-0.019-0.288-0.019c-0.248,0-0.439,0.049-0.576,0.145c-0.136,0.096-0.203,0.28-0.203,0.553v0.863h1.199v0.9
		h-1.199v5.304h-1.02v-5.304H499.036z"/>
	<path fill="#0069B4" d="M503.067,104.601c0.129-0.396,0.32-0.74,0.576-1.031c0.256-0.293,0.572-0.523,0.948-0.691
		c0.376-0.168,0.808-0.252,1.296-0.252c0.496,0,0.93,0.084,1.303,0.252c0.371,0.168,0.686,0.399,0.941,0.691
		c0.256,0.291,0.447,0.635,0.576,1.031c0.128,0.396,0.191,0.822,0.191,1.277c0,0.457-0.064,0.881-0.191,1.272
		c-0.129,0.392-0.32,0.734-0.576,1.026c-0.256,0.292-0.57,0.52-0.941,0.684c-0.373,0.164-0.807,0.246-1.303,0.246
		c-0.488,0-0.92-0.082-1.296-0.246c-0.376-0.164-0.692-0.392-0.948-0.684c-0.256-0.292-0.447-0.635-0.576-1.026
		c-0.127-0.392-0.191-0.815-0.191-1.272C502.876,105.424,502.94,104.998,503.067,104.601z M504.107,106.881
		c0.1,0.293,0.237,0.537,0.414,0.732c0.176,0.196,0.381,0.346,0.617,0.45c0.236,0.104,0.486,0.156,0.75,0.156
		c0.264,0,0.514-0.052,0.75-0.156c0.236-0.104,0.441-0.254,0.618-0.45c0.176-0.195,0.314-0.439,0.414-0.732
		c0.101-0.291,0.149-0.625,0.149-1.002c0-0.375-0.049-0.709-0.149-1.002c-0.101-0.291-0.238-0.537-0.414-0.737
		c-0.177-0.2-0.382-0.353-0.618-0.456c-0.236-0.104-0.486-0.156-0.75-0.156c-0.264,0-0.514,0.053-0.75,0.156
		c-0.236,0.104-0.441,0.256-0.617,0.456c-0.177,0.2-0.315,0.446-0.414,0.737c-0.101,0.293-0.15,0.627-0.15,1.002
		C503.956,106.256,504.006,106.59,504.107,106.881z"/>
	<path fill="#0069B4" d="M511.025,102.771v1.309h0.023c0.248-0.504,0.553-0.877,0.912-1.117c0.359-0.239,0.816-0.351,1.368-0.336
		v1.08c-0.408,0-0.756,0.057-1.044,0.168c-0.288,0.113-0.52,0.276-0.696,0.492c-0.176,0.217-0.304,0.479-0.384,0.787
		c-0.08,0.307-0.12,0.661-0.12,1.061v2.76h-1.02v-6.204H511.025z"/>
	<path fill="#0069B4" d="M519.915,108.975v-6.097h-2.207v-0.815c0.287,0,0.567-0.022,0.84-0.065
		c0.271-0.045,0.518-0.127,0.738-0.246c0.219-0.121,0.405-0.284,0.558-0.492c0.151-0.208,0.256-0.473,0.311-0.792h0.78v8.508
		H519.915z"/>
	<path fill="#0069B4" d="M523.996,102.279c0.112-0.367,0.286-0.686,0.523-0.953c0.235-0.269,0.529-0.479,0.881-0.631
		c0.353-0.151,0.752-0.227,1.201-0.227c0.367,0,0.713,0.054,1.037,0.161c0.324,0.109,0.607,0.265,0.846,0.469
		c0.24,0.204,0.431,0.458,0.57,0.762c0.141,0.305,0.211,0.656,0.211,1.057c0,0.375-0.059,0.707-0.175,0.996
		c-0.116,0.287-0.271,0.545-0.462,0.773s-0.412,0.434-0.66,0.618c-0.248,0.185-0.504,0.36-0.768,0.528
		c-0.264,0.16-0.528,0.317-0.793,0.474c-0.264,0.155-0.506,0.322-0.725,0.498c-0.221,0.176-0.408,0.366-0.564,0.569
		c-0.156,0.205-0.258,0.438-0.307,0.703h4.369v0.899h-5.557c0.04-0.504,0.13-0.935,0.27-1.29c0.141-0.355,0.318-0.666,0.534-0.93
		c0.216-0.264,0.46-0.496,0.732-0.696c0.271-0.2,0.556-0.388,0.852-0.563c0.36-0.225,0.677-0.431,0.948-0.619
		c0.271-0.188,0.498-0.377,0.678-0.569c0.18-0.192,0.316-0.399,0.408-0.624s0.139-0.484,0.139-0.779
		c0-0.232-0.045-0.443-0.133-0.631s-0.206-0.35-0.354-0.486c-0.148-0.135-0.322-0.24-0.523-0.312s-0.412-0.108-0.636-0.108
		c-0.297,0-0.551,0.063-0.762,0.187c-0.213,0.124-0.387,0.286-0.522,0.485c-0.136,0.201-0.233,0.427-0.294,0.679
		c-0.061,0.252-0.086,0.506-0.078,0.762h-1.019C523.84,103.047,523.884,102.647,523.996,102.279z"/>
	<path fill="#0069B4" d="M530.536,103.828c0.016-0.336,0.056-0.664,0.119-0.984c0.065-0.32,0.156-0.624,0.276-0.912
		s0.284-0.54,0.492-0.756c0.208-0.217,0.47-0.389,0.786-0.516c0.316-0.129,0.693-0.192,1.134-0.192c0.44,0,0.817,0.063,1.134,0.192
		c0.316,0.127,0.578,0.299,0.786,0.516c0.208,0.216,0.372,0.468,0.492,0.756c0.12,0.288,0.212,0.592,0.276,0.912
		c0.063,0.32,0.104,0.648,0.119,0.984c0.017,0.336,0.024,0.66,0.024,0.972c0,0.312-0.008,0.636-0.024,0.972
		c-0.016,0.336-0.056,0.664-0.119,0.984c-0.064,0.32-0.156,0.622-0.276,0.906c-0.12,0.283-0.284,0.533-0.492,0.75
		c-0.208,0.215-0.468,0.386-0.78,0.51c-0.312,0.123-0.691,0.186-1.14,0.186c-0.44,0-0.817-0.063-1.134-0.186
		c-0.316-0.124-0.578-0.295-0.786-0.51c-0.208-0.217-0.372-0.467-0.492-0.75c-0.12-0.284-0.212-0.586-0.276-0.906
		c-0.063-0.32-0.103-0.648-0.119-0.984c-0.017-0.336-0.024-0.66-0.024-0.972C530.512,104.488,530.52,104.164,530.536,103.828z
		 M531.622,105.861c0.02,0.396,0.084,0.767,0.191,1.116c0.108,0.349,0.282,0.642,0.523,0.882c0.239,0.24,0.575,0.36,1.008,0.36
		s0.768-0.12,1.009-0.36c0.239-0.24,0.413-0.533,0.521-0.882c0.107-0.349,0.172-0.72,0.191-1.116c0.02-0.396,0.03-0.754,0.03-1.074
		c0-0.207-0.002-0.438-0.006-0.689c-0.005-0.252-0.024-0.504-0.06-0.756c-0.037-0.252-0.088-0.498-0.156-0.738
		c-0.068-0.24-0.168-0.449-0.301-0.63c-0.131-0.181-0.297-0.325-0.498-0.438c-0.199-0.111-0.443-0.168-0.731-0.168
		s-0.532,0.057-0.732,0.168c-0.201,0.113-0.367,0.258-0.498,0.438c-0.133,0.181-0.232,0.39-0.301,0.63
		c-0.068,0.24-0.119,0.486-0.156,0.738c-0.035,0.252-0.056,0.504-0.06,0.756c-0.004,0.252-0.006,0.482-0.006,0.689
		C531.592,105.107,531.602,105.466,531.622,105.861z"/>
	<path fill="#0069B4" d="M538.504,102.771v0.84h0.024c0.168-0.344,0.432-0.594,0.791-0.75c0.36-0.156,0.756-0.234,1.188-0.234
		c0.479,0,0.897,0.089,1.254,0.265c0.356,0.177,0.651,0.414,0.888,0.714c0.236,0.301,0.414,0.646,0.534,1.038
		c0.12,0.392,0.181,0.808,0.181,1.248c0,0.44-0.059,0.856-0.175,1.248s-0.292,0.733-0.528,1.026
		c-0.235,0.291-0.531,0.521-0.887,0.689c-0.357,0.168-0.771,0.252-1.242,0.252c-0.152,0-0.322-0.016-0.511-0.048
		c-0.188-0.032-0.374-0.084-0.558-0.155c-0.184-0.072-0.358-0.17-0.522-0.295c-0.164-0.123-0.303-0.277-0.414-0.462h-0.024v3.192
		h-1.021v-8.568H538.504z M542.17,104.973c-0.076-0.276-0.192-0.522-0.349-0.738c-0.156-0.216-0.355-0.388-0.6-0.516
		c-0.244-0.128-0.53-0.192-0.857-0.192c-0.345,0-0.637,0.068-0.877,0.204c-0.24,0.136-0.435,0.313-0.588,0.534
		c-0.152,0.221-0.262,0.471-0.33,0.75c-0.068,0.28-0.102,0.564-0.102,0.852c0,0.305,0.036,0.599,0.107,0.883
		c0.072,0.283,0.187,0.533,0.342,0.75c0.156,0.216,0.358,0.39,0.607,0.521c0.247,0.133,0.547,0.198,0.899,0.198
		c0.352,0,0.646-0.067,0.882-0.204c0.236-0.136,0.426-0.316,0.57-0.54c0.144-0.224,0.248-0.479,0.312-0.769
		c0.063-0.287,0.097-0.584,0.097-0.887C542.284,105.531,542.245,105.25,542.17,104.973z"/>
	<path fill="#0069B4" d="M544.071,102.771h1.309l1.487,2.172l1.548-2.172h1.225l-2.137,2.855l2.4,3.349h-1.309l-1.728-2.567
		l-1.727,2.567h-1.236l2.328-3.265L544.071,102.771z"/>
	<path fill="#0069B4" d="M559.972,105.531v0.816h-2.616v2.628h-0.815v-2.628h-2.616v-0.816h2.616v-2.627h0.815v2.627H559.972z"/>
</g>
<path fill-rule="evenodd" clip-rule="evenodd" fill="#FFFFFF" d="M333.387,266.113c-8.995,0-16.289,7.293-16.289,16.29
	c0,7.196,4.667,13.302,11.141,15.456c0.814,0.149,1.112-0.354,1.112-0.785c0-0.387-0.014-1.411-0.022-2.77
	c-4.531,0.984-5.487-2.184-5.487-2.184c-0.741-1.882-1.809-2.383-1.809-2.383c-1.479-1.011,0.112-0.99,0.112-0.99
	c1.635,0.115,2.495,1.679,2.495,1.679c1.453,2.489,3.813,1.77,4.741,1.353c0.148-1.053,0.569-1.771,1.034-2.178
	c-3.617-0.411-7.42-1.809-7.42-8.051c0-1.778,0.635-3.232,1.677-4.371c-0.168-0.412-0.727-2.068,0.16-4.311
	c0,0,1.368-0.438,4.479,1.67c1.299-0.361,2.693-0.542,4.078-0.548c1.383,0.006,2.777,0.187,4.078,0.548
	c3.11-2.108,4.475-1.67,4.475-1.67c0.889,2.243,0.33,3.899,0.162,4.311c1.044,1.139,1.674,2.593,1.674,4.371
	c0,6.258-3.809,7.635-7.438,8.038c0.585,0.503,1.106,1.497,1.106,3.017c0,2.178-0.02,3.935-0.02,4.469
	c0,0.436,0.293,0.942,1.12,0.783c6.467-2.158,11.13-8.26,11.13-15.454C349.678,273.406,342.384,266.113,333.387,266.113z"/>
<g>
	<path fill-rule="evenodd" clip-rule="evenodd" fill="#FFFFFF" d="M60.388,0C27.041,0,0,27.035,0,60.388
		c0,26.681,17.303,49.316,41.297,57.302c3.018,0.559,4.126-1.311,4.126-2.905c0-1.439-0.056-6.197-0.082-11.243
		c-16.8,3.653-20.345-7.125-20.345-7.125c-2.747-6.979-6.705-8.836-6.705-8.836c-5.479-3.748,0.413-3.671,0.413-3.671
		c6.063,0.426,9.257,6.224,9.257,6.224c5.386,9.231,14.127,6.563,17.573,5.019c0.542-3.902,2.106-6.567,3.834-8.075
		c-13.413-1.526-27.514-6.705-27.514-29.844c0-6.593,2.359-11.98,6.223-16.209c-0.627-1.521-2.694-7.663,0.585-15.982
		c0,0,5.071-1.622,16.61,6.191c4.817-1.338,9.983-2.009,15.115-2.033c5.132,0.024,10.302,0.694,15.128,2.033
		c11.526-7.813,16.59-6.191,16.59-6.191c3.287,8.318,1.22,14.46,0.593,15.982c3.872,4.229,6.215,9.616,6.215,16.209
		c0,23.194-14.127,28.301-27.574,29.796c2.166,1.874,4.096,5.549,4.096,11.183c0,8.08-0.069,14.583-0.069,16.572
		c0,1.607,1.087,3.49,4.147,2.897c23.981-7.994,41.263-30.622,41.263-57.294C120.775,27.035,93.738,0,60.388,0z"/>
	<path fill="#FFFFFF" d="M22.872,86.703c-0.133,0.301-0.605,0.391-1.035,0.185c-0.439-0.197-0.684-0.606-0.542-0.907
		c0.13-0.309,0.602-0.395,1.04-0.188C22.773,85.989,23.023,86.402,22.872,86.703L22.872,86.703z M22.129,86.152"/>
	<path fill="#FFFFFF" d="M25.318,89.432c-0.288,0.267-0.852,0.143-1.233-0.279c-0.396-0.421-0.469-0.984-0.177-1.255
		c0.297-0.267,0.843-0.142,1.238,0.279C25.542,88.603,25.619,89.161,25.318,89.432L25.318,89.432z M24.742,88.813"/>
	<path fill="#FFFFFF" d="M27.699,92.909c-0.37,0.258-0.976,0.017-1.35-0.521c-0.37-0.537-0.37-1.182,0.009-1.439
		c0.374-0.258,0.971-0.025,1.35,0.507C28.077,92.002,28.077,92.646,27.699,92.909L27.699,92.909z M27.699,92.909"/>
	<path fill="#FFFFFF" d="M30.961,96.27c-0.331,0.365-1.036,0.267-1.552-0.231c-0.528-0.486-0.675-1.178-0.344-1.543
		c0.336-0.365,1.045-0.263,1.564,0.231C31.154,95.213,31.313,95.908,30.961,96.27L30.961,96.27z M30.961,96.27"/>
	<path fill="#FFFFFF" d="M35.461,98.221c-0.146,0.473-0.825,0.688-1.509,0.486c-0.684-0.207-1.13-0.761-0.992-1.238
		c0.142-0.477,0.824-0.7,1.513-0.485C35.155,97.189,35.603,97.739,35.461,98.221L35.461,98.221z M35.461,98.221"/>
	<path fill="#FFFFFF" d="M40.403,98.582c0.017,0.498-0.564,0.911-1.281,0.92c-0.722,0.017-1.307-0.387-1.314-0.877
		c0-0.503,0.567-0.911,1.289-0.924C39.814,97.688,40.403,98.088,40.403,98.582L40.403,98.582z M40.403,98.582"/>
	<path fill="#FFFFFF" d="M45.002,97.8c0.086,0.485-0.413,0.984-1.126,1.117c-0.701,0.129-1.35-0.172-1.439-0.653
		c-0.087-0.498,0.421-0.997,1.121-1.126C44.271,97.014,44.911,97.306,45.002,97.8L45.002,97.8z M45.002,97.8"/>
</g>
<g>
	<g>
		
			<line fill="none" stroke="#147EBC" stroke-linecap="round" stroke-miterlimit="10" x1="405.677" y1="211.17" x2="405.677" y2="211.67"/>
		
			<line fill="none" stroke="#147EBC" stroke-linecap="round" stroke-miterlimit="10" stroke-dasharray="0.9999,1.9999" x1="405.677" y1="213.67" x2="405.677" y2="347.663"/>
		
			<line fill="none" stroke="#147EBC" stroke-linecap="round" stroke-miterlimit="10" x1="405.677" y1="348.663" x2="405.677" y2="349.163"/>
	</g>
</g>
<g>
	<path fill="#0069B4" d="M314.055,363.178c-0.38-0.276-0.866-0.414-1.458-0.414c-0.24,0-0.476,0.024-0.708,0.071
		c-0.232,0.049-0.438,0.129-0.618,0.24c-0.18,0.113-0.324,0.263-0.432,0.451c-0.108,0.188-0.162,0.422-0.162,0.701
		c0,0.264,0.078,0.479,0.234,0.643c0.156,0.164,0.364,0.298,0.624,0.401c0.26,0.105,0.554,0.19,0.882,0.259
		c0.328,0.067,0.662,0.142,1.002,0.221c0.34,0.08,0.674,0.175,1.002,0.283c0.328,0.107,0.622,0.254,0.882,0.438
		c0.26,0.184,0.468,0.416,0.624,0.695c0.156,0.281,0.234,0.633,0.234,1.057c0,0.456-0.102,0.846-0.306,1.17
		c-0.204,0.324-0.466,0.588-0.786,0.792c-0.32,0.204-0.678,0.352-1.074,0.444c-0.396,0.092-0.79,0.138-1.182,0.138
		c-0.48,0-0.934-0.06-1.362-0.18c-0.428-0.12-0.804-0.302-1.128-0.546c-0.324-0.244-0.58-0.557-0.768-0.936
		c-0.188-0.38-0.282-0.829-0.282-1.35h1.08c0,0.36,0.07,0.67,0.21,0.93c0.14,0.261,0.324,0.474,0.552,0.642
		c0.228,0.168,0.494,0.293,0.798,0.373c0.304,0.08,0.616,0.119,0.936,0.119c0.256,0,0.514-0.023,0.774-0.072
		c0.26-0.047,0.494-0.129,0.702-0.246c0.208-0.115,0.376-0.273,0.504-0.473c0.128-0.201,0.192-0.457,0.192-0.768
		c0-0.296-0.078-0.536-0.234-0.72c-0.156-0.184-0.364-0.334-0.624-0.45c-0.26-0.116-0.554-0.21-0.882-0.282
		c-0.328-0.072-0.662-0.146-1.002-0.223c-0.34-0.075-0.674-0.163-1.002-0.264c-0.328-0.1-0.623-0.232-0.882-0.396
		c-0.26-0.164-0.468-0.376-0.624-0.636c-0.156-0.26-0.234-0.586-0.234-0.979c0-0.432,0.088-0.806,0.264-1.122
		c0.176-0.315,0.41-0.575,0.702-0.78c0.292-0.203,0.624-0.355,0.996-0.455c0.372-0.101,0.754-0.15,1.146-0.15
		c0.44,0,0.848,0.053,1.224,0.156c0.376,0.104,0.706,0.268,0.99,0.492c0.284,0.224,0.508,0.506,0.672,0.846
		c0.164,0.34,0.254,0.746,0.27,1.218h-1.08C314.656,363.9,314.435,363.455,314.055,363.178z"/>
	<path fill="#0069B4" d="M318.333,364.373v0.912h0.024c0.464-0.705,1.132-1.057,2.004-1.057c0.384,0,0.732,0.08,1.044,0.24
		c0.312,0.16,0.532,0.432,0.66,0.816c0.208-0.336,0.482-0.596,0.822-0.78c0.34-0.185,0.714-0.276,1.121-0.276
		c0.312,0,0.594,0.034,0.846,0.102c0.252,0.068,0.468,0.175,0.648,0.318c0.18,0.145,0.32,0.33,0.42,0.559
		c0.1,0.228,0.15,0.502,0.15,0.822v4.547h-1.02v-4.067c0-0.192-0.017-0.372-0.048-0.54c-0.032-0.168-0.092-0.315-0.18-0.438
		c-0.088-0.125-0.21-0.223-0.366-0.295c-0.156-0.072-0.358-0.107-0.606-0.107c-0.504,0-0.9,0.144-1.188,0.432
		c-0.288,0.288-0.432,0.672-0.432,1.152v3.863h-1.02v-4.067c0-0.2-0.018-0.384-0.054-0.552c-0.036-0.168-0.098-0.314-0.186-0.438
		c-0.088-0.124-0.206-0.22-0.354-0.288c-0.148-0.068-0.338-0.102-0.57-0.102c-0.296,0-0.55,0.06-0.762,0.18
		c-0.212,0.12-0.384,0.264-0.516,0.432c-0.132,0.168-0.228,0.342-0.288,0.522c-0.06,0.181-0.09,0.33-0.09,0.45v3.863h-1.02v-6.203
		H318.333z"/>
	<path fill="#0069B4" d="M332.373,370.709c-0.264,0-0.474-0.074-0.63-0.223c-0.156-0.147-0.234-0.39-0.234-0.726
		c-0.28,0.336-0.606,0.578-0.978,0.726c-0.372,0.148-0.774,0.223-1.206,0.223c-0.28,0-0.544-0.03-0.792-0.09
		c-0.248-0.061-0.466-0.16-0.654-0.301c-0.188-0.14-0.336-0.319-0.444-0.539c-0.108-0.221-0.162-0.486-0.162-0.799
		c0-0.352,0.06-0.64,0.18-0.863c0.12-0.225,0.278-0.406,0.474-0.547c0.196-0.14,0.42-0.246,0.672-0.318
		c0.252-0.071,0.51-0.131,0.774-0.18c0.28-0.056,0.546-0.098,0.798-0.125c0.252-0.028,0.474-0.068,0.666-0.121
		c0.192-0.051,0.344-0.127,0.456-0.228c0.112-0.101,0.168-0.246,0.168-0.439c0-0.223-0.042-0.403-0.126-0.539
		c-0.084-0.137-0.192-0.24-0.324-0.313c-0.132-0.072-0.28-0.12-0.444-0.145c-0.164-0.023-0.326-0.035-0.486-0.035
		c-0.432,0-0.792,0.082-1.08,0.246c-0.288,0.164-0.444,0.474-0.468,0.93h-1.02c0.016-0.384,0.096-0.708,0.24-0.973
		c0.144-0.264,0.336-0.478,0.576-0.642c0.24-0.163,0.516-0.282,0.828-0.354c0.312-0.071,0.64-0.107,0.984-0.107
		c0.28,0,0.558,0.02,0.834,0.061c0.276,0.039,0.526,0.121,0.75,0.246c0.224,0.123,0.404,0.298,0.54,0.522
		c0.136,0.225,0.204,0.516,0.204,0.876v3.192c0,0.24,0.014,0.416,0.042,0.527c0.028,0.112,0.122,0.168,0.282,0.168
		c0.088,0,0.192-0.02,0.312-0.06v0.792C332.928,370.656,332.685,370.709,332.373,370.709z M330.944,367.582
		c-0.208,0.045-0.426,0.08-0.654,0.108c-0.228,0.028-0.458,0.06-0.69,0.097c-0.232,0.035-0.44,0.094-0.624,0.174
		c-0.185,0.08-0.335,0.193-0.45,0.342c-0.116,0.148-0.174,0.35-0.174,0.605c0,0.168,0.034,0.311,0.102,0.426
		c0.068,0.117,0.156,0.211,0.264,0.283c0.108,0.071,0.236,0.123,0.384,0.155c0.148,0.032,0.298,0.048,0.45,0.048
		c0.336,0,0.624-0.045,0.864-0.138c0.24-0.092,0.436-0.208,0.588-0.349c0.152-0.139,0.264-0.291,0.336-0.455
		c0.072-0.164,0.108-0.318,0.108-0.463v-1.043C331.32,367.469,331.152,367.539,330.944,367.582z"/>
	<path fill="#0069B4" d="M335.132,362.009v8.567h-1.02v-8.567H335.132z"/>
	<path fill="#0069B4" d="M337.796,362.009v8.567h-1.02v-8.567H337.796z"/>
	<path fill="#0069B4" d="M282.633,379.672v-0.899h1.044v-0.924c0-0.504,0.146-0.886,0.438-1.146c0.292-0.26,0.718-0.391,1.278-0.391
		c0.096,0,0.206,0.008,0.33,0.023c0.124,0.017,0.234,0.041,0.33,0.072v0.889c-0.088-0.032-0.184-0.055-0.288-0.066
		s-0.2-0.018-0.288-0.018c-0.248,0-0.44,0.048-0.576,0.144c-0.136,0.097-0.204,0.28-0.204,0.552v0.864h1.2v0.899h-1.2v5.305h-1.02
		v-5.305H282.633z"/>
	<path fill="#0069B4" d="M286.665,380.602c0.128-0.396,0.32-0.739,0.576-1.032c0.256-0.291,0.572-0.521,0.948-0.689
		s0.808-0.252,1.296-0.252c0.496,0,0.93,0.084,1.302,0.252c0.372,0.168,0.685,0.398,0.942,0.689
		c0.256,0.293,0.448,0.637,0.576,1.032c0.128,0.396,0.192,0.822,0.192,1.278c0,0.455-0.064,0.88-0.192,1.272
		c-0.128,0.393-0.32,0.734-0.576,1.026c-0.256,0.292-0.57,0.52-0.942,0.685c-0.372,0.163-0.806,0.245-1.302,0.245
		c-0.488,0-0.92-0.082-1.296-0.245c-0.376-0.164-0.692-0.393-0.948-0.685c-0.256-0.292-0.448-0.634-0.576-1.026
		c-0.128-0.392-0.192-0.816-0.192-1.272C286.473,381.425,286.537,380.998,286.665,380.602z M287.703,382.883
		c0.1,0.292,0.238,0.535,0.414,0.732c0.176,0.195,0.382,0.346,0.618,0.449c0.236,0.103,0.486,0.156,0.75,0.156
		c0.264,0,0.514-0.053,0.75-0.156c0.236-0.104,0.442-0.254,0.618-0.449c0.176-0.197,0.314-0.44,0.414-0.732
		c0.1-0.292,0.15-0.626,0.15-1.002c0-0.377-0.05-0.71-0.15-1.002c-0.1-0.293-0.238-0.538-0.414-0.738
		c-0.176-0.199-0.382-0.352-0.618-0.456c-0.236-0.104-0.486-0.156-0.75-0.156c-0.264,0-0.514,0.052-0.75,0.156
		c-0.236,0.104-0.442,0.257-0.618,0.456c-0.176,0.2-0.314,0.445-0.414,0.738c-0.1,0.292-0.15,0.625-0.15,1.002
		C287.553,382.257,287.603,382.591,287.703,382.883z"/>
	<path fill="#0069B4" d="M294.621,378.772v1.308h0.024c0.248-0.504,0.552-0.875,0.912-1.115c0.36-0.24,0.816-0.352,1.368-0.336v1.08
		c-0.408,0-0.756,0.056-1.044,0.168c-0.288,0.111-0.52,0.275-0.696,0.492c-0.176,0.215-0.304,0.478-0.384,0.785
		c-0.08,0.309-0.12,0.662-0.12,1.063v2.76h-1.02v-6.204H294.621z"/>
	<path fill="#0069B4" d="M303.512,384.976v-6.096h-2.208v-0.816c0.288,0,0.568-0.022,0.84-0.066
		c0.272-0.043,0.518-0.125,0.738-0.246c0.22-0.119,0.406-0.283,0.558-0.491c0.152-0.208,0.256-0.472,0.312-0.792h0.78v8.508H303.512
		z"/>
	<path fill="#0069B4" d="M311.457,377.717c-0.248-0.232-0.576-0.348-0.984-0.348c-0.432,0-0.78,0.105-1.044,0.317
		c-0.264,0.212-0.47,0.479-0.618,0.804c-0.148,0.324-0.25,0.674-0.306,1.051c-0.056,0.375-0.088,0.728-0.096,1.056l0.024,0.024
		c0.24-0.393,0.538-0.676,0.894-0.852c0.356-0.176,0.766-0.265,1.23-0.265c0.408,0,0.774,0.07,1.098,0.211
		c0.324,0.14,0.596,0.334,0.816,0.582c0.22,0.248,0.39,0.539,0.51,0.875c0.12,0.337,0.18,0.701,0.18,1.093
		c0,0.311-0.048,0.636-0.144,0.972c-0.096,0.336-0.254,0.643-0.474,0.918c-0.22,0.276-0.512,0.504-0.876,0.684
		c-0.364,0.181-0.814,0.271-1.35,0.271c-0.632,0-1.14-0.128-1.524-0.384c-0.384-0.256-0.68-0.584-0.888-0.984
		c-0.209-0.4-0.346-0.84-0.414-1.32c-0.068-0.48-0.102-0.943-0.102-1.392c0-0.583,0.05-1.149,0.15-1.698
		c0.1-0.547,0.27-1.033,0.51-1.457c0.24-0.424,0.56-0.764,0.96-1.021c0.4-0.256,0.904-0.384,1.512-0.384
		c0.704,0,1.264,0.185,1.68,0.558c0.416,0.372,0.656,0.91,0.72,1.614h-1.02C311.853,378.256,311.705,377.949,311.457,377.717z
		 M309.608,380.554c-0.216,0.1-0.4,0.236-0.552,0.408c-0.152,0.172-0.266,0.376-0.342,0.611c-0.076,0.236-0.114,0.486-0.114,0.75
		c0,0.264,0.04,0.512,0.12,0.744c0.08,0.232,0.194,0.432,0.342,0.6c0.148,0.168,0.332,0.303,0.552,0.402
		c0.22,0.101,0.47,0.15,0.75,0.15c0.28,0,0.526-0.05,0.738-0.15c0.212-0.1,0.39-0.238,0.534-0.414
		c0.144-0.176,0.254-0.378,0.33-0.605c0.076-0.229,0.114-0.467,0.114-0.715c0-0.264-0.034-0.514-0.102-0.75
		c-0.068-0.235-0.174-0.439-0.318-0.611c-0.144-0.172-0.324-0.311-0.54-0.414c-0.216-0.104-0.468-0.156-0.756-0.156
		C310.077,380.404,309.825,380.455,309.608,380.554z"/>
	<path fill="#0069B4" d="M315.429,378.772v0.841h0.024c0.168-0.345,0.432-0.595,0.792-0.75c0.36-0.156,0.756-0.234,1.188-0.234
		c0.48,0,0.898,0.088,1.254,0.264c0.356,0.176,0.652,0.414,0.888,0.714c0.236,0.3,0.414,0.646,0.534,1.038
		c0.12,0.393,0.18,0.809,0.18,1.248c0,0.439-0.058,0.855-0.174,1.248c-0.116,0.393-0.292,0.734-0.528,1.025
		c-0.236,0.293-0.532,0.522-0.888,0.69c-0.357,0.168-0.771,0.252-1.242,0.252c-0.152,0-0.322-0.017-0.51-0.048
		c-0.188-0.032-0.374-0.084-0.558-0.156c-0.184-0.072-0.358-0.17-0.522-0.294c-0.164-0.124-0.302-0.278-0.414-0.462h-0.024v3.191
		h-1.02v-8.567H315.429z M319.095,380.974c-0.076-0.275-0.192-0.521-0.348-0.738c-0.156-0.216-0.356-0.388-0.6-0.516
		c-0.244-0.128-0.53-0.192-0.858-0.192c-0.344,0-0.636,0.068-0.876,0.204c-0.24,0.137-0.436,0.314-0.588,0.534
		c-0.152,0.22-0.262,0.47-0.33,0.75c-0.068,0.28-0.102,0.564-0.102,0.853c0,0.304,0.036,0.598,0.108,0.881
		c0.072,0.285,0.186,0.535,0.342,0.75c0.156,0.217,0.358,0.391,0.607,0.522c0.247,0.132,0.548,0.198,0.9,0.198
		c0.352,0,0.646-0.068,0.882-0.204c0.236-0.136,0.426-0.315,0.57-0.54c0.144-0.224,0.248-0.48,0.312-0.768
		c0.064-0.289,0.096-0.584,0.096-0.889C319.208,381.533,319.171,381.25,319.095,380.974z"/>
	<path fill="#0069B4" d="M320.996,378.772h1.308l1.488,2.172l1.548-2.172h1.224l-2.136,2.856l2.4,3.348h-1.308l-1.728-2.568
		l-1.727,2.568h-1.236l2.328-3.264L320.996,378.772z"/>
	<path fill="#0069B4" d="M331.004,381.16v0.961h-3.468v-0.961H331.004z"/>
	<path fill="#0069B4" d="M334.856,384.976v-6.096h-2.208v-0.816c0.288,0,0.568-0.022,0.84-0.066
		c0.272-0.043,0.518-0.125,0.738-0.246c0.22-0.119,0.406-0.283,0.558-0.491c0.152-0.208,0.256-0.472,0.312-0.792h0.78v8.508H334.856
		z"/>
	<path fill="#0069B4" d="M338.936,378.281c0.112-0.369,0.286-0.687,0.522-0.955c0.236-0.268,0.53-0.478,0.882-0.629
		c0.352-0.152,0.752-0.228,1.2-0.228c0.368,0,0.714,0.054,1.038,0.162c0.324,0.107,0.606,0.264,0.846,0.468
		c0.24,0.204,0.43,0.458,0.57,0.762c0.14,0.304,0.21,0.656,0.21,1.056c0,0.377-0.058,0.709-0.174,0.996
		c-0.116,0.289-0.27,0.547-0.462,0.775c-0.192,0.227-0.412,0.434-0.66,0.618c-0.248,0.184-0.504,0.359-0.768,0.527
		c-0.264,0.16-0.528,0.318-0.792,0.475c-0.264,0.156-0.506,0.322-0.726,0.498c-0.22,0.176-0.408,0.365-0.564,0.57
		c-0.156,0.203-0.258,0.438-0.306,0.701h4.368v0.9h-5.556c0.04-0.504,0.13-0.934,0.27-1.29c0.14-0.357,0.318-0.666,0.534-0.931
		c0.216-0.264,0.46-0.495,0.732-0.695c0.272-0.199,0.556-0.388,0.852-0.565c0.36-0.224,0.676-0.43,0.948-0.617
		c0.272-0.188,0.498-0.379,0.678-0.57c0.18-0.191,0.316-0.4,0.408-0.624s0.138-0.483,0.138-0.78c0-0.231-0.045-0.441-0.132-0.63
		c-0.088-0.188-0.206-0.35-0.354-0.485c-0.148-0.137-0.322-0.24-0.522-0.313c-0.2-0.072-0.412-0.107-0.636-0.107
		c-0.296,0-0.55,0.061-0.762,0.185c-0.212,0.124-0.386,0.286-0.522,0.486c-0.136,0.199-0.234,0.426-0.294,0.678
		c-0.06,0.252-0.086,0.506-0.078,0.762h-1.02C338.78,379.049,338.824,378.648,338.936,378.281z"/>
	<path fill="#0069B4" d="M345.476,379.828c0.016-0.336,0.056-0.664,0.12-0.983c0.064-0.319,0.156-0.624,0.276-0.912
		c0.12-0.288,0.284-0.54,0.492-0.756c0.208-0.216,0.47-0.388,0.786-0.517c0.316-0.127,0.694-0.191,1.134-0.191
		c0.44,0,0.818,0.064,1.134,0.191c0.316,0.129,0.578,0.301,0.786,0.517c0.208,0.216,0.372,0.468,0.492,0.756
		c0.12,0.288,0.212,0.593,0.276,0.912c0.064,0.319,0.104,0.647,0.12,0.983c0.016,0.336,0.024,0.66,0.024,0.973
		s-0.008,0.636-0.024,0.972c-0.016,0.336-0.056,0.664-0.12,0.983c-0.064,0.32-0.156,0.623-0.276,0.906
		c-0.12,0.285-0.284,0.535-0.492,0.75c-0.208,0.217-0.468,0.387-0.78,0.51c-0.312,0.125-0.692,0.186-1.14,0.186
		c-0.44,0-0.818-0.061-1.134-0.186c-0.316-0.123-0.578-0.293-0.786-0.51c-0.208-0.215-0.372-0.465-0.492-0.75
		c-0.12-0.283-0.212-0.586-0.276-0.906c-0.064-0.319-0.104-0.647-0.12-0.983c-0.016-0.336-0.024-0.659-0.024-0.972
		S345.46,380.164,345.476,379.828z M346.562,381.863c0.02,0.395,0.084,0.768,0.192,1.115c0.108,0.348,0.282,0.643,0.522,0.882
		c0.24,0.24,0.576,0.36,1.008,0.36c0.432,0,0.768-0.12,1.008-0.36c0.24-0.239,0.414-0.534,0.522-0.882
		c0.108-0.348,0.172-0.72,0.192-1.115c0.02-0.397,0.03-0.755,0.03-1.074c0-0.209-0.002-0.439-0.006-0.69
		c-0.004-0.252-0.024-0.504-0.06-0.756c-0.036-0.253-0.088-0.498-0.156-0.738c-0.068-0.239-0.168-0.45-0.3-0.63
		c-0.132-0.18-0.298-0.326-0.498-0.438c-0.2-0.112-0.444-0.168-0.732-0.168c-0.288,0-0.532,0.056-0.732,0.168
		c-0.2,0.111-0.366,0.258-0.498,0.438c-0.132,0.18-0.232,0.391-0.3,0.63c-0.068,0.24-0.12,0.485-0.156,0.738
		c-0.036,0.252-0.056,0.504-0.06,0.756c-0.004,0.252-0.006,0.481-0.006,0.69C346.532,381.108,346.542,381.467,346.562,381.863z"/>
	<path fill="#0069B4" d="M353.444,378.772v0.841h0.024c0.168-0.345,0.432-0.595,0.792-0.75c0.36-0.156,0.756-0.234,1.188-0.234
		c0.48,0,0.898,0.088,1.254,0.264c0.356,0.176,0.652,0.414,0.888,0.714c0.236,0.3,0.414,0.646,0.534,1.038
		c0.12,0.393,0.18,0.809,0.18,1.248c0,0.439-0.058,0.855-0.174,1.248c-0.116,0.393-0.292,0.734-0.528,1.025
		c-0.236,0.293-0.532,0.522-0.888,0.69c-0.356,0.168-0.771,0.252-1.242,0.252c-0.152,0-0.322-0.017-0.51-0.048
		c-0.188-0.032-0.374-0.084-0.558-0.156c-0.184-0.072-0.358-0.17-0.522-0.294c-0.164-0.124-0.302-0.278-0.414-0.462h-0.024v3.191
		h-1.02v-8.567H353.444z M357.11,380.974c-0.076-0.275-0.192-0.521-0.348-0.738c-0.156-0.216-0.356-0.388-0.6-0.516
		c-0.244-0.128-0.53-0.192-0.858-0.192c-0.344,0-0.636,0.068-0.876,0.204c-0.24,0.137-0.436,0.314-0.588,0.534
		c-0.152,0.22-0.262,0.47-0.33,0.75c-0.068,0.28-0.102,0.564-0.102,0.853c0,0.304,0.036,0.598,0.108,0.881
		c0.072,0.285,0.186,0.535,0.342,0.75c0.156,0.217,0.358,0.391,0.606,0.522c0.248,0.132,0.548,0.198,0.9,0.198
		c0.352,0,0.646-0.068,0.882-0.204c0.236-0.136,0.426-0.315,0.57-0.54c0.144-0.224,0.248-0.48,0.312-0.768
		c0.064-0.289,0.096-0.584,0.096-0.889C357.224,381.533,357.186,381.25,357.11,380.974z"/>
	<path fill="#0069B4" d="M359.012,378.772h1.308l1.488,2.172l1.548-2.172h1.224l-2.136,2.856l2.4,3.348h-1.308l-1.728-2.568
		l-1.728,2.568h-1.236l2.328-3.264L359.012,378.772z"/>
</g>
<g>
	<path fill="#0069B4" d="M516.412,362.008v7.607h4.536v0.961h-5.676v-8.568H516.412z"/>
	<path fill="#0069B4" d="M526.54,370.707c-0.264,0-0.475-0.073-0.631-0.221c-0.155-0.148-0.233-0.391-0.233-0.727
		c-0.28,0.336-0.606,0.578-0.977,0.727c-0.373,0.147-0.774,0.221-1.207,0.221c-0.279,0-0.543-0.029-0.791-0.09
		c-0.248-0.06-0.467-0.16-0.654-0.299c-0.188-0.141-0.336-0.32-0.443-0.541c-0.109-0.22-0.162-0.486-0.162-0.798
		c0-0.352,0.06-0.64,0.18-0.864c0.119-0.224,0.277-0.405,0.474-0.545c0.196-0.141,0.42-0.246,0.672-0.318
		c0.252-0.072,0.511-0.133,0.774-0.18c0.279-0.057,0.546-0.099,0.798-0.127c0.252-0.027,0.474-0.067,0.666-0.119
		c0.192-0.053,0.344-0.129,0.456-0.229c0.111-0.1,0.168-0.246,0.168-0.438c0-0.225-0.042-0.404-0.126-0.541
		c-0.084-0.135-0.192-0.239-0.324-0.312c-0.132-0.071-0.28-0.12-0.444-0.143c-0.164-0.024-0.326-0.037-0.485-0.037
		c-0.433,0-0.792,0.083-1.08,0.246c-0.288,0.164-0.444,0.475-0.468,0.931h-1.021c0.017-0.384,0.097-0.708,0.24-0.972
		c0.143-0.264,0.336-0.479,0.575-0.643c0.24-0.164,0.517-0.281,0.828-0.354c0.313-0.072,0.641-0.108,0.984-0.108
		c0.28,0,0.559,0.021,0.834,0.06c0.276,0.041,0.526,0.123,0.75,0.246c0.225,0.125,0.404,0.299,0.54,0.522
		c0.136,0.224,0.204,0.517,0.204,0.876v3.191c0,0.24,0.014,0.416,0.042,0.529c0.028,0.111,0.122,0.168,0.282,0.168
		c0.088,0,0.191-0.021,0.313-0.061v0.792C527.096,370.656,526.853,370.707,526.54,370.707z M525.112,367.582
		c-0.209,0.044-0.426,0.08-0.654,0.107c-0.229,0.028-0.459,0.06-0.69,0.096c-0.231,0.037-0.44,0.095-0.624,0.174
		c-0.184,0.08-0.334,0.195-0.449,0.343c-0.117,0.147-0.174,0.351-0.174,0.606c0,0.168,0.033,0.31,0.102,0.426
		c0.067,0.115,0.156,0.209,0.264,0.281c0.107,0.072,0.236,0.125,0.385,0.156c0.147,0.032,0.297,0.049,0.449,0.049
		c0.336,0,0.624-0.047,0.864-0.139c0.239-0.092,0.436-0.208,0.588-0.348c0.151-0.141,0.265-0.293,0.336-0.457
		c0.071-0.163,0.108-0.317,0.108-0.461v-1.045C525.487,367.468,525.319,367.537,525.112,367.582z"/>
	<path fill="#0069B4" d="M529.144,364.371v1.309h0.023c0.248-0.504,0.553-0.876,0.912-1.116c0.36-0.239,0.816-0.352,1.369-0.336
		v1.08c-0.408,0-0.756,0.056-1.045,0.168c-0.287,0.112-0.52,0.276-0.695,0.492c-0.176,0.216-0.305,0.478-0.385,0.786
		c-0.08,0.308-0.119,0.662-0.119,1.063v2.76h-1.021v-6.205H529.144z"/>
	<path fill="#0069B4" d="M536.536,372.328c-0.465,0.504-1.192,0.756-2.184,0.756c-0.289,0-0.582-0.032-0.883-0.096
		c-0.3-0.064-0.572-0.168-0.816-0.313c-0.244-0.145-0.445-0.332-0.605-0.564c-0.16-0.232-0.248-0.516-0.264-0.852h1.02
		c0.008,0.184,0.066,0.34,0.174,0.468c0.108,0.128,0.24,0.231,0.396,0.311c0.156,0.08,0.326,0.139,0.51,0.175
		s0.359,0.054,0.527,0.054c0.337,0,0.621-0.059,0.852-0.174c0.232-0.116,0.425-0.275,0.576-0.48c0.151-0.203,0.262-0.449,0.33-0.738
		c0.067-0.287,0.103-0.603,0.103-0.947v-0.408h-0.024c-0.177,0.385-0.442,0.666-0.798,0.846c-0.356,0.181-0.734,0.271-1.135,0.271
		c-0.464,0-0.867-0.084-1.211-0.252c-0.345-0.168-0.633-0.393-0.865-0.679c-0.231-0.283-0.406-0.615-0.521-0.996
		c-0.116-0.379-0.174-0.781-0.174-1.205c0-0.368,0.048-0.746,0.144-1.135c0.096-0.387,0.256-0.739,0.479-1.056
		c0.224-0.315,0.521-0.575,0.888-0.78c0.368-0.203,0.82-0.306,1.355-0.306c0.393,0,0.752,0.087,1.08,0.259
		c0.328,0.172,0.584,0.43,0.769,0.773h0.013v-0.889h0.959v5.677C537.232,371.063,536.999,371.824,536.536,372.328z M535.233,369.537
		c0.236-0.139,0.426-0.323,0.57-0.551c0.144-0.229,0.25-0.486,0.318-0.774c0.067-0.288,0.102-0.576,0.102-0.864
		c0-0.271-0.031-0.54-0.096-0.805c-0.065-0.264-0.166-0.502-0.307-0.713c-0.14-0.213-0.322-0.383-0.545-0.51
		c-0.225-0.129-0.496-0.193-0.816-0.193c-0.328,0-0.608,0.063-0.84,0.186c-0.232,0.124-0.422,0.29-0.57,0.498
		c-0.148,0.208-0.256,0.448-0.324,0.72c-0.068,0.272-0.102,0.557-0.102,0.852c0,0.28,0.027,0.56,0.084,0.84
		c0.056,0.28,0.152,0.534,0.287,0.763c0.137,0.228,0.316,0.412,0.541,0.551c0.224,0.141,0.504,0.211,0.84,0.211
		C534.712,369.748,534.997,369.678,535.233,369.537z"/>
	<path fill="#0069B4" d="M543.159,370.179c-0.464,0.352-1.048,0.527-1.752,0.527c-0.496,0-0.926-0.08-1.289-0.239
		c-0.365-0.16-0.671-0.384-0.918-0.672c-0.248-0.288-0.435-0.632-0.559-1.032c-0.124-0.4-0.194-0.836-0.21-1.309
		c0-0.471,0.071-0.903,0.216-1.295c0.144-0.393,0.346-0.732,0.605-1.02c0.26-0.288,0.568-0.512,0.925-0.672
		c0.355-0.16,0.745-0.24,1.17-0.24c0.552,0,1.01,0.114,1.374,0.343c0.363,0.228,0.656,0.518,0.876,0.869
		c0.22,0.352,0.372,0.736,0.456,1.152c0.084,0.416,0.117,0.813,0.101,1.188h-4.643c-0.009,0.272,0.024,0.53,0.096,0.774
		c0.072,0.244,0.188,0.46,0.349,0.647c0.159,0.189,0.363,0.338,0.611,0.451c0.248,0.111,0.54,0.168,0.876,0.168
		c0.433,0,0.786-0.101,1.061-0.301c0.277-0.199,0.459-0.504,0.547-0.912h1.008C543.923,369.303,543.624,369.828,543.159,370.179z
		 M542.913,366.195c-0.092-0.216-0.215-0.402-0.371-0.558c-0.156-0.156-0.341-0.28-0.553-0.372
		c-0.212-0.092-0.445-0.139-0.701-0.139c-0.265,0-0.503,0.047-0.715,0.139c-0.212,0.092-0.394,0.219-0.546,0.378
		c-0.151,0.16-0.273,0.347-0.36,0.558c-0.088,0.213-0.14,0.439-0.155,0.679h3.563C543.06,366.639,543.005,366.412,542.913,366.195z"
		/>
	<path fill="#0069B4" d="M546.136,364.371v1.309h0.023c0.248-0.504,0.553-0.876,0.912-1.116c0.359-0.239,0.816-0.352,1.368-0.336
		v1.08c-0.408,0-0.756,0.056-1.044,0.168c-0.288,0.112-0.521,0.276-0.696,0.492c-0.176,0.216-0.304,0.478-0.384,0.786
		c-0.08,0.308-0.12,0.662-0.12,1.063v2.76h-1.021v-6.205H546.136z"/>
	<path fill="#0069B4" d="M499.036,379.672v-0.9h1.044v-0.924c0-0.504,0.145-0.887,0.438-1.146c0.291-0.26,0.717-0.39,1.277-0.39
		c0.096,0,0.206,0.009,0.33,0.024c0.124,0.016,0.234,0.039,0.33,0.072v0.887c-0.088-0.031-0.184-0.053-0.288-0.066
		c-0.104-0.012-0.2-0.018-0.288-0.018c-0.248,0-0.439,0.049-0.576,0.145c-0.136,0.096-0.203,0.28-0.203,0.553v0.863h1.199v0.9
		h-1.199v5.304h-1.02v-5.304H499.036z"/>
	<path fill="#0069B4" d="M503.067,380.601c0.129-0.396,0.32-0.74,0.576-1.031c0.256-0.293,0.572-0.523,0.948-0.691
		c0.376-0.168,0.808-0.252,1.296-0.252c0.496,0,0.93,0.084,1.303,0.252c0.371,0.168,0.686,0.398,0.941,0.691
		c0.256,0.291,0.447,0.635,0.576,1.031c0.128,0.397,0.191,0.822,0.191,1.277c0,0.457-0.064,0.881-0.191,1.272
		c-0.129,0.392-0.32,0.734-0.576,1.026c-0.256,0.292-0.57,0.52-0.941,0.684c-0.373,0.164-0.807,0.246-1.303,0.246
		c-0.488,0-0.92-0.082-1.296-0.246c-0.376-0.164-0.692-0.392-0.948-0.684c-0.256-0.292-0.447-0.635-0.576-1.026
		c-0.127-0.392-0.191-0.815-0.191-1.272C502.876,381.424,502.94,380.998,503.067,380.601z M504.107,382.881
		c0.1,0.293,0.237,0.537,0.414,0.732c0.176,0.196,0.381,0.346,0.617,0.45c0.236,0.104,0.486,0.156,0.75,0.156
		c0.264,0,0.514-0.052,0.75-0.156c0.236-0.104,0.441-0.254,0.618-0.45c0.176-0.195,0.314-0.439,0.414-0.732
		c0.101-0.291,0.149-0.625,0.149-1.002c0-0.375-0.049-0.709-0.149-1.002c-0.101-0.291-0.238-0.537-0.414-0.737
		c-0.177-0.2-0.382-0.353-0.618-0.456c-0.236-0.103-0.486-0.156-0.75-0.156c-0.264,0-0.514,0.053-0.75,0.156
		c-0.236,0.104-0.441,0.256-0.617,0.456c-0.177,0.2-0.315,0.446-0.414,0.737c-0.101,0.293-0.15,0.627-0.15,1.002
		C503.956,382.256,504.006,382.59,504.107,382.881z"/>
	<path fill="#0069B4" d="M511.025,378.771v1.309h0.023c0.248-0.504,0.553-0.877,0.912-1.117c0.359-0.239,0.816-0.352,1.368-0.336
		v1.08c-0.408,0-0.756,0.057-1.044,0.168c-0.288,0.113-0.52,0.276-0.696,0.492c-0.176,0.217-0.304,0.479-0.384,0.787
		c-0.08,0.307-0.12,0.661-0.12,1.061v2.76h-1.02v-6.204H511.025z"/>
	<path fill="#0069B4" d="M519.915,384.975v-6.097h-2.207v-0.815c0.287,0,0.567-0.022,0.84-0.065
		c0.271-0.045,0.518-0.127,0.738-0.246c0.219-0.121,0.405-0.284,0.558-0.492c0.151-0.208,0.256-0.473,0.311-0.792h0.78v8.508
		H519.915z"/>
	<path fill="#0069B4" d="M523.996,378.279c0.112-0.367,0.286-0.685,0.523-0.953c0.235-0.269,0.529-0.479,0.881-0.631
		c0.353-0.151,0.752-0.228,1.201-0.228c0.367,0,0.713,0.054,1.037,0.161c0.324,0.109,0.607,0.265,0.846,0.469
		c0.24,0.204,0.431,0.458,0.57,0.762c0.141,0.305,0.211,0.656,0.211,1.057c0,0.375-0.059,0.707-0.175,0.996
		c-0.116,0.287-0.271,0.545-0.462,0.773c-0.191,0.228-0.412,0.434-0.66,0.618c-0.248,0.185-0.504,0.36-0.768,0.528
		c-0.264,0.16-0.528,0.317-0.793,0.474c-0.264,0.155-0.506,0.322-0.725,0.498c-0.221,0.176-0.408,0.366-0.564,0.569
		c-0.156,0.205-0.258,0.439-0.307,0.703h4.369v0.899h-5.557c0.04-0.504,0.13-0.935,0.27-1.29c0.141-0.355,0.318-0.666,0.534-0.93
		s0.46-0.496,0.732-0.696c0.271-0.2,0.556-0.388,0.852-0.564c0.36-0.225,0.677-0.431,0.948-0.619
		c0.271-0.188,0.498-0.377,0.678-0.569c0.18-0.192,0.316-0.399,0.408-0.624c0.092-0.225,0.139-0.484,0.139-0.779
		c0-0.232-0.045-0.443-0.133-0.631s-0.206-0.35-0.354-0.486c-0.148-0.135-0.322-0.24-0.523-0.312
		c-0.2-0.071-0.412-0.108-0.636-0.108c-0.297,0-0.551,0.063-0.762,0.187c-0.213,0.124-0.387,0.286-0.522,0.485
		c-0.136,0.201-0.233,0.427-0.294,0.679c-0.061,0.252-0.086,0.506-0.078,0.762h-1.019
		C523.84,379.047,523.884,378.647,523.996,378.279z"/>
	<path fill="#0069B4" d="M530.536,379.828c0.016-0.336,0.056-0.664,0.119-0.984c0.065-0.32,0.156-0.624,0.276-0.912
		s0.284-0.54,0.492-0.756c0.208-0.217,0.47-0.389,0.786-0.516c0.316-0.129,0.693-0.192,1.134-0.192c0.44,0,0.817,0.064,1.134,0.192
		c0.316,0.127,0.578,0.299,0.786,0.516c0.208,0.216,0.372,0.468,0.492,0.756c0.12,0.288,0.212,0.592,0.276,0.912
		c0.063,0.32,0.104,0.648,0.119,0.984c0.017,0.336,0.024,0.66,0.024,0.972c0,0.312-0.008,0.636-0.024,0.972
		c-0.016,0.336-0.056,0.664-0.119,0.984c-0.064,0.32-0.156,0.622-0.276,0.906c-0.12,0.283-0.284,0.533-0.492,0.75
		c-0.208,0.215-0.468,0.386-0.78,0.51c-0.312,0.123-0.691,0.186-1.14,0.186c-0.44,0-0.817-0.063-1.134-0.186
		c-0.316-0.124-0.578-0.295-0.786-0.51c-0.208-0.217-0.372-0.467-0.492-0.75c-0.12-0.284-0.212-0.586-0.276-0.906
		c-0.063-0.32-0.103-0.648-0.119-0.984c-0.017-0.336-0.024-0.66-0.024-0.972C530.512,380.488,530.52,380.164,530.536,379.828z
		 M531.622,381.861c0.02,0.396,0.084,0.768,0.191,1.116c0.108,0.349,0.282,0.642,0.523,0.882c0.239,0.24,0.575,0.36,1.008,0.36
		s0.768-0.12,1.009-0.36c0.239-0.24,0.413-0.533,0.521-0.882c0.107-0.349,0.172-0.72,0.191-1.116c0.02-0.396,0.03-0.754,0.03-1.074
		c0-0.207-0.002-0.438-0.006-0.689c-0.005-0.252-0.024-0.504-0.06-0.756c-0.037-0.252-0.088-0.498-0.156-0.738
		c-0.068-0.24-0.168-0.449-0.301-0.63c-0.131-0.181-0.297-0.325-0.498-0.439c-0.199-0.111-0.443-0.168-0.731-0.168
		s-0.532,0.057-0.732,0.168c-0.201,0.113-0.367,0.258-0.498,0.439c-0.133,0.181-0.232,0.39-0.301,0.63
		c-0.068,0.24-0.119,0.486-0.156,0.738c-0.035,0.252-0.056,0.504-0.06,0.756c-0.004,0.252-0.006,0.482-0.006,0.689
		C531.592,381.107,531.602,381.466,531.622,381.861z"/>
	<path fill="#0069B4" d="M538.504,378.771v0.84h0.024c0.168-0.344,0.432-0.594,0.791-0.75c0.36-0.156,0.756-0.234,1.188-0.234
		c0.479,0,0.897,0.089,1.254,0.265c0.356,0.177,0.651,0.414,0.888,0.714c0.236,0.301,0.414,0.647,0.534,1.038
		c0.12,0.392,0.181,0.808,0.181,1.248c0,0.44-0.059,0.857-0.175,1.248s-0.292,0.733-0.528,1.026
		c-0.235,0.291-0.531,0.521-0.887,0.689c-0.357,0.168-0.771,0.252-1.242,0.252c-0.152,0-0.322-0.016-0.511-0.048
		c-0.188-0.032-0.374-0.084-0.558-0.155c-0.184-0.072-0.358-0.17-0.522-0.295c-0.164-0.123-0.303-0.277-0.414-0.462h-0.024v3.192
		h-1.021v-8.568H538.504z M542.17,380.973c-0.076-0.276-0.192-0.522-0.349-0.738c-0.156-0.216-0.355-0.388-0.6-0.516
		c-0.244-0.128-0.53-0.192-0.857-0.192c-0.345,0-0.637,0.068-0.877,0.204c-0.24,0.136-0.435,0.314-0.588,0.534
		c-0.152,0.221-0.262,0.471-0.33,0.75c-0.068,0.28-0.102,0.564-0.102,0.852c0,0.305,0.036,0.599,0.107,0.883
		c0.072,0.283,0.187,0.533,0.342,0.75c0.156,0.216,0.358,0.39,0.607,0.522c0.247,0.133,0.547,0.198,0.899,0.198
		c0.352,0,0.646-0.067,0.882-0.204c0.236-0.136,0.426-0.316,0.57-0.54c0.144-0.224,0.248-0.479,0.312-0.768
		c0.063-0.287,0.097-0.584,0.097-0.887C542.284,381.531,542.245,381.25,542.17,380.973z"/>
	<path fill="#0069B4" d="M544.071,378.771h1.309l1.487,2.172l1.548-2.172h1.225l-2.137,2.855l2.4,3.349h-1.309l-1.728-2.567
		l-1.727,2.567h-1.236l2.328-3.265L544.071,378.771z"/>
	<path fill="#0069B4" d="M559.972,381.531v0.816h-2.616v2.628h-0.815v-2.628h-2.616v-0.816h2.616v-2.627h0.815v2.627H559.972z"/>
</g>
</svg>
