<svg xmlns="http://www.w3.org/2000/svg" width="120.775" height="117.793" viewBox="0 0 120.775 117.793"><path d="M180.78 158.672H711.75v275.986H180.78z"/><path fill-rule="evenodd" clip-rule="evenodd" fill="#231E1B" d="M333.387-9.887c-8.995 0-16.29 7.293-16.29 16.29 0 7.197 4.668 13.303 11.142 15.457.813.15 1.11-.354 1.11-.785 0-.387-.013-1.41-.02-2.77-4.532.983-5.488-2.185-5.488-2.185-.74-1.882-1.81-2.383-1.81-2.383-1.478-1.01.113-.99.113-.99 1.635.115 2.495 1.68 2.495 1.68 1.453 2.488 3.813 1.77 4.74 1.352.15-1.054.57-1.77 1.035-2.18-3.617-.41-7.42-1.808-7.42-8.05 0-1.778.635-3.232 1.677-4.37-.168-.413-.727-2.07.16-4.312 0 0 1.368-.438 4.48 1.67 1.298-.36 2.692-.542 4.077-.548 1.382.006 2.776.187 4.077.548 3.11-2.108 4.475-1.67 4.475-1.67.89 2.243.33 3.9.162 4.31 1.044 1.14 1.674 2.594 1.674 4.372 0 6.258-3.81 7.635-7.438 8.038.585.503 1.106 1.497 1.106 3.017 0 2.178-.02 3.935-.02 4.47 0 .435.293.94 1.12.782 6.467-2.158 11.13-8.26 11.13-15.454.002-8.997-7.292-16.29-16.29-16.29z"/><g fill="#231E1B"><path fill-rule="evenodd" clip-rule="evenodd" d="M531.388-58.897C498.04-58.897 471-31.862 471 1.49c0 26.682 17.303 49.317 41.297 57.303 3.018.56 4.126-1.31 4.126-2.905 0-1.44-.056-6.197-.082-11.243-16.8 3.653-20.344-7.125-20.344-7.125-2.747-6.98-6.705-8.836-6.705-8.836-5.48-3.748.414-3.67.414-3.67 6.064.425 9.257 6.223 9.257 6.223 5.387 9.23 14.128 6.563 17.574 5.02.542-3.902 2.107-6.567 3.834-8.075-13.413-1.526-27.514-6.705-27.514-29.844 0-6.593 2.36-11.98 6.223-16.21-.627-1.52-2.694-7.662.585-15.98 0 0 5.07-1.623 16.61 6.19 4.817-1.338 9.983-2.01 15.115-2.033 5.132.024 10.302.694 15.128 2.033 11.526-7.813 16.59-6.19 16.59-6.19 3.287 8.317 1.22 14.46.593 15.98 3.872 4.23 6.215 9.617 6.215 16.21 0 23.194-14.127 28.3-27.574 29.796 2.165 1.874 4.095 5.55 4.095 11.183 0 8.08-.07 14.583-.07 16.572 0 1.606 1.088 3.49 4.148 2.897 23.982-7.994 41.263-30.622 41.263-57.294 0-33.355-27.038-60.39-60.388-60.39z"/><path d="M493.872 27.806c-.133.3-.605.39-1.035.184-.44-.197-.684-.606-.542-.907.13-.31.602-.395 1.04-.19.438.2.688.613.537.913zm-.743-.55M496.318 30.535c-.288.267-.852.143-1.233-.28-.395-.42-.47-.983-.177-1.254.297-.266.843-.14 1.238.28.396.426.473.984.172 1.255zm-.576-.618M498.7 34.012c-.37.258-.977.017-1.35-.52-.37-.537-.37-1.182.008-1.44.374-.257.97-.024 1.35.508.37.545.37 1.19-.01 1.452zm0 0M501.96 37.373c-.33.365-1.035.267-1.55-.23-.53-.487-.676-1.18-.345-1.544.336-.366 1.045-.264 1.564.23.524.486.684 1.18.33 1.543zm0 0M506.46 39.324c-.145.473-.824.688-1.508.486-.684-.207-1.13-.76-.992-1.238.142-.477.824-.7 1.513-.485.682.206 1.13.756.988 1.237zm0 0M511.403 39.685c.017.498-.564.91-1.28.92-.723.017-1.308-.387-1.315-.877 0-.503.567-.91 1.29-.924.717-.013 1.305.387 1.305.88zm0 0M516.002 38.903c.086.485-.413.984-1.126 1.117-.7.13-1.35-.172-1.44-.653-.086-.498.422-.997 1.122-1.126.713-.123 1.353.17 1.444.663zm0 0"/></g><g fill="none" stroke="#147EBC" stroke-linecap="round" stroke-miterlimit="10"><path d="M405.677-64.83v.5"/><path stroke-dasharray="0.9999,1.9999" d="M405.677-62.33V71.663"/><path d="M405.677 72.663v.5"/></g><g fill="#0069B4"><path d="M314.055 87.178c-.38-.276-.866-.414-1.458-.414-.24 0-.476.024-.708.07-.233.05-.44.13-.62.24-.18.114-.323.264-.43.452-.11.188-.163.422-.163.7 0 .265.078.48.234.644.157.164.365.298.625.4.26.105.554.19.882.26.328.067.662.142 1.002.22.34.08.673.176 1 .284.33.107.623.254.883.438s.468.416.624.695c.156.28.234.633.234 1.057 0 .456-.1.846-.305 1.17-.204.324-.466.588-.786.792-.32.204-.68.353-1.075.444-.396.092-.79.138-1.182.138-.48 0-.934-.06-1.362-.18-.427-.12-.803-.302-1.127-.546-.324-.244-.58-.557-.768-.937-.188-.38-.282-.83-.282-1.35h1.08c0 .36.07.67.21.93.14.26.324.474.552.642.228.168.494.293.798.373.304.08.616.12.936.12.255 0 .513-.024.773-.073.26-.047.494-.13.702-.246.208-.114.376-.272.504-.472.127-.2.19-.457.19-.77 0-.295-.077-.535-.233-.72-.156-.183-.364-.333-.624-.45-.26-.115-.554-.21-.882-.28l-1-.224c-.34-.075-.675-.163-1.003-.264-.328-.1-.623-.232-.882-.396-.26-.164-.468-.376-.624-.636-.155-.26-.233-.586-.233-.98 0-.43.088-.805.264-1.12.177-.316.41-.576.703-.78.292-.204.624-.356.996-.456.37-.1.753-.15 1.145-.15.44 0 .848.053 1.224.156.375.104.705.268.99.492.283.224.507.506.67.846.165.34.255.746.27 1.218h-1.08c-.064-.614-.285-1.06-.665-1.336zM318.333 88.373v.912h.024c.464-.705 1.132-1.057 2.004-1.057.385 0 .733.08 1.045.24.312.16.532.432.66.816.208-.336.482-.596.822-.78.34-.185.714-.276 1.12-.276.313 0 .595.034.847.102.252.068.468.175.648.318.18.145.32.33.42.56.1.227.15.5.15.82v4.548h-1.02V90.51c0-.193-.017-.373-.048-.54-.032-.17-.092-.315-.18-.44-.088-.124-.21-.222-.366-.294-.156-.072-.358-.108-.606-.108-.504 0-.9.144-1.188.432-.288.288-.432.672-.432 1.152v3.863h-1.02v-4.067c0-.2-.018-.384-.054-.552-.036-.168-.098-.314-.186-.438s-.206-.22-.354-.288c-.148-.068-.338-.102-.57-.102-.296 0-.55.06-.762.18-.212.12-.384.264-.516.432-.132.168-.228.342-.288.522-.06.18-.09.33-.09.45v3.863h-1.02v-6.203h.96zM332.373 94.71c-.264 0-.474-.075-.63-.224-.156-.148-.234-.39-.234-.726-.28.336-.607.578-.98.726-.37.148-.773.223-1.205.223-.28 0-.544-.03-.792-.09-.248-.062-.466-.16-.654-.302-.19-.14-.337-.32-.445-.54-.108-.22-.162-.485-.162-.798 0-.352.06-.64.18-.863.12-.225.278-.406.474-.547.196-.14.42-.246.672-.318.25-.07.51-.13.773-.18.28-.056.546-.098.798-.125.253-.028.475-.068.667-.12.192-.052.344-.128.456-.23.112-.1.168-.245.168-.437 0-.223-.04-.403-.125-.54-.084-.136-.192-.24-.324-.312-.13-.072-.28-.12-.443-.145-.164-.023-.326-.035-.486-.035-.43 0-.79.082-1.08.246-.287.164-.443.474-.467.93h-1.02c.016-.384.096-.708.24-.973.144-.263.336-.477.576-.64.24-.164.515-.283.827-.355.312-.07.64-.107.984-.107.28 0 .56.02.835.06.276.04.526.122.75.247.224.123.404.298.54.52.136.226.204.517.204.877v3.192c0 .24.013.416.04.527.03.113.123.17.283.17.088 0 .192-.02.312-.06v.792c-.177.104-.42.157-.732.157zm-1.43-3.128c-.207.045-.425.08-.653.108-.228.028-.458.06-.69.097-.232.035-.44.094-.624.174-.185.08-.335.194-.45.343-.116.148-.174.35-.174.605 0 .168.034.31.102.426.068.117.156.21.264.283.108.07.236.123.384.155.148.032.298.048.45.048.336 0 .624-.045.864-.138.24-.092.436-.208.588-.35.152-.138.264-.29.336-.454.072-.164.108-.318.108-.463v-1.043c-.128.097-.296.167-.504.21zM335.132 86.01v8.566h-1.02V86.01h1.02zM337.796 86.01v8.566h-1.02V86.01h1.02zM282.633 103.672v-.9h1.044v-.923c0-.505.146-.887.438-1.147.292-.26.718-.39 1.278-.39.096 0 .206.007.33.022.124.017.234.04.33.072v.89c-.088-.033-.184-.056-.288-.067-.104-.012-.2-.018-.288-.018-.248 0-.44.048-.576.144-.135.097-.203.28-.203.552v.864h1.2v.9h-1.2v5.304h-1.02v-5.305h-1.044zM286.665 104.602c.128-.396.32-.74.576-1.032.257-.29.573-.52.95-.69.375-.167.807-.25 1.295-.25.496 0 .93.083 1.302.25.372.17.685.4.942.69.255.293.447.637.575 1.032.128.396.192.822.192 1.278 0 .455-.064.88-.192 1.272-.128.393-.32.734-.576 1.026-.257.292-.57.52-.943.685-.372.163-.806.245-1.302.245-.488 0-.92-.082-1.296-.245-.377-.164-.693-.393-.95-.685-.255-.292-.447-.634-.575-1.026-.128-.392-.192-.816-.192-1.272 0-.455.064-.882.192-1.278zm1.038 2.28c.1.293.238.536.414.734.176.195.382.346.618.45.236.103.486.155.75.155s.514-.052.75-.155c.236-.104.442-.254.618-.45s.314-.44.414-.732c.1-.292.15-.626.15-1.002s-.05-.71-.15-1c-.1-.294-.238-.54-.414-.74-.176-.198-.382-.35-.618-.455-.236-.104-.486-.156-.75-.156s-.514.05-.75.155c-.236.104-.442.257-.618.456-.176.2-.314.446-.414.74-.1.29-.15.624-.15 1 0 .377.05.71.15 1.003zM294.62 102.772v1.308h.025c.248-.504.552-.875.912-1.115s.816-.352 1.368-.336v1.08c-.408 0-.756.055-1.044.167-.287.11-.52.275-.695.492-.176.214-.304.477-.384.784-.08.31-.12.662-.12 1.063v2.76h-1.02v-6.204h.96zM303.512 108.976v-6.096h-2.208v-.816c.288 0 .568-.02.84-.066.272-.043.518-.125.738-.246.22-.12.406-.283.558-.49.152-.21.256-.473.312-.793h.78v8.507h-1.02zM311.457 101.717c-.248-.232-.576-.348-.984-.348-.432 0-.78.104-1.044.316-.265.212-.47.48-.62.804-.147.324-.25.674-.305 1.05-.056.376-.088.73-.096 1.057l.023.024c.24-.392.538-.675.894-.852.356-.176.766-.265 1.23-.265.408 0 .774.07 1.098.21.324.14.596.335.816.583.22.248.39.54.51.875.12.338.18.702.18 1.094 0 .312-.047.636-.143.972-.096.336-.254.642-.474.918-.22.276-.512.504-.876.684-.364.18-.814.27-1.35.27-.632 0-1.14-.127-1.524-.383-.384-.256-.68-.584-.888-.984-.21-.4-.346-.84-.414-1.32-.067-.478-.1-.942-.1-1.39 0-.584.05-1.15.15-1.7.1-.546.27-1.032.51-1.456.24-.424.56-.764.96-1.02.4-.257.903-.385 1.51-.385.705 0 1.265.185 1.68.557.417.372.657.91.72 1.614h-1.02c-.047-.384-.195-.69-.443-.923zm-1.85 2.837c-.215.1-.4.236-.55.408-.153.172-.267.376-.343.61-.076.237-.114.487-.114.75 0 .265.04.513.12.745.08.232.194.432.342.6.148.168.332.303.552.402.22.1.47.15.75.15s.526-.05.738-.15c.212-.1.39-.24.534-.415.144-.176.254-.378.33-.605.076-.23.114-.467.114-.715 0-.264-.034-.514-.102-.75-.068-.235-.174-.44-.318-.61-.144-.173-.324-.312-.54-.415-.216-.104-.468-.156-.756-.156-.287 0-.54.05-.756.15zM315.43 102.772v.84h.023c.168-.344.432-.594.792-.75.36-.155.756-.233 1.188-.233.48 0 .898.087 1.254.263.356.176.652.414.888.714s.414.646.534 1.038c.12.393.18.81.18 1.248 0 .44-.06.855-.175 1.248-.116.394-.292.735-.528 1.026-.236.293-.532.522-.888.69-.358.168-.772.252-1.243.252-.152 0-.322-.017-.51-.048-.188-.032-.374-.084-.558-.156-.185-.072-.36-.17-.523-.294-.164-.124-.302-.278-.414-.462h-.024v3.19h-1.02v-8.566h1.02zm3.665 2.202c-.076-.275-.192-.52-.348-.738-.156-.216-.356-.388-.6-.516s-.53-.192-.858-.192c-.345 0-.637.068-.877.204-.24.137-.436.314-.588.534-.152.22-.262.47-.33.75s-.102.563-.102.853c0 .303.036.597.108.88.073.285.187.535.343.75.156.217.358.39.607.522.247.132.548.198.9.198s.646-.068.882-.204c.236-.136.426-.315.57-.54.144-.224.248-.48.312-.768.064-.29.096-.584.096-.89-.002-.285-.04-.568-.115-.844zM320.996 102.772h1.308l1.488 2.172 1.548-2.172h1.224l-2.136 2.856 2.4 3.348h-1.308l-1.728-2.568-1.727 2.568h-1.236l2.327-3.264-2.16-2.94zM331.004 105.16v.96h-3.468v-.96h3.468zM334.856 108.976v-6.096h-2.208v-.816c.288 0 .568-.02.84-.066.272-.043.518-.125.738-.246.22-.12.406-.283.558-.49.152-.21.256-.473.312-.793h.78v8.507h-1.02zM338.936 102.28c.112-.368.286-.686.522-.954.236-.268.53-.478.882-.63.352-.15.752-.228 1.2-.228.368 0 .714.054 1.038.162.324.107.606.264.846.468.24.204.43.458.57.762.14.304.21.656.21 1.056 0 .377-.058.71-.174.996-.116.29-.27.547-.462.774-.192.228-.412.435-.66.618-.248.184-.504.36-.768.527-.264.16-.528.32-.792.476-.264.156-.506.322-.726.498-.22.176-.408.365-.564.57-.156.203-.258.438-.306.7h4.368v.9h-5.556c.04-.503.13-.933.27-1.29.14-.355.318-.665.534-.93.216-.264.46-.495.732-.695.272-.2.556-.39.852-.565.36-.224.676-.43.948-.617.272-.188.498-.38.678-.57.18-.19.316-.4.408-.624s.138-.483.138-.78c0-.23-.045-.44-.132-.63-.088-.188-.206-.35-.354-.485-.148-.138-.322-.24-.522-.314-.2-.072-.412-.107-.636-.107-.296 0-.55.06-.762.185s-.386.286-.522.486-.234.427-.294.68c-.06.25-.086.505-.078.76h-1.02c-.024-.43.02-.832.132-1.2zM345.476 103.828c.016-.336.056-.664.12-.983.064-.32.156-.624.276-.912.12-.288.284-.54.492-.756.208-.216.47-.388.786-.517.316-.127.694-.19 1.134-.19.44 0 .818.063 1.134.19.316.13.578.3.786.517.208.216.372.468.492.756s.212.593.276.912c.064.32.104.647.12.983.016.336.024.66.024.973s-.008.637-.024.973c-.016.336-.056.664-.12.983-.064.32-.156.623-.276.906-.12.285-.284.535-.492.75-.208.217-.468.387-.78.51-.312.125-.692.187-1.14.187-.44 0-.818-.063-1.134-.188-.316-.123-.578-.293-.786-.51-.208-.215-.372-.465-.492-.75-.12-.283-.212-.586-.276-.906-.064-.32-.104-.647-.12-.983s-.024-.66-.024-.972.008-.636.024-.972zm1.086 2.035c.02.396.084.768.192 1.115.108.348.282.643.522.882.24.24.576.36 1.008.36.432 0 .768-.12 1.008-.36s.414-.534.522-.882c.108-.348.172-.72.192-1.115.02-.396.03-.755.03-1.074 0-.21-.002-.44-.006-.69-.004-.253-.024-.505-.06-.757-.036-.253-.088-.498-.156-.738s-.168-.45-.3-.63c-.132-.18-.298-.326-.498-.438-.2-.112-.444-.168-.732-.168s-.532.055-.732.167c-.2.11-.366.258-.498.438s-.232.39-.3.63c-.068.24-.12.485-.156.738-.036.252-.056.504-.06.756-.004.25-.006.48-.006.69 0 .318.01.677.03 1.073zM353.444 102.772v.84h.024c.168-.344.432-.594.792-.75.36-.155.756-.233 1.188-.233.48 0 .898.087 1.254.263.356.176.652.414.888.714s.414.646.534 1.038c.12.393.18.81.18 1.248 0 .44-.058.855-.174 1.248-.116.394-.292.735-.528 1.026-.236.293-.532.522-.888.69-.356.168-.77.252-1.242.252-.152 0-.322-.017-.51-.048-.188-.032-.374-.084-.558-.156-.184-.072-.358-.17-.522-.294-.164-.124-.302-.278-.414-.462h-.024v3.19h-1.02v-8.566h1.02zm3.666 2.202c-.076-.275-.192-.52-.348-.738-.156-.216-.356-.388-.6-.516s-.53-.192-.858-.192c-.344 0-.636.068-.876.204-.24.137-.436.314-.588.534-.152.22-.262.47-.33.75s-.102.563-.102.853c0 .303.036.597.108.88.072.285.186.535.342.75.156.217.358.39.606.522s.548.198.9.198.646-.068.882-.204c.236-.136.426-.315.57-.54.144-.224.248-.48.312-.768.064-.29.096-.584.096-.89 0-.285-.038-.568-.114-.844zM359.012 102.772h1.308l1.488 2.172 1.548-2.172h1.224l-2.136 2.856 2.4 3.348h-1.308l-1.728-2.568-1.728 2.568h-1.236l2.328-3.264-2.16-2.94z"/></g><g fill="#0069B4"><path d="M516.412 86.008v7.608h4.536v.96h-5.676V86.01h1.14zM526.54 94.707c-.264 0-.475-.073-.63-.22-.156-.15-.234-.392-.234-.728-.28.335-.606.577-.977.726-.374.147-.775.22-1.208.22-.28 0-.543-.028-.79-.09-.25-.06-.468-.16-.655-.298-.188-.14-.336-.32-.443-.54-.11-.22-.162-.487-.162-.8 0-.35.06-.64.18-.863.12-.224.277-.405.474-.545.196-.14.42-.246.672-.318.252-.072.51-.133.774-.18.28-.057.546-.1.798-.127.252-.027.474-.067.666-.12.192-.052.344-.128.456-.228.11-.1.168-.246.168-.438 0-.226-.042-.405-.126-.542-.084-.135-.192-.24-.324-.312-.132-.07-.28-.12-.444-.144-.164-.024-.326-.037-.485-.037-.432 0-.79.083-1.08.246-.287.165-.443.476-.467.932h-1.02c.016-.384.096-.708.24-.972.142-.264.335-.48.574-.643.24-.164.517-.28.828-.354.313-.072.64-.108.984-.108.28 0 .558.02.833.06.276.04.526.123.75.246.225.126.404.3.54.523.136.224.204.517.204.876v3.19c0 .24.014.416.042.53.027.11.12.167.28.167.09 0 .192-.02.314-.06v.792c-.178.106-.42.157-.734.157zm-1.428-3.125c-.21.044-.426.08-.654.107-.23.027-.46.06-.69.095-.23.037-.44.095-.624.174-.184.08-.334.194-.45.342-.116.147-.173.35-.173.606 0 .168.034.31.103.426.067.115.156.21.264.28.107.073.236.126.385.157.147.033.297.05.45.05.335 0 .623-.047.863-.14.24-.09.436-.207.588-.347.15-.14.265-.293.336-.457.07-.163.107-.317.107-.46V91.37c-.13.098-.298.167-.505.212zM529.144 88.37v1.31h.023c.248-.504.553-.876.912-1.116.36-.24.815-.352 1.368-.336v1.08c-.408 0-.756.056-1.045.168-.287.112-.52.276-.695.492-.176.216-.305.477-.385.786-.08.308-.12.662-.12 1.063v2.76h-1.02v-6.205h.96zM536.536 96.328c-.465.504-1.192.756-2.184.756-.29 0-.582-.032-.883-.096-.3-.064-.573-.168-.817-.313s-.445-.332-.605-.564c-.16-.232-.248-.515-.264-.85h1.02c.008.183.066.34.174.467.108.128.24.23.396.312.156.08.326.138.51.174.184.036.36.054.527.054.338 0 .622-.06.853-.174.232-.116.425-.275.576-.48.15-.203.26-.45.33-.738.066-.287.102-.604.102-.947v-.41h-.024c-.177.386-.442.667-.798.847-.356.18-.734.27-1.135.27-.464 0-.867-.083-1.21-.25-.346-.17-.634-.395-.866-.68-.232-.283-.407-.615-.522-.996-.116-.378-.174-.78-.174-1.204 0-.368.048-.746.144-1.135.096-.386.256-.738.48-1.055.223-.315.52-.575.887-.78.368-.203.82-.306 1.355-.306.393 0 .752.086 1.08.258.328.172.584.43.77.773h.012v-.888h.96v5.677c0 1.013-.233 1.774-.696 2.278zm-1.303-2.79c.236-.14.426-.324.57-.552.144-.23.25-.486.318-.775.068-.287.103-.575.103-.863 0-.27-.03-.54-.096-.805-.065-.264-.166-.502-.307-.713-.14-.214-.322-.384-.545-.51-.225-.13-.496-.194-.816-.194-.33 0-.61.063-.84.187-.233.124-.423.29-.57.498-.15.21-.257.45-.325.72-.068.273-.102.558-.102.854 0 .28.027.56.084.84.056.28.152.534.287.763.137.227.316.412.54.55.225.142.505.212.84.212.338-.002.623-.072.86-.213zM543.16 94.18c-.465.35-1.05.526-1.753.526-.496 0-.926-.08-1.29-.24-.364-.16-.67-.383-.917-.67-.248-.29-.435-.633-.56-1.033-.123-.4-.193-.836-.21-1.31 0-.47.072-.902.217-1.294.144-.394.346-.733.605-1.022.26-.288.568-.512.925-.672.355-.16.745-.24 1.17-.24.552 0 1.01.114 1.374.343.364.227.657.517.877.868.22.353.372.736.456 1.152.084.416.117.813.1 1.188h-4.642c-.008.272.025.53.097.774.072.244.188.46.35.647.158.187.362.337.61.45.248.11.54.168.876.168.433 0 .786-.1 1.06-.3.278-.2.46-.505.548-.913h1.01c-.137.698-.436 1.223-.9 1.574zm-.247-3.985c-.092-.216-.215-.402-.37-.558-.157-.156-.342-.28-.554-.372-.213-.092-.446-.14-.702-.14-.265 0-.503.048-.715.14s-.394.22-.546.378c-.15.16-.273.347-.36.558-.088.214-.14.44-.155.68h3.563c-.015-.24-.07-.468-.162-.685zM546.136 88.37v1.31h.023c.247-.504.552-.876.91-1.116.36-.24.817-.352 1.37-.336v1.08c-.41 0-.757.056-1.045.168-.288.112-.52.276-.696.492-.177.216-.305.477-.385.786-.08.308-.12.662-.12 1.063v2.76h-1.02v-6.205h.96zM499.036 103.672v-.9h1.044v-.924c0-.504.145-.887.438-1.146.29-.26.717-.39 1.277-.39.096 0 .206.01.33.024.124.016.234.04.33.072v.887c-.088-.03-.184-.053-.288-.065-.104-.012-.2-.02-.288-.02-.25 0-.44.05-.577.146-.136.096-.203.28-.203.553v.862h1.2v.9h-1.2v5.304h-1.02v-5.304h-1.044zM503.067 104.6c.13-.395.32-.74.576-1.03.256-.293.572-.523.948-.69.377-.17.81-.253 1.297-.253.496 0 .93.084 1.303.252.37.167.686.398.94.69.257.29.448.635.577 1.03.128.397.19.823.19 1.278 0 .457-.063.88-.19 1.272-.13.392-.32.734-.576 1.026-.255.292-.57.52-.94.684-.373.164-.807.246-1.303.246-.488 0-.92-.082-1.296-.246-.375-.164-.69-.392-.947-.684-.256-.292-.447-.635-.576-1.026-.127-.392-.19-.815-.19-1.272 0-.454.063-.88.19-1.277zm1.04 2.28c.1.294.237.538.414.733.177.196.382.346.618.45.236.104.486.156.75.156s.514-.053.75-.157c.236-.104.44-.254.618-.45.176-.195.314-.44.414-.732.1-.29.15-.624.15-1s-.05-.71-.15-1.003c-.1-.29-.238-.537-.414-.737-.177-.2-.382-.353-.618-.456-.236-.104-.486-.156-.75-.156s-.514.053-.75.156c-.236.104-.44.256-.617.456-.176.2-.314.446-.413.737-.1.293-.15.627-.15 1.002 0 .376.05.71.15 1zM511.025 102.77v1.31h.023c.248-.504.553-.877.912-1.117.36-.24.816-.35 1.368-.336v1.08c-.408 0-.756.057-1.044.168-.288.113-.52.276-.696.492-.176.217-.304.48-.384.787-.08.307-.12.66-.12 1.06v2.76h-1.02v-6.203h.96zM519.915 108.975v-6.097h-2.207v-.815c.287 0 .567-.022.84-.065.27-.045.518-.127.738-.246.22-.12.405-.284.558-.492.15-.208.256-.473.31-.792h.78v8.508h-1.02zM523.996 102.28c.112-.368.286-.687.523-.954.234-.27.528-.48.88-.63.353-.152.752-.228 1.2-.228.368 0 .714.054 1.038.16.324.11.607.266.846.47.24.204.43.458.57.762.14.305.21.656.21 1.057 0 .375-.058.707-.174.996-.116.287-.27.545-.462.773s-.412.434-.66.618c-.248.185-.504.36-.768.528-.264.16-.528.317-.793.474-.264.155-.506.322-.725.498-.22.176-.408.366-.564.57-.156.204-.258.437-.307.702h4.37v.9h-5.557c.04-.505.13-.936.27-1.29.14-.356.318-.667.534-.93.216-.265.46-.497.732-.697.27-.2.555-.39.85-.564.36-.225.678-.43.95-.62.27-.187.497-.376.677-.568.18-.192.316-.4.408-.624s.14-.484.14-.78c0-.23-.046-.442-.134-.63s-.205-.35-.353-.486c-.148-.135-.322-.24-.523-.312s-.412-.108-.636-.108c-.297 0-.55.063-.762.187-.213.124-.387.286-.522.485-.136.2-.233.427-.294.68-.06.25-.086.505-.078.76h-1.02c-.022-.433.022-.833.134-1.2zM530.536 103.828c.016-.336.056-.664.12-.984.064-.32.155-.624.275-.912s.285-.54.493-.756c.208-.217.47-.39.786-.516.315-.13.692-.192 1.133-.192.44 0 .817.063 1.134.192.316.127.578.3.786.516.208.216.372.468.492.756s.212.592.276.912c.064.32.105.648.12.984.017.336.024.66.024.972 0 .312-.008.636-.024.972-.016.336-.056.664-.12.984-.063.32-.155.622-.275.906-.12.283-.284.533-.492.75-.208.215-.468.386-.78.51-.312.123-.69.186-1.14.186-.44 0-.817-.063-1.134-.186-.317-.124-.58-.295-.787-.51-.208-.217-.372-.467-.492-.75-.12-.284-.21-.586-.275-.906-.063-.32-.103-.648-.12-.984-.016-.336-.023-.66-.023-.972 0-.312.008-.636.024-.972zm1.086 2.033c.02.397.084.768.19 1.117.11.35.283.642.524.882.24.24.575.36 1.008.36s.768-.12 1.01-.36c.238-.24.412-.534.52-.883.107-.35.172-.72.19-1.116.02-.395.03-.753.03-1.073 0-.207 0-.438-.005-.69-.006-.25-.025-.503-.06-.755-.038-.252-.09-.498-.157-.738-.068-.24-.168-.45-.3-.63-.132-.18-.298-.325-.5-.438-.198-.11-.442-.168-.73-.168s-.532.057-.732.168c-.2.113-.366.258-.497.438-.133.18-.232.39-.3.63-.07.24-.12.486-.157.738-.035.252-.056.504-.06.756-.004.252-.006.482-.006.69.002.32.012.678.032 1.073zM538.504 102.77v.84h.024c.168-.343.432-.593.79-.75.36-.155.757-.233 1.19-.233.478 0 .896.09 1.253.265.357.177.652.414.89.714.235.3.413.646.533 1.038.12.392.18.808.18 1.248 0 .44-.058.856-.174 1.248s-.293.733-.53 1.026c-.234.29-.53.52-.886.69-.357.167-.77.25-1.242.25-.152 0-.322-.015-.51-.047-.19-.033-.375-.085-.56-.156-.183-.072-.357-.17-.52-.295-.165-.124-.304-.278-.415-.463h-.024v3.192h-1.02v-8.57h1.02zm3.666 2.203c-.076-.276-.192-.522-.35-.738-.155-.216-.354-.388-.6-.516-.243-.13-.53-.193-.856-.193-.345 0-.637.068-.877.204-.24.137-.435.314-.588.535-.153.22-.263.47-.33.75-.07.28-.103.564-.103.852 0 .305.036.6.107.883.072.283.187.533.342.75.156.216.358.39.607.52.247.134.547.2.9.2.35 0 .645-.068.88-.205.237-.136.427-.316.57-.54.145-.224.25-.48.313-.77.063-.286.097-.583.097-.886 0-.29-.038-.57-.113-.847zM544.07 102.77h1.31l1.487 2.173 1.548-2.172h1.225l-2.137 2.856 2.4 3.35h-1.31l-1.727-2.568-1.727 2.567h-1.237l2.328-3.265-2.16-2.94zM559.972 105.53v.817h-2.616v2.628h-.815v-2.628h-2.615v-.816h2.616v-2.626h.816v2.627h2.616z"/></g><path fill-rule="evenodd" clip-rule="evenodd" fill="#FFF" d="M333.387 266.113c-8.995 0-16.29 7.293-16.29 16.29 0 7.196 4.668 13.302 11.142 15.456.813.148 1.11-.355 1.11-.786 0-.387-.013-1.41-.02-2.77-4.532.984-5.488-2.184-5.488-2.184-.74-1.882-1.81-2.383-1.81-2.383-1.478-1.01.113-.99.113-.99 1.635.115 2.495 1.68 2.495 1.68 1.453 2.488 3.813 1.77 4.74 1.352.15-1.054.57-1.772 1.035-2.18-3.617-.41-7.42-1.808-7.42-8.05 0-1.778.635-3.232 1.677-4.37-.168-.413-.727-2.07.16-4.312 0 0 1.368-.438 4.48 1.67 1.298-.36 2.692-.542 4.077-.548 1.382.006 2.776.187 4.077.548 3.11-2.108 4.475-1.67 4.475-1.67.89 2.243.33 3.9.162 4.31 1.044 1.14 1.674 2.594 1.674 4.372 0 6.258-3.81 7.635-7.438 8.038.585.503 1.106 1.497 1.106 3.017 0 2.178-.02 3.935-.02 4.47 0 .435.293.94 1.12.782 6.467-2.158 11.13-8.26 11.13-15.454.002-8.997-7.292-16.29-16.29-16.29z"/><g fill="#FFF"><path fill-rule="evenodd" clip-rule="evenodd" d="M60.388 0C27.04 0 0 27.035 0 60.388c0 26.68 17.303 49.316 41.297 57.302 3.018.56 4.126-1.31 4.126-2.905 0-1.44-.056-6.197-.082-11.243-16.8 3.653-20.344-7.125-20.344-7.125-2.747-6.98-6.705-8.836-6.705-8.836-5.478-3.747.414-3.67.414-3.67 6.063.426 9.257 6.224 9.257 6.224 5.387 9.23 14.128 6.563 17.574 5.02.542-3.903 2.106-6.568 3.834-8.076-13.413-1.526-27.514-6.705-27.514-29.844 0-6.593 2.36-11.98 6.223-16.21-.627-1.52-2.694-7.662.585-15.98 0 0 5.07-1.623 16.61 6.19 4.817-1.338 9.983-2.01 15.115-2.033 5.132.025 10.302.695 15.128 2.034 11.526-7.813 16.59-6.19 16.59-6.19 3.287 8.317 1.22 14.46.593 15.98 3.872 4.23 6.215 9.617 6.215 16.21 0 23.194-14.127 28.3-27.574 29.796 2.165 1.874 4.095 5.55 4.095 11.183 0 8.08-.07 14.583-.07 16.572 0 1.607 1.088 3.49 4.148 2.897 23.98-7.994 41.263-30.622 41.263-57.294C120.776 27.035 93.738 0 60.388 0z"/><path d="M22.872 86.703c-.133.3-.605.39-1.035.185-.44-.197-.684-.606-.542-.907.13-.308.602-.394 1.04-.187.438.196.688.61.537.91zm-.743-.55M25.318 89.432c-.288.267-.852.143-1.233-.28-.396-.42-.47-.983-.177-1.254.297-.267.843-.142 1.238.28.396.425.473.983.172 1.254zm-.576-.62M27.7 92.91c-.37.257-.977.016-1.35-.522-.37-.537-.37-1.182.008-1.44.374-.257.97-.024 1.35.508.37.546.37 1.19-.01 1.453zm0 0M30.96 96.27c-.33.365-1.035.267-1.55-.23-.53-.487-.676-1.18-.345-1.544.336-.365 1.045-.263 1.564.23.524.487.683 1.182.33 1.544zm0 0M35.46 98.22c-.145.474-.824.69-1.508.487-.684-.207-1.13-.76-.992-1.238.142-.478.824-.7 1.513-.486.682.205 1.13.755.988 1.237zm0 0M40.403 98.582c.017.498-.564.91-1.28.92-.723.017-1.308-.387-1.315-.877 0-.503.567-.91 1.29-.924.716-.012 1.305.388 1.305.882zm0 0M45.002 97.8c.086.485-.413.984-1.126 1.117-.7.13-1.35-.172-1.44-.653-.086-.498.422-.997 1.122-1.126.713-.124 1.353.168 1.444.662zm0 0"/></g><g fill="none" stroke="#147EBC" stroke-linecap="round" stroke-miterlimit="10"><path d="M405.677 211.17v.5"/><path stroke-dasharray="0.9999,1.9999" d="M405.677 213.67v133.993"/><path d="M405.677 348.663v.5"/></g><g fill="#0069B4"><path d="M314.055 363.178c-.38-.276-.866-.414-1.458-.414-.24 0-.476.024-.708.07-.233.05-.44.13-.62.24-.18.114-.323.264-.43.452-.11.188-.163.422-.163.7 0 .265.078.48.234.644.157.164.365.298.625.4.26.106.554.19.882.26.328.067.662.142 1.002.22.34.08.673.176 1 .284.33.107.623.254.883.438s.468.416.624.695c.156.28.234.633.234 1.057 0 .456-.1.846-.305 1.17-.204.324-.466.588-.786.792-.32.204-.68.352-1.075.444-.396.092-.79.138-1.182.138-.48 0-.934-.06-1.362-.18-.427-.12-.803-.302-1.127-.546-.324-.244-.58-.557-.768-.936-.188-.38-.282-.83-.282-1.35h1.08c0 .36.07.67.21.93.14.26.324.474.552.642.228.168.494.293.798.373.304.08.616.12.936.12.255 0 .513-.023.773-.072.26-.047.494-.13.702-.246.208-.115.376-.273.504-.473.127-.202.19-.458.19-.77 0-.295-.077-.535-.233-.72-.156-.183-.364-.333-.624-.45-.26-.115-.554-.21-.882-.28l-1-.224c-.34-.075-.675-.163-1.003-.264-.328-.1-.623-.232-.882-.396-.26-.164-.468-.376-.624-.636-.155-.26-.233-.586-.233-.98 0-.43.088-.805.264-1.12.177-.316.41-.576.703-.78.292-.204.624-.356.996-.456.37-.1.753-.15 1.145-.15.44 0 .848.053 1.224.156.375.104.705.268.99.492.283.224.507.506.67.846.165.34.255.746.27 1.218h-1.08c-.064-.616-.285-1.06-.665-1.338zM318.333 364.373v.912h.024c.464-.705 1.132-1.057 2.004-1.057.385 0 .733.08 1.045.24.312.16.532.432.66.816.208-.336.482-.596.822-.78.34-.185.714-.276 1.12-.276.313 0 .595.034.847.102.252.068.468.175.648.318.18.145.32.33.42.56.1.227.15.5.15.82v4.548h-1.02v-4.067c0-.193-.017-.373-.048-.54-.032-.17-.092-.316-.18-.44s-.21-.222-.366-.294c-.156-.072-.358-.107-.606-.107-.504 0-.9.143-1.188.43-.288.29-.432.673-.432 1.153v3.863h-1.02v-4.067c0-.2-.018-.385-.054-.553-.036-.168-.098-.314-.186-.438-.088-.125-.206-.22-.354-.29-.148-.067-.338-.1-.57-.1-.296 0-.55.06-.762.18-.212.12-.384.263-.516.43-.132.17-.228.343-.288.523-.06.18-.09.33-.09.45v3.863h-1.02v-6.203h.96zM332.373 370.71c-.264 0-.474-.075-.63-.224-.156-.147-.234-.39-.234-.726-.28.336-.607.578-.98.726-.37.148-.773.223-1.205.223-.28 0-.544-.03-.792-.09-.248-.062-.466-.16-.654-.302-.19-.14-.337-.32-.445-.54-.108-.22-.162-.485-.162-.798 0-.352.06-.64.18-.863.12-.225.278-.406.474-.547.196-.14.42-.246.672-.318.25-.07.51-.13.773-.18.28-.056.546-.098.798-.125.253-.028.475-.068.667-.12.192-.052.344-.128.456-.23.112-.1.168-.245.168-.438 0-.224-.04-.404-.125-.54-.084-.137-.192-.24-.324-.313-.13-.072-.28-.12-.443-.145-.164-.023-.326-.035-.486-.035-.43 0-.79.082-1.08.246-.287.164-.443.474-.467.93h-1.02c.016-.384.096-.708.24-.973.144-.264.336-.478.576-.642.24-.163.515-.282.827-.354.312-.07.64-.107.984-.107.28 0 .56.02.835.06.276.04.526.122.75.247.224.123.404.298.54.522.136.225.204.516.204.876v3.192c0 .24.013.416.04.527.03.113.123.17.283.17.088 0 .192-.02.312-.06v.79c-.177.106-.42.16-.732.16zm-1.43-3.128c-.207.045-.425.08-.653.108-.228.028-.458.06-.69.097-.232.035-.44.094-.624.174-.185.08-.335.194-.45.343-.116.148-.174.35-.174.605 0 .168.034.31.102.426.068.117.156.21.264.283.108.07.236.123.384.155.148.032.298.048.45.048.336 0 .624-.045.864-.138.24-.092.436-.208.588-.35.152-.138.264-.29.336-.454.072-.164.108-.318.108-.463v-1.043c-.128.097-.296.167-.504.21zM335.132 362.01v8.566h-1.02v-8.567h1.02zM337.796 362.01v8.566h-1.02v-8.567h1.02zM282.633 379.672v-.9h1.044v-.923c0-.505.146-.887.438-1.147.292-.26.718-.39 1.278-.39.096 0 .206.007.33.022.124.017.234.04.33.072v.89c-.088-.033-.184-.056-.288-.067s-.2-.018-.288-.018c-.248 0-.44.048-.576.144-.135.097-.203.28-.203.552v.864h1.2v.9h-1.2v5.304h-1.02v-5.305h-1.044zM286.665 380.602c.128-.396.32-.74.576-1.032.257-.29.573-.52.95-.69s.807-.25 1.295-.25c.496 0 .93.083 1.302.25.372.17.685.4.942.69.255.293.447.637.575 1.032.128.396.192.822.192 1.278 0 .455-.064.88-.192 1.272-.128.393-.32.734-.576 1.026-.257.292-.57.52-.943.685-.372.163-.806.245-1.302.245-.488 0-.92-.082-1.296-.245-.377-.164-.693-.393-.95-.685-.255-.292-.447-.634-.575-1.026-.128-.392-.192-.816-.192-1.272 0-.455.064-.882.192-1.278zm1.038 2.28c.1.293.238.536.414.733.176.195.382.346.618.45.236.102.486.155.75.155s.514-.053.75-.156c.236-.104.442-.254.618-.45s.314-.44.414-.73c.1-.293.15-.627.15-1.003 0-.376-.05-.71-.15-1-.1-.294-.238-.54-.414-.74-.176-.198-.382-.35-.618-.455-.236-.104-.486-.156-.75-.156s-.514.05-.75.155c-.236.104-.442.257-.618.456-.176.2-.314.446-.414.74-.1.29-.15.624-.15 1 0 .377.05.71.15 1.003zM294.62 378.772v1.308h.025c.248-.504.552-.875.912-1.115s.816-.352 1.368-.336v1.08c-.408 0-.756.055-1.044.167-.287.11-.52.275-.695.492-.176.214-.304.477-.384.784-.08.31-.12.662-.12 1.063v2.76h-1.02v-6.204h.96zM303.512 384.976v-6.096h-2.208v-.816c.288 0 .568-.022.84-.066.272-.043.518-.125.738-.246.22-.12.406-.283.558-.49.152-.21.256-.473.312-.793h.78v8.507h-1.02zM311.457 377.717c-.248-.232-.576-.348-.984-.348-.432 0-.78.104-1.044.316-.265.212-.47.48-.62.804-.147.324-.25.674-.305 1.05-.056.376-.088.73-.096 1.057l.023.024c.24-.392.538-.675.894-.85.356-.177.766-.266 1.23-.266.408 0 .774.07 1.098.21.324.14.596.335.816.583.22.248.39.54.51.875.12.337.18.7.18 1.093 0 .31-.047.636-.143.972-.096.336-.254.643-.474.918-.22.276-.512.504-.876.684-.364.18-.814.27-1.35.27-.632 0-1.14-.128-1.524-.384-.384-.256-.68-.584-.888-.984-.21-.4-.346-.84-.414-1.32-.067-.48-.1-.943-.1-1.392 0-.583.05-1.15.15-1.698.1-.547.27-1.033.51-1.457.24-.424.56-.764.96-1.02.4-.257.903-.385 1.51-.385.705 0 1.265.185 1.68.558.417.372.657.91.72 1.614h-1.02c-.047-.386-.195-.693-.443-.925zm-1.85 2.837c-.215.1-.4.236-.55.408-.153.172-.267.376-.343.61-.076.237-.114.487-.114.75 0 .265.04.513.12.745.08.232.194.432.342.6.148.168.332.303.552.402.22.1.47.15.75.15s.526-.05.738-.15c.212-.1.39-.24.534-.415.144-.176.254-.378.33-.605.076-.23.114-.467.114-.715 0-.264-.034-.514-.102-.75-.068-.235-.174-.44-.318-.61-.144-.173-.324-.312-.54-.415-.216-.104-.468-.156-.756-.156-.287 0-.54.05-.756.15zM315.43 378.772v.84h.023c.168-.344.432-.594.792-.75.36-.155.756-.233 1.188-.233.48 0 .898.087 1.254.263.356.176.652.414.888.714s.414.646.534 1.038c.12.393.18.81.18 1.248 0 .44-.06.855-.175 1.248-.116.394-.292.735-.528 1.026-.236.293-.532.522-.888.69-.358.168-.772.252-1.243.252-.152 0-.322-.017-.51-.048-.188-.032-.374-.084-.558-.156-.185-.072-.36-.17-.523-.294-.164-.124-.302-.278-.414-.462h-.024v3.19h-1.02v-8.566h1.02zm3.665 2.202c-.076-.275-.192-.52-.348-.738-.156-.216-.356-.388-.6-.516s-.53-.192-.858-.192c-.345 0-.637.068-.877.204-.24.137-.436.314-.588.534-.152.22-.262.47-.33.75s-.102.564-.102.853c0 .303.036.597.108.88.073.285.187.535.343.75.156.217.358.39.607.522.247.132.548.198.9.198s.646-.068.882-.204c.236-.136.426-.315.57-.54.144-.224.248-.48.312-.768.064-.29.096-.584.096-.89-.002-.285-.04-.568-.115-.844zM320.996 378.772h1.308l1.488 2.172 1.548-2.172h1.224l-2.136 2.856 2.4 3.348h-1.308l-1.728-2.568-1.727 2.568h-1.236l2.327-3.264-2.16-2.94zM331.004 381.16v.96h-3.468v-.96h3.468zM334.856 384.976v-6.096h-2.208v-.816c.288 0 .568-.022.84-.066.272-.043.518-.125.738-.246.22-.12.406-.283.558-.49.152-.21.256-.473.312-.793h.78v8.507h-1.02zM338.936 378.28c.112-.368.286-.686.522-.954.236-.268.53-.478.882-.63.352-.15.752-.227 1.2-.227.368 0 .714.053 1.038.16.324.108.606.265.846.47.24.203.43.457.57.76.14.305.21.657.21 1.057 0 .377-.058.71-.174.996-.116.29-.27.547-.462.775-.192.227-.412.434-.66.618-.248.184-.504.36-.768.527-.264.16-.528.318-.792.475-.264.156-.506.322-.726.498-.22.176-.408.365-.564.57-.156.203-.258.438-.306.7h4.368v.9h-5.556c.04-.503.13-.933.27-1.29.14-.356.318-.665.534-.93.216-.264.46-.495.732-.695.272-.198.556-.387.852-.564.36-.224.676-.43.948-.617.272-.19.498-.38.678-.57.18-.192.316-.4.408-.625s.138-.483.138-.78c0-.23-.045-.44-.132-.63-.088-.188-.206-.35-.354-.485-.148-.137-.322-.24-.522-.313-.2-.072-.412-.107-.636-.107-.296 0-.55.06-.762.185-.212.124-.386.286-.522.486s-.234.427-.294.68c-.06.25-.086.505-.078.76h-1.02c-.024-.43.02-.832.132-1.2zM345.476 379.828c.016-.336.056-.664.12-.983.064-.32.156-.624.276-.912.12-.288.284-.54.492-.756.208-.216.47-.388.786-.517.316-.127.694-.19 1.134-.19.44 0 .818.063 1.134.19.316.13.578.3.786.517.208.216.372.468.492.756s.212.593.276.912c.064.32.104.647.12.983.016.336.024.66.024.973s-.008.637-.024.973c-.016.336-.056.664-.12.983-.064.32-.156.623-.276.906-.12.285-.284.535-.492.75-.208.217-.468.387-.78.51-.312.125-.692.186-1.14.186-.44 0-.818-.06-1.134-.186-.316-.123-.578-.293-.786-.51-.208-.215-.372-.465-.492-.75-.12-.283-.212-.586-.276-.906-.064-.32-.104-.647-.12-.983-.016-.336-.024-.66-.024-.972s.008-.636.024-.972zm1.086 2.035c.02.395.084.768.192 1.115.108.348.282.643.522.882.24.24.576.36 1.008.36.432 0 .768-.12 1.008-.36s.414-.534.522-.882c.108-.348.172-.72.192-1.115.02-.397.03-.755.03-1.074 0-.21-.002-.44-.006-.69-.004-.253-.024-.505-.06-.757-.036-.253-.088-.498-.156-.738s-.168-.45-.3-.63c-.132-.18-.298-.326-.498-.438-.2-.112-.444-.168-.732-.168s-.532.055-.732.167c-.2.11-.366.258-.498.438s-.232.39-.3.63c-.068.24-.12.485-.156.738-.036.252-.056.504-.06.756-.004.25-.006.48-.006.69 0 .318.01.677.03 1.073zM353.444 378.772v.84h.024c.168-.344.432-.594.792-.75.36-.155.756-.233 1.188-.233.48 0 .898.087 1.254.263.356.176.652.414.888.714s.414.646.534 1.038c.12.393.18.81.18 1.248 0 .44-.058.855-.174 1.248-.116.394-.292.735-.528 1.026-.236.293-.532.522-.888.69-.356.168-.77.252-1.242.252-.152 0-.322-.017-.51-.048-.188-.032-.374-.084-.558-.156-.184-.072-.358-.17-.522-.294-.164-.124-.302-.278-.414-.462h-.024v3.19h-1.02v-8.566h1.02zm3.666 2.202c-.076-.275-.192-.52-.348-.738-.156-.216-.356-.388-.6-.516s-.53-.192-.858-.192c-.344 0-.636.068-.876.204-.24.137-.436.314-.588.534-.152.22-.262.47-.33.75s-.102.564-.102.853c0 .303.036.597.108.88.072.285.186.535.342.75.156.217.358.39.606.522s.548.198.9.198.646-.068.882-.204c.236-.136.426-.315.57-.54.144-.224.248-.48.312-.768.064-.29.096-.584.096-.89 0-.285-.038-.568-.114-.844zM359.012 378.772h1.308l1.488 2.172 1.548-2.172h1.224l-2.136 2.856 2.4 3.348h-1.308l-1.728-2.568-1.728 2.568h-1.236l2.328-3.264-2.16-2.94z"/></g><g fill="#0069B4"><path d="M516.412 362.008v7.607h4.536v.96h-5.676v-8.567h1.14zM526.54 370.707c-.264 0-.475-.073-.63-.22-.156-.15-.234-.392-.234-.728-.28.335-.606.577-.977.726-.374.147-.775.22-1.208.22-.28 0-.543-.028-.79-.09-.25-.06-.468-.16-.655-.298-.188-.14-.336-.32-.443-.54-.11-.22-.162-.487-.162-.8 0-.35.06-.64.18-.863.12-.224.277-.405.474-.545.196-.14.42-.246.672-.318.252-.072.51-.133.774-.18.28-.057.546-.1.798-.127.252-.027.474-.067.666-.12.192-.052.344-.128.456-.228.11-.1.168-.246.168-.438 0-.226-.042-.405-.126-.542-.084-.135-.192-.24-.324-.312-.132-.07-.28-.12-.444-.143-.164-.024-.326-.037-.485-.037-.432 0-.79.083-1.08.246-.287.164-.443.475-.467.93h-1.02c.016-.383.096-.707.24-.97.142-.265.335-.48.574-.644.24-.164.517-.28.828-.354.313-.072.64-.108.984-.108.28 0 .558.02.833.06.276.04.526.123.75.246.225.125.404.3.54.522.136.224.204.517.204.876v3.19c0 .24.014.417.042.53.027.11.12.168.28.168.09 0 .192-.02.314-.06v.79c-.178.108-.42.16-.734.16zm-1.428-3.125c-.21.044-.426.08-.654.107-.23.027-.46.06-.69.095-.23.037-.44.095-.624.174-.184.08-.334.194-.45.342-.116.147-.173.35-.173.606 0 .168.034.31.103.426.067.115.156.21.264.28.107.073.236.126.385.157.147.033.297.05.45.05.335 0 .623-.047.863-.14.24-.09.436-.207.588-.347.15-.14.265-.293.336-.457.07-.163.107-.317.107-.46v-1.046c-.13.098-.298.167-.505.212zM529.144 364.37v1.31h.023c.248-.504.553-.876.912-1.116.36-.24.815-.352 1.368-.336v1.08c-.408 0-.756.056-1.045.168-.287.112-.52.276-.695.492-.176.216-.305.478-.385.786-.08.308-.12.662-.12 1.063v2.76h-1.02v-6.205h.96zM536.536 372.328c-.465.504-1.192.756-2.184.756-.29 0-.582-.032-.883-.096-.3-.064-.573-.168-.817-.313s-.445-.332-.605-.564c-.16-.23-.248-.515-.264-.85h1.02c.008.183.066.34.174.467.108.128.24.23.396.31.156.08.326.14.51.176s.36.054.527.054c.338 0 .622-.06.853-.174.232-.116.425-.275.576-.48.15-.203.26-.45.33-.738.066-.287.102-.603.102-.947v-.408h-.024c-.177.385-.442.666-.798.846-.356.18-.734.27-1.135.27-.464 0-.867-.083-1.21-.25-.346-.17-.634-.394-.866-.68-.232-.283-.407-.615-.522-.996-.116-.38-.174-.78-.174-1.205 0-.368.048-.746.144-1.135.096-.387.256-.74.48-1.056.223-.315.52-.575.887-.78.368-.203.82-.306 1.355-.306.393 0 .752.087 1.08.26.328.17.584.43.77.772h.012v-.89h.96v5.678c0 1.015-.233 1.776-.696 2.28zm-1.303-2.79c.236-.14.426-.324.57-.552.144-.23.25-.486.318-.774.068-.288.103-.576.103-.864 0-.27-.03-.54-.096-.805-.065-.264-.166-.502-.307-.713-.14-.213-.322-.383-.545-.51-.225-.13-.496-.193-.816-.193-.33 0-.61.063-.84.186-.233.124-.423.29-.57.498-.15.21-.257.45-.325.72-.068.273-.102.558-.102.853 0 .28.027.56.084.84.056.28.152.534.287.763.137.228.316.412.54.55.225.142.505.212.84.212.338 0 .623-.07.86-.21zM543.16 370.18c-.465.35-1.05.526-1.753.526-.496 0-.926-.08-1.29-.24-.364-.16-.67-.383-.917-.67-.248-.29-.435-.633-.56-1.033-.123-.4-.193-.836-.21-1.31 0-.47.072-.902.217-1.294.144-.394.346-.733.605-1.02.26-.29.568-.513.925-.673.355-.16.745-.24 1.17-.24.552 0 1.01.114 1.374.343.364.228.657.518.877.87.22.35.372.735.456 1.15.084.417.117.814.1 1.19h-4.642c-.008.27.025.53.097.773.072.244.188.46.35.647.158.19.362.338.61.45.248.112.54.17.876.17.433 0 .786-.102 1.06-.302.278-.2.46-.504.548-.912h1.01c-.137.697-.436 1.222-.9 1.573zm-.247-3.985c-.092-.216-.215-.402-.37-.558-.157-.156-.342-.28-.554-.372-.213-.092-.446-.14-.702-.14-.265 0-.503.048-.715.14-.212.092-.394.22-.546.378-.15.16-.273.347-.36.558-.088.214-.14.44-.155.68h3.563c-.015-.24-.07-.468-.162-.685zM546.136 364.37v1.31h.023c.247-.504.552-.876.91-1.116.36-.24.817-.352 1.37-.336v1.08c-.41 0-.757.056-1.045.168-.288.112-.52.276-.696.492-.177.216-.305.478-.385.786-.08.308-.12.662-.12 1.063v2.76h-1.02v-6.205h.96zM499.036 379.672v-.9h1.044v-.924c0-.504.145-.887.438-1.146.29-.26.717-.39 1.277-.39.096 0 .206.01.33.024.124.016.234.04.33.072v.887c-.088-.03-.184-.053-.288-.066-.104-.013-.2-.02-.288-.02-.25 0-.44.05-.577.146-.136.096-.203.28-.203.553v.862h1.2v.9h-1.2v5.304h-1.02v-5.304h-1.044zM503.067 380.6c.13-.395.32-.74.576-1.03.256-.293.572-.523.948-.69.377-.17.81-.253 1.297-.253.496 0 .93.084 1.303.252.37.167.686.397.94.69.257.29.448.635.577 1.03.128.398.19.823.19 1.278 0 .457-.063.88-.19 1.272-.13.392-.32.734-.576 1.026-.255.292-.57.52-.94.684-.373.164-.807.246-1.303.246-.488 0-.92-.082-1.296-.246-.375-.164-.69-.392-.947-.684-.256-.292-.447-.635-.576-1.026-.127-.392-.19-.815-.19-1.272 0-.454.063-.88.19-1.277zm1.04 2.28c.1.294.237.538.414.733.177.196.382.346.618.45.236.104.486.156.75.156s.514-.053.75-.157c.236-.104.44-.254.618-.45.176-.195.314-.44.414-.732.1-.29.15-.624.15-1s-.05-.71-.15-1.003c-.1-.29-.238-.537-.414-.737-.177-.2-.382-.353-.618-.456-.236-.103-.486-.156-.75-.156s-.514.053-.75.156c-.236.104-.44.256-.617.456-.176.2-.314.446-.413.737-.1.293-.15.627-.15 1.002 0 .376.05.71.15 1zM511.025 378.77v1.31h.023c.248-.504.553-.877.912-1.117.36-.24.816-.352 1.368-.336v1.08c-.408 0-.756.057-1.044.168-.288.113-.52.276-.696.492-.176.217-.304.48-.384.787-.08.307-.12.66-.12 1.06v2.76h-1.02v-6.203h.96zM519.915 384.975v-6.097h-2.207v-.815c.287 0 .567-.022.84-.065.27-.045.518-.127.738-.246.22-.12.405-.284.558-.492.15-.208.256-.473.31-.792h.78v8.508h-1.02zM523.996 378.28c.112-.368.286-.686.523-.954.234-.27.528-.48.88-.63.353-.152.752-.23 1.2-.23.368 0 .714.055 1.038.162.324.11.607.265.846.47.24.203.43.457.57.76.14.306.21.657.21 1.058 0 .375-.058.707-.174.996-.116.287-.27.545-.462.773-.19.228-.412.434-.66.618-.248.185-.504.36-.768.528-.264.16-.528.318-.793.475-.264.155-.506.322-.725.498-.22.176-.408.366-.564.57-.156.204-.258.438-.307.702h4.37v.9h-5.557c.04-.505.13-.936.27-1.29.14-.356.318-.667.534-.93s.46-.497.732-.697c.27-.2.555-.388.85-.564.36-.225.678-.43.95-.62.27-.187.497-.376.677-.568.18-.192.316-.4.408-.624.092-.225.14-.484.14-.78 0-.23-.046-.442-.134-.63s-.205-.35-.353-.486c-.148-.135-.322-.24-.523-.312-.2-.07-.412-.108-.636-.108-.297 0-.55.063-.762.187-.213.124-.387.286-.522.485-.136.2-.233.427-.294.68-.06.25-.086.505-.078.76h-1.02c-.022-.43.022-.83.134-1.2zM530.536 379.828c.016-.336.056-.664.12-.984.064-.32.155-.624.275-.912s.285-.54.493-.756c.208-.217.47-.39.786-.516.315-.13.692-.192 1.133-.192.44 0 .817.064 1.134.192.316.127.578.3.786.516.208.216.372.468.492.756s.212.592.276.912c.064.32.105.648.12.984.017.336.024.66.024.972 0 .312-.008.636-.024.972-.016.336-.056.664-.12.984-.063.32-.155.622-.275.906-.12.283-.284.533-.492.75-.208.215-.468.386-.78.51-.312.123-.69.186-1.14.186-.44 0-.817-.063-1.134-.186-.317-.124-.58-.295-.787-.51-.208-.217-.372-.467-.492-.75-.12-.284-.21-.586-.275-.906-.063-.32-.103-.648-.12-.984-.016-.336-.023-.66-.023-.972 0-.312.008-.636.024-.972zm1.086 2.033c.02.397.084.77.19 1.117.11.35.283.642.524.882.24.24.575.36 1.008.36s.768-.12 1.01-.36c.238-.24.412-.534.52-.883.107-.35.172-.72.19-1.116.02-.395.03-.753.03-1.073 0-.207 0-.438-.005-.69-.006-.25-.025-.503-.06-.755-.038-.252-.09-.498-.157-.738-.068-.24-.168-.45-.3-.63-.132-.18-.298-.325-.5-.44-.198-.11-.442-.167-.73-.167s-.532.057-.732.168c-.2.113-.366.258-.497.44-.133.18-.232.39-.3.63-.07.24-.12.485-.157.737-.035.252-.056.504-.06.756-.004.252-.006.482-.006.69.002.32.012.678.032 1.073zM538.504 378.77v.84h.024c.168-.343.432-.593.79-.75.36-.155.757-.233 1.19-.233.478 0 .896.09 1.253.265.357.177.652.414.89.714.235.3.413.647.533 1.038.12.392.18.808.18 1.248 0 .44-.058.857-.174 1.248s-.293.733-.53 1.026c-.234.29-.53.52-.886.69-.357.167-.77.25-1.242.25-.152 0-.322-.015-.51-.047-.19-.033-.375-.085-.56-.156-.183-.072-.357-.17-.52-.295-.165-.124-.304-.278-.415-.463h-.024v3.192h-1.02v-8.57h1.02zm3.666 2.203c-.076-.276-.192-.522-.35-.738-.155-.216-.354-.388-.6-.516-.243-.13-.53-.193-.856-.193-.345 0-.637.068-.877.204-.24.137-.435.315-.588.535-.153.22-.263.47-.33.75-.07.28-.103.564-.103.852 0 .305.036.6.107.883.072.283.187.533.342.75.156.216.358.39.607.522.247.133.547.198.9.198.35 0 .645-.067.88-.204.237-.136.427-.316.57-.54.145-.224.25-.48.313-.768.063-.287.097-.584.097-.887 0-.29-.038-.57-.113-.847zM544.07 378.77h1.31l1.487 2.173 1.548-2.172h1.225l-2.137 2.856 2.4 3.35h-1.31l-1.727-2.568-1.727 2.567h-1.237l2.328-3.265-2.16-2.94zM559.972 381.53v.817h-2.616v2.628h-.815v-2.628h-2.615v-.816h2.616v-2.626h.816v2.627h2.616z"/></g></svg>