<?xml version="1.0" encoding="utf-8"?>
<!-- Generator: Adobe Illustrator 17.0.1, SVG Export Plug-In . SVG Version: 6.00 Build 0)  -->
<!DOCTYPE svg PUBLIC "-//W3C//DTD SVG 1.1//EN" "http://www.w3.org/Graphics/SVG/1.1/DTD/svg11.dtd">
<svg version="1.1" id="Ebene_1" xmlns="http://www.w3.org/2000/svg" xmlns:xlink="http://www.w3.org/1999/xlink" x="0px" y="0px"
	 width="568.626px" height="103.462px" viewBox="0 0 568.626 103.462" enable-background="new 0 0 568.626 103.462"
	 xml:space="preserve">
<rect x="1790.488" y="-2423.669" fill="#DAECF2" width="1930" height="1494"/>
<rect x="1795.488" y="-61.669" fill="#DAECF2" width="1930" height="1494"/>
<rect x="1790.488" y="-2435.669" fill="#2B3E50" width="1920" height="75"/>
<rect x="1790.488" y="-2159.669" fill="#2B3E50" width="1920" height="437"/>
<rect x="1790.488" y="-1531.669" fill="#2B3E50" width="1920" height="611"/>
<g>
	<circle fill="#2B3E50" cx="2853.718" cy="-2695.439" r="128.314"/>
	<path fill="#56BA64" d="M2888.884-2691.818c-2.93-2.832-3.196-4.496-0.115-7.471c10.667-10.299,21.171-20.776,31.472-31.442
		c6.32-6.543,8.114-14.475,4.762-23.091c-3.056-7.855-8.607-12.919-17.309-13.901c-2.351-1.011-4.702-1.003-7.051,0.007l0,0
		c-5.49,0.35-9.632,3.296-13.349,7.003c-10.114,10.086-20.299,20.104-30.246,30.353c-2.643,2.723-4.181,2.581-6.748-0.058
		c-9.96-10.237-20.115-20.283-30.259-30.34c-3.702-3.67-7.762-6.804-13.335-6.962c-2.35-1.021-4.699-0.999-7.047,0.007l0,0
		c-9.546,1.455-16.228,7.809-17.935,17.056c-1.259,2.987-1.258,5.979-0.041,8.977c0.459,4.915,3.098,8.672,6.447,12.028
		c10.097,10.119,20.113,20.323,30.383,30.263c2.91,2.817,3.208,4.494,0.122,7.464c-10.177,9.797-20.074,19.885-30.028,29.912
		c-3.426,3.451-6.44,7.197-6.885,12.342c-1.259,2.987-1.255,5.98-0.038,8.978c1.443,8.586,6.659,13.983,14.644,16.732
		c8.555,2.945,16.205,0.808,22.545-5.37c10.62-10.349,21.099-20.848,31.444-31.472c2.573-2.642,4.061-2.806,6.72-0.061
		c9.969,10.292,20.162,20.368,30.344,30.452c9.953,9.857,23.288,10.266,32.507,1.105c9.256-9.198,8.921-22.611-0.904-32.521
		C2909.01-2671.885,2899.066-2681.976,2888.884-2691.818z M2869.771-2689.061c-3.508,7.967-8.333,15.151-13.631,22.023
		c-1.128,1.463-2.273,3.269-4.187,0.776c-6.607-8.604-13.031-17.406-16.143-27.979c-3.694-12.552,0.984-21.427,14.086-27.427h0.001
		c2.523,0,5.047,0.042,7.57,0.04C2872.26-2714.892,2876.377-2704.068,2869.771-2689.061z"/>
</g>
<g>
	<circle fill="#2B3E50" cx="2596.718" cy="-2695.439" r="128.314"/>
	<path fill="#56BA64" d="M2631.884-2691.818c-2.93-2.832-3.196-4.496-0.115-7.471c10.667-10.299,21.171-20.776,31.472-31.442
		c6.32-6.543,8.114-14.475,4.762-23.091c-3.056-7.855-8.607-12.919-17.309-13.901c-2.351-1.011-4.702-1.003-7.051,0.007l0,0
		c-5.49,0.35-9.632,3.296-13.349,7.003c-10.114,10.086-20.299,20.104-30.246,30.353c-2.643,2.723-4.181,2.581-6.748-0.058
		c-9.96-10.237-20.115-20.283-30.259-30.34c-3.702-3.67-7.762-6.804-13.335-6.962c-2.35-1.021-4.699-0.999-7.047,0.007l0,0
		c-9.546,1.455-16.228,7.809-17.935,17.056c-1.259,2.987-1.258,5.979-0.041,8.977c0.459,4.915,3.098,8.672,6.447,12.028
		c10.097,10.119,20.113,20.323,30.383,30.263c2.91,2.817,3.208,4.494,0.122,7.464c-10.177,9.797-20.074,19.885-30.028,29.912
		c-3.426,3.451-6.44,7.197-6.885,12.342c-1.259,2.987-1.255,5.98-0.038,8.978c1.443,8.586,6.659,13.983,14.644,16.732
		c8.555,2.945,16.205,0.808,22.545-5.37c10.62-10.349,21.099-20.848,31.444-31.472c2.573-2.642,4.061-2.806,6.72-0.061
		c9.969,10.292,20.162,20.368,30.344,30.452c9.953,9.857,23.288,10.266,32.507,1.105c9.256-9.198,8.921-22.611-0.904-32.521
		C2652.01-2671.885,2642.066-2681.976,2631.884-2691.818z M2612.771-2689.061c-3.508,7.967-8.333,15.151-13.631,22.023
		c-1.128,1.463-2.273,3.269-4.187,0.776c-6.607-8.604-13.031-17.406-16.143-27.979c-3.694-12.552,0.984-21.427,14.086-27.427h0.001
		c2.523,0,5.047,0.042,7.57,0.04C2615.26-2714.892,2619.377-2704.068,2612.771-2689.061z"/>
</g>
<g>
	<text transform="matrix(1 0 0 1 2697.4189 -2385.8516)" fill="#FFFFFF" font-family="'OpenSans'" font-size="29.7801">ROUTE</text>
	<text transform="matrix(1 0 0 1 2793.739 -2385.8516)" fill="#FFFFFF" font-family="'OpenSans-Light'" font-size="29.7801"> </text>
	<text transform="matrix(1 0 0 1 2801.4751 -2385.8516)" fill="#FFFFFF" font-family="'OpenSans-Bold'" font-size="29.7801">360°</text>
	<path fill="#56BA64" d="M2665.408-2397.141c-0.804-0.777-0.877-1.233-0.031-2.049c2.926-2.825,5.807-5.699,8.633-8.625
		c1.734-1.795,2.226-3.971,1.306-6.334c-0.838-2.155-2.361-3.544-4.748-3.813c-0.645-0.277-1.29-0.275-1.934,0.002l0,0
		c-1.506,0.096-2.642,0.904-3.662,1.921c-2.774,2.767-5.568,5.515-8.296,8.326c-0.725,0.747-1.147,0.708-1.851-0.016
		c-2.732-2.808-5.518-5.564-8.3-8.322c-1.015-1.007-2.129-1.867-3.658-1.91c-0.645-0.28-1.289-0.274-1.933,0.002l0,0
		c-2.618,0.399-4.451,2.142-4.92,4.678c-0.345,0.819-0.345,1.64-0.011,2.462c0.126,1.348,0.85,2.379,1.768,3.299
		c2.77,2.776,5.517,5.574,8.334,8.301c0.798,0.773,0.88,1.233,0.033,2.047c-2.792,2.688-5.506,5.455-8.237,8.205
		c-0.94,0.947-1.767,1.974-1.888,3.385c-0.345,0.82-0.344,1.64-0.01,2.463c0.396,2.355,1.827,3.836,4.017,4.59
		c2.347,0.808,4.445,0.222,6.184-1.473c2.913-2.839,5.788-5.719,8.625-8.633c0.706-0.725,1.114-0.77,1.843-0.017
		c2.735,2.823,5.531,5.587,8.323,8.353c2.73,2.704,6.388,2.816,8.917,0.303c2.539-2.523,2.447-6.202-0.248-8.921
		C2670.929-2391.674,2668.201-2394.441,2665.408-2397.141z M2660.166-2396.385c-0.962,2.186-2.286,4.156-3.739,6.041
		c-0.309,0.401-0.624,0.897-1.149,0.213c-1.812-2.36-3.574-4.706-4.428-7.606c-1.013-3.443,0.27-5.809,3.864-7.455l0,0
		c0.692,0,1.384-0.057,2.077-0.058C2660.848-2403.402,2661.978-2400.501,2660.166-2396.385z"/>
</g>
<g>
	<path fill="#FFFFFF" d="M3650.058-2384.728c0,1.193,0.025,2.342-0.01,3.49c-0.019,0.641-0.664,0.958-1.372,0.719
		c-1.232-0.416-2.416-0.944-3.523-1.627c-4.679-2.884-7.688-6.992-8.592-12.424c-1.121-6.728,0.992-12.415,6.111-16.926
		c2.626-2.315,5.739-3.661,9.198-4.189c9.083-1.388,17.836,4.159,20.384,12.967c2.464,8.52-1.569,17.412-9.555,21.312
		c-0.682,0.333-1.402,0.591-2.11,0.872c-0.143,0.057-0.308,0.078-0.463,0.081c-0.615,0.011-0.96-0.33-0.959-0.949
		c0.003-1.625,0.01-3.25,0.018-4.875c0.003-0.739-0.063-1.472-0.377-2.147c-0.206-0.442-0.49-0.848-0.736-1.263
		c0.573-0.103,1.203-0.199,1.825-0.33c0.944-0.198,1.847-0.513,2.694-0.984c1.356-0.753,2.364-1.831,2.942-3.269
		c0.83-2.065,1.04-4.199,0.523-6.375c-0.241-1.018-0.76-1.908-1.447-2.696c-0.113-0.13-0.161-0.232-0.099-0.417
		c0.495-1.494,0.345-2.968-0.197-4.417c-0.037-0.099-0.214-0.199-0.331-0.206c-0.675-0.041-1.332,0.105-1.933,0.387
		c-0.893,0.419-1.751,0.912-2.631,1.362c-0.125,0.064-0.299,0.109-0.429,0.077c-2.912-0.721-5.82-0.727-8.732-0.003
		c-0.138,0.034-0.332-0.006-0.455-0.083c-1.129-0.706-2.278-1.366-3.598-1.646c-0.326-0.069-0.667-0.088-1.001-0.089
		c-0.101,0-0.26,0.114-0.296,0.211c-0.54,1.461-0.678,2.942-0.19,4.45c0.029,0.09,0.006,0.241-0.054,0.309
		c-1.543,1.741-1.927,3.805-1.711,6.043c0.106,1.1,0.32,2.173,0.772,3.188c0.914,2.05,2.536,3.282,4.638,3.903
		c0.859,0.254,1.757,0.375,2.638,0.556c0.056,0.011,0.113,0.02,0.181,0.031c-0.011,0.042-0.009,0.075-0.025,0.091
		c-0.575,0.588-0.875,1.313-1.017,2.106c-0.033,0.186-0.11,0.268-0.276,0.331c-0.588,0.223-1.191,0.368-1.822,0.373
		c-1.434,0.01-2.469-0.673-3.205-1.86c-0.382-0.616-0.843-1.151-1.467-1.527c-0.518-0.313-1.073-0.508-1.692-0.446
		c-0.107,0.011-0.217,0.031-0.318,0.068c-0.274,0.1-0.331,0.274-0.137,0.499c0.147,0.17,0.317,0.335,0.509,0.45
		c0.981,0.587,1.604,1.47,2.021,2.497c0.661,1.627,1.934,2.354,3.593,2.561C3648.239-2384.431,3649.119-2384.552,3650.058-2384.728z
		"/>
</g>
<g>
	<path fill="none" stroke="#2B3E50" stroke-width="2" stroke-miterlimit="10" d="M2861.488-1594.719c0,1.132-0.918,2.05-2.05,2.05
		h-217.9c-1.132,0-2.05-0.918-2.05-2.05v-59.9c0-1.132,0.918-2.05,2.05-2.05h217.9c1.132,0,2.05,0.918,2.05,2.05V-1594.719z"/>
	<text transform="matrix(1 0 0 1 2664.947 -1613.7051)" fill="#2B3E50" font-family="'OpenSans-Bold'" font-size="26.6137">LAUNCH APP</text>
</g>
<path fill="#2B3E50" d="M1266.488-1027.947c0,1.81-1.468,3.278-3.278,3.278H-333.234c-1.81,0-3.278-1.468-3.278-3.278v-1596.444
	c0-1.811,1.468-3.278,3.278-3.278H1263.21c1.811,0,3.278,1.468,3.278,3.278L1266.488-1027.947L1266.488-1027.947z"/>
<text transform="matrix(1 0 0 1 1867.1497 -2258.1929)" fill="#2B3E50" font-family="'OpenSans-Semibold'" font-size="34.9789">Route 360° is available for the following locations</text>
<g>
	<g>
		<g>
			<defs>
				<path id="SVGID_1_" d="M2170.488-1782.311c0,0.354-0.287,0.642-0.642,0.642H1857.13c-0.354,0-0.642-0.287-0.642-0.642v-312.716
					c0-0.354,0.287-0.642,0.642-0.642h312.716c0.354,0,0.642,0.287,0.642,0.642V-1782.311z"/>
			</defs>
			<clipPath id="SVGID_2_">
				<use xlink:href="#SVGID_1_"  overflow="visible"/>
			</clipPath>
			<g clip-path="url(#SVGID_2_)">
				
					<image overflow="visible" enable-background="new    " width="2563" height="1608" xlink:href="614932A5.jpeg"  transform="matrix(0.1978 0 0 0.197 1760.5518 -2096.4609)">
				</image>
			</g>
		</g>
	</g>
	<text transform="matrix(1 0 0 1 2044.5989 -2047.6567)" fill="#FFFFFF" font-family="'OpenSans-Extrabold'" font-size="34.9789">PARIS</text>
</g>
<g>
	<g>
		<g>
			<defs>
				<path id="SVGID_3_" d="M2540.488-1782.311c0,0.354-0.287,0.642-0.642,0.642H2227.13c-0.354,0-0.642-0.287-0.642-0.642v-312.716
					c0-0.354,0.287-0.642,0.642-0.642h312.716c0.354,0,0.642,0.287,0.642,0.642V-1782.311z"/>
			</defs>
			<clipPath id="SVGID_4_">
				<use xlink:href="#SVGID_3_"  overflow="visible"/>
			</clipPath>
			<g transform="matrix(1 0 0 1 1.220703e-004 0)" clip-path="url(#SVGID_4_)">
				
					<image overflow="visible" enable-background="new    " width="1957" height="770" xlink:href="614932A7.jpeg"  transform="matrix(0.4668 0 0 0.4661 1932.3954 -2130.1248)">
				</image>
			</g>
		</g>
	</g>
	<text transform="matrix(1 0 0 1 2423.1394 -2052.7427)" fill="#FFFFFF" font-family="'OpenSans-Extrabold'" font-size="34.9789">OSLO</text>
</g>
<g>
	<g>
		<g>
			<defs>
				<path id="SVGID_5_" d="M2910.488-1782.311c0,0.354-0.287,0.642-0.642,0.642H2597.13c-0.354,0-0.642-0.287-0.642-0.642v-312.716
					c0-0.354,0.287-0.642,0.642-0.642h312.716c0.354,0,0.642,0.287,0.642,0.642V-1782.311z"/>
			</defs>
			<clipPath id="SVGID_6_">
				<use xlink:href="#SVGID_5_"  overflow="visible"/>
			</clipPath>
			<g clip-path="url(#SVGID_6_)">
				
					<image overflow="visible" enable-background="new    " width="1914" height="1078" xlink:href="614932A5.jpeg"  transform="matrix(0.6101 0 0 0.6093 2070.5771 -2166.6694)">
				</image>
			</g>
		</g>
		<g>
			<defs>
				<path id="SVGID_7_" d="M2910.488-1782.311c0,0.354-0.287,0.642-0.642,0.642H2597.13c-0.354,0-0.642-0.287-0.642-0.642v-312.716
					c0-0.354,0.287-0.642,0.642-0.642h312.716c0.354,0,0.642,0.287,0.642,0.642V-1782.311z"/>
			</defs>
			<clipPath id="SVGID_8_">
				<use xlink:href="#SVGID_7_"  overflow="visible"/>
			</clipPath>
			
				<rect x="2566.488" y="-2137.669" opacity="0.3" clip-path="url(#SVGID_8_)" fill="#FFFFFF" enable-background="new    " width="368" height="367"/>
		</g>
	</g>
	<text transform="matrix(1 0 0 1 2762.8845 -2052.7427)" fill="#FFFFFF" font-family="'OpenSans-Extrabold'" font-size="34.9789">BERLIN</text>
	<path fill="none" stroke="#FFFFFF" stroke-width="9" stroke-miterlimit="10" d="M2710.988-1900.169"/>
	<path fill="none" stroke="#FFFFFF" stroke-width="9" stroke-miterlimit="10" d="M2685.488-1925.669"/>
	<path fill="none" stroke="#FFFFFF" stroke-width="9" stroke-miterlimit="10" d="M2750.488-1946.169"/>
	<path fill="none" stroke="#FFFFFF" stroke-width="9" stroke-miterlimit="10" d="M2704.488-1900.169"/>
</g>
<g>
	<g>
		<g>
			<defs>
				<path id="SVGID_9_" d="M3280.488-1782.311c0,0.354-0.287,0.642-0.642,0.642H2967.13c-0.354,0-0.642-0.287-0.642-0.642v-312.716
					c0-0.354,0.287-0.642,0.642-0.642h312.716c0.354,0,0.642,0.287,0.642,0.642V-1782.311z"/>
			</defs>
			<clipPath id="SVGID_10_">
				<use xlink:href="#SVGID_9_"  overflow="visible"/>
			</clipPath>
			<g transform="matrix(1 0 0 1 -2.441406e-004 0)" clip-path="url(#SVGID_10_)">
				
					<image overflow="visible" enable-background="new    " width="2004" height="1002" xlink:href="614932A3.jpeg"  transform="matrix(0.3331 0 0 0.3331 2766.5256 -2105.5493)">
				</image>
			</g>
		</g>
	</g>
	<text transform="matrix(1 0 0 1 3031.4817 -2047.657)" fill="#FFFFFF" font-family="'OpenSans-Extrabold'" font-size="34.9789">VANCOUVER</text>
</g>
<g>
	<g>
		<g>
			<defs>
				<path id="SVGID_11_" d="M3650.488-1782.311c0,0.354-0.287,0.642-0.642,0.642H3337.13c-0.354,0-0.642-0.287-0.642-0.642v-312.716
					c0-0.354,0.287-0.642,0.642-0.642h312.716c0.354,0,0.642,0.287,0.642,0.642V-1782.311z"/>
			</defs>
			<clipPath id="SVGID_12_">
				<use xlink:href="#SVGID_11_"  overflow="visible"/>
			</clipPath>
			<g clip-path="url(#SVGID_12_)">
				
					<image overflow="visible" enable-background="new    " width="1926" height="1086" xlink:href="614932AD.jpeg"  transform="matrix(0.3033 0 0 0.3025 3287.4875 -2102.0767)">
				</image>
			</g>
		</g>
	</g>
	<text transform="matrix(1 0 0 1 3466.3669 -2052.7427)" fill="#FFFFFF" font-family="'OpenSans-Extrabold'" font-size="34.9789">LONDON</text>
</g>
<text transform="matrix(1 0 0 1 1867.5876 -2232.0981)" fill="#2B3E50" font-family="'OpenSans-Bold'" font-size="18.4417">Choose a location and launch the demo app</text>
<path fill="#FFFFFF" d="M4234.488-2283.669c-23.748,0-43,19.252-43,43s19.252,43,43,43s43-19.252,43-43
	S4258.236-2283.669,4234.488-2283.669z M4227.155-2217.373l-18.478-14.782l5.622-7.028l11.522,9.218l26.182-32.05l6.97,5.693
	L4227.155-2217.373z"/>
<g>
	<polygon fill="#FFFFFF" points="4015.821,-1658.965 4004.299,-1668.183 3998.677,-1661.155 4017.155,-1646.373 4048.973,-1685.322 
		4042.003,-1691.016 	"/>
	<path fill="#FFFFFF" d="M3819.488-1874.669v410h410v-410H3819.488z M4024.488-1626.669c-23.748,0-43-19.252-43-43s19.252-43,43-43
		s43,19.252,43,43C4067.488-1645.921,4048.236-1626.669,4024.488-1626.669z"/>
</g>
<path opacity="0.9" fill="#FFFFFF" enable-background="new    " d="M2641.427-1855.657c-12.598,0-22.811,10.213-22.811,22.811
	s10.213,22.811,22.811,22.811c12.598,0,22.811-10.213,22.811-22.811S2654.025-1855.657,2641.427-1855.657z M2637.537-1820.488
	l-9.802-7.842l2.982-3.728l6.112,4.89l13.889-17.002l3.698,3.02L2637.537-1820.488z"/>
<text transform="matrix(1 0 0 1 2573.2087 -1450.6013)" fill="#FFFFFF" font-family="'OpenSans-Semibold'" font-size="43.8593">WHY ROUTE 360°?</text>
<g>
	<g>
		<text transform="matrix(1 0 0 1 2276.895 -1165.0515)" fill="#FFFFFF" font-family="'OpenSans-Semibold'" font-size="34.78">USP1</text>
		<rect x="2127.247" y="-1138.673" fill="none" width="385.481" height="307.485"/>
		<text transform="matrix(1 0 0 1 2127.2473 -1123.4722)" fill="#FFFFFF" font-family="'OpenSans-Light'" font-size="20">Lorem ipsum dolor sit amet, consetetur </text>
		<text transform="matrix(1 0 0 1 2127.2473 -1099.4722)" fill="#FFFFFF" font-family="'OpenSans-Light'" font-size="20">sadipscing elitr, sed diam nonumy eirmod </text>
		<text transform="matrix(1 0 0 1 2127.2473 -1075.4722)" fill="#FFFFFF" font-family="'OpenSans-Light'" font-size="20">tempor invidunt ut labore et dolore magna </text>
		<text transform="matrix(1 0 0 1 2127.2473 -1051.4722)" fill="#FFFFFF" font-family="'OpenSans-Light'" font-size="20">aliquyam erat, sed diam voluptua. At vero </text>
		<text transform="matrix(1 0 0 1 2127.2473 -1027.4722)" fill="#FFFFFF" font-family="'OpenSans-Light'" font-size="20">eos et accusam et justo duo dolores et ea </text>
		<text transform="matrix(1 0 0 1 2127.2473 -1003.4722)" fill="#FFFFFF" font-family="'OpenSans-Light'" font-size="20">rebum. Stet clita kasd gubergren, amet</text>
		<circle fill="#FFFFFF" cx="2319.988" cy="-1284.352" r="66.747"/>
	</g>
	<g>
		<text transform="matrix(1 0 0 1 2707.395 -1169.0515)" fill="#FFFFFF" font-family="'OpenSans-Semibold'" font-size="34.78">USP2</text>
		<rect x="2557.747" y="-1142.673" fill="none" width="385.481" height="307.485"/>
		<text transform="matrix(1 0 0 1 2557.7473 -1127.4722)" fill="#FFFFFF" font-family="'OpenSans-Light'" font-size="20">Lorem ipsum dolor sit amet, consetetur </text>
		<text transform="matrix(1 0 0 1 2557.7473 -1103.4722)" fill="#FFFFFF" font-family="'OpenSans-Light'" font-size="20">sadipscing elitr, sed diam nonumy eirmod </text>
		<text transform="matrix(1 0 0 1 2557.7473 -1079.4722)" fill="#FFFFFF" font-family="'OpenSans-Light'" font-size="20">tempor invidunt ut labore et dolore magna </text>
		<text transform="matrix(1 0 0 1 2557.7473 -1055.4722)" fill="#FFFFFF" font-family="'OpenSans-Light'" font-size="20">aliquyam erat, sed diam voluptua. At vero </text>
		<text transform="matrix(1 0 0 1 2557.7473 -1031.4722)" fill="#FFFFFF" font-family="'OpenSans-Light'" font-size="20">eos et accusam et justo duo dolores et ea </text>
		<text transform="matrix(1 0 0 1 2557.7473 -1007.4722)" fill="#FFFFFF" font-family="'OpenSans-Light'" font-size="20">rebum. Stet clita kasd gubergren, amet</text>
		<circle fill="#FFFFFF" cx="2750.488" cy="-1288.352" r="66.747"/>
	</g>
	<g>
		<text transform="matrix(1 0 0 1 3137.895 -1170.0515)" fill="#FFFFFF" font-family="'OpenSans-Semibold'" font-size="34.78">USP3</text>
		<rect x="2988.247" y="-1143.673" fill="none" width="385.481" height="307.485"/>
		<text transform="matrix(1 0 0 1 2988.2473 -1128.4722)" fill="#FFFFFF" font-family="'OpenSans-Light'" font-size="20">Lorem ipsum dolor sit amet, consetetur </text>
		<text transform="matrix(1 0 0 1 2988.2473 -1104.4722)" fill="#FFFFFF" font-family="'OpenSans-Light'" font-size="20">sadipscing elitr, sed diam nonumy eirmod </text>
		<text transform="matrix(1 0 0 1 2988.2473 -1080.4722)" fill="#FFFFFF" font-family="'OpenSans-Light'" font-size="20">tempor invidunt ut labore et dolore magna </text>
		<text transform="matrix(1 0 0 1 2988.2473 -1056.4722)" fill="#FFFFFF" font-family="'OpenSans-Light'" font-size="20">aliquyam erat, sed diam voluptua. At vero </text>
		<text transform="matrix(1 0 0 1 2988.2473 -1032.4722)" fill="#FFFFFF" font-family="'OpenSans-Light'" font-size="20">eos et accusam et justo duo dolores et ea </text>
		<text transform="matrix(1 0 0 1 2988.2473 -1008.4722)" fill="#FFFFFF" font-family="'OpenSans-Light'" font-size="20">rebum. Stet clita kasd gubergren, amet</text>
		<circle fill="#FFFFFF" cx="3180.988" cy="-1289.352" r="66.747"/>
	</g>
</g>
<line fill="none" stroke="#FFFFFF" stroke-width="4" stroke-miterlimit="10" x1="2632.488" y1="-1410.669" x2="2867.488" y2="-1410.669"/>
<g>
	
		<image overflow="visible" opacity="0.75" enable-background="new    " width="1960" height="1145" xlink:href="614932AF.png"  transform="matrix(1 0 0 1 1779.4878 -787.6689)">
	</image>
	<g>
		<rect x="1794.488" y="-775.669" fill="#2B3E50" width="1930" height="1114"/>
	</g>
</g>
<g>
	<path fill="#FFFFFF" d="M3607.514-655.382c0,1.53,0.031,3.003-0.012,4.474c-0.025,0.821-0.851,1.228-1.759,0.922
		c-1.58-0.533-3.097-1.211-4.517-2.086c-5.999-3.697-9.856-8.964-11.016-15.927c-1.437-8.626,1.272-15.916,7.834-21.7
		c3.367-2.968,7.358-4.693,11.792-5.371c11.645-1.78,22.866,5.331,26.132,16.624c3.159,10.923-2.012,22.323-12.25,27.322
		c-0.875,0.427-1.798,0.758-2.705,1.118c-0.183,0.073-0.395,0.099-0.594,0.103c-0.788,0.015-1.231-0.423-1.229-1.216
		c0.004-2.083,0.013-4.166,0.023-6.25c0.004-0.947-0.081-1.887-0.484-2.753c-0.264-0.567-0.629-1.087-0.944-1.619
		c0.735-0.131,1.542-0.256,2.34-0.424c1.209-0.254,2.368-0.658,3.453-1.261c1.738-0.965,3.031-2.347,3.772-4.191
		c1.064-2.648,1.333-5.383,0.671-8.173c-0.31-1.305-0.974-2.447-1.855-3.456c-0.145-0.166-0.206-0.297-0.127-0.535
		c0.635-1.916,0.443-3.805-0.252-5.662c-0.047-0.127-0.274-0.255-0.424-0.264c-0.865-0.052-1.708,0.135-2.478,0.497
		c-1.145,0.537-2.245,1.17-3.373,1.746c-0.161,0.082-0.384,0.14-0.55,0.099c-3.733-0.924-7.461-0.931-11.195-0.004
		c-0.177,0.044-0.425-0.008-0.583-0.107c-1.447-0.905-2.92-1.751-4.612-2.111c-0.418-0.089-0.855-0.113-1.283-0.115
		c-0.13-0.001-0.333,0.146-0.379,0.27c-0.692,1.873-0.869,3.771-0.244,5.705c0.037,0.115,0.008,0.309-0.07,0.396
		c-1.978,2.232-2.47,4.879-2.194,7.747c0.136,1.41,0.41,2.786,0.99,4.087c1.172,2.628,3.251,4.207,5.946,5.004
		c1.101,0.326,2.253,0.481,3.381,0.713c0.072,0.015,0.145,0.025,0.232,0.04c-0.014,0.054-0.012,0.096-0.032,0.117
		c-0.738,0.754-1.121,1.683-1.304,2.7c-0.043,0.238-0.141,0.343-0.354,0.424c-0.754,0.287-1.527,0.472-2.336,0.478
		c-1.838,0.014-3.166-0.863-4.108-2.385c-0.49-0.79-1.081-1.475-1.881-1.958c-0.665-0.401-1.376-0.651-2.169-0.572
		c-0.137,0.014-0.278,0.04-0.407,0.087c-0.352,0.128-0.424,0.351-0.176,0.639c0.188,0.219,0.407,0.43,0.652,0.577
		c1.258,0.753,2.056,1.885,2.591,3.201c0.848,2.086,2.479,3.018,4.606,3.284C3605.182-655.002,3606.31-655.157,3607.514-655.382z"/>
</g>
<text transform="matrix(1 0 0 1 2181.551 -372.3094)" fill="#FFFFFF" font-family="'OpenSans-Light'" font-size="52.2534">Route 360° is available for the following locations</text>
<g>
	<rect x="1794.488" y="-290.669" fill="#2B3E50" width="1920" height="437"/>
	<g>
		<g>
			<g>
				<defs>
					<path id="SVGID_13_" d="M2174.488,86.689c0,0.355-0.287,0.642-0.642,0.642H1861.13c-0.354,0-0.642-0.287-0.642-0.642v-312.716
						c0-0.355,0.287-0.642,0.642-0.642h312.716c0.354,0,0.642,0.287,0.642,0.642V86.689z"/>
				</defs>
				<clipPath id="SVGID_14_">
					<use xlink:href="#SVGID_13_"  overflow="visible"/>
				</clipPath>
				<g clip-path="url(#SVGID_14_)">
					
						<image overflow="visible" enable-background="new    " width="2563" height="1608" xlink:href="614932AD.jpeg"  transform="matrix(0.1978 0 0 0.197 1764.5518 -227.4081)">
					</image>
				</g>
			</g>
		</g>
		<text transform="matrix(1 0 0 1 2048.5986 -178.6037)" fill="#FFFFFF" font-family="'OpenSans-Extrabold'" font-size="34.9789">PARIS</text>
	</g>
	<g>
		<g>
			<g>
				<defs>
					<path id="SVGID_15_" d="M2544.488,86.689c0,0.355-0.287,0.642-0.642,0.642H2231.13c-0.354,0-0.642-0.287-0.642-0.642v-312.716
						c0-0.355,0.287-0.642,0.642-0.642h312.716c0.354,0,0.642,0.287,0.642,0.642V86.689z"/>
				</defs>
				<clipPath id="SVGID_16_">
					<use xlink:href="#SVGID_15_"  overflow="visible"/>
				</clipPath>
				<g transform="matrix(1 0 0 1 1.220703e-004 0)" clip-path="url(#SVGID_16_)">
					
						<image overflow="visible" enable-background="new    " width="1957" height="770" xlink:href="614932A3.jpeg"  transform="matrix(0.4668 0 0 0.4661 1936.3954 -261.0719)">
					</image>
				</g>
			</g>
		</g>
		<text transform="matrix(1 0 0 1 2427.1394 -183.6894)" fill="#FFFFFF" font-family="'OpenSans-Extrabold'" font-size="34.9789">OSLO</text>
	</g>
	<g>
		<g>
			<g>
				<defs>
					<path id="SVGID_17_" d="M2914.488,86.689c0,0.355-0.287,0.642-0.642,0.642H2601.13c-0.354,0-0.642-0.287-0.642-0.642v-312.716
						c0-0.355,0.287-0.642,0.642-0.642h312.716c0.354,0,0.642,0.287,0.642,0.642V86.689z"/>
				</defs>
				<clipPath id="SVGID_18_">
					<use xlink:href="#SVGID_17_"  overflow="visible"/>
				</clipPath>
				<g clip-path="url(#SVGID_18_)">
					
						<image overflow="visible" enable-background="new    " width="1914" height="1077" xlink:href="614932A5.jpeg"  transform="matrix(0.6101 0 0 0.6099 2074.5771 -297.6165)">
					</image>
				</g>
			</g>
			<g>
				<defs>
					<path id="SVGID_19_" d="M2914.488,86.689c0,0.355-0.287,0.642-0.642,0.642H2601.13c-0.354,0-0.642-0.287-0.642-0.642v-312.716
						c0-0.355,0.287-0.642,0.642-0.642h312.716c0.354,0,0.642,0.287,0.642,0.642V86.689z"/>
				</defs>
				<clipPath id="SVGID_20_">
					<use xlink:href="#SVGID_19_"  overflow="visible"/>
				</clipPath>
				
					<rect x="2570.488" y="-268.669" opacity="0.3" clip-path="url(#SVGID_20_)" fill="#FFFFFF" enable-background="new    " width="368" height="367"/>
			</g>
		</g>
		<text transform="matrix(1 0 0 1 2766.8848 -183.6898)" fill="#FFFFFF" font-family="'OpenSans-Extrabold'" font-size="34.9789">BERLIN</text>
		<path fill="none" stroke="#FFFFFF" stroke-width="9" stroke-miterlimit="10" d="M2714.988-31.116"/>
		<path fill="none" stroke="#FFFFFF" stroke-width="9" stroke-miterlimit="10" d="M2689.488-56.616"/>
		<path fill="none" stroke="#FFFFFF" stroke-width="9" stroke-miterlimit="10" d="M2754.488-77.116"/>
		<path fill="none" stroke="#FFFFFF" stroke-width="9" stroke-miterlimit="10" d="M2708.488-31.116"/>
	</g>
	<g>
		<g>
			<g>
				<defs>
					<path id="SVGID_21_" d="M3284.488,86.689c0,0.355-0.287,0.642-0.642,0.642H2971.13c-0.354,0-0.642-0.287-0.642-0.642v-312.716
						c0-0.355,0.287-0.642,0.642-0.642h312.716c0.354,0,0.642,0.287,0.642,0.642V86.689z"/>
				</defs>
				<clipPath id="SVGID_22_">
					<use xlink:href="#SVGID_21_"  overflow="visible"/>
				</clipPath>
				<g clip-path="url(#SVGID_22_)">
					
						<image overflow="visible" enable-background="new    " width="2004" height="1002" xlink:href="F9451EE.jpeg"  transform="matrix(0.3331 0 0 0.3331 2770.5256 -236.4963)">
					</image>
				</g>
			</g>
		</g>
		<text transform="matrix(1 0 0 1 3035.4819 -178.6037)" fill="#FFFFFF" font-family="'OpenSans-Extrabold'" font-size="34.9789">VANCOUVER</text>
	</g>
	<g>
		<g>
			<g>
				<defs>
					<path id="SVGID_23_" d="M3654.488,86.689c0,0.355-0.287,0.642-0.642,0.642H3341.13c-0.354,0-0.642-0.287-0.642-0.642v-312.716
						c0-0.355,0.287-0.642,0.642-0.642h312.716c0.354,0,0.642,0.287,0.642,0.642V86.689z"/>
				</defs>
				<clipPath id="SVGID_24_">
					<use xlink:href="#SVGID_23_"  overflow="visible"/>
				</clipPath>
				<g clip-path="url(#SVGID_24_)">
					
						<image overflow="visible" enable-background="new    " width="1926" height="1086" xlink:href="F9451EE.jpeg"  transform="matrix(0.3033 0 0 0.3025 3291.4875 -233.0237)">
					</image>
				</g>
			</g>
		</g>
		<text transform="matrix(1 0 0 1 3470.3672 -183.6894)" fill="#FFFFFF" font-family="'OpenSans-Extrabold'" font-size="34.9789">LONDON</text>
	</g>
</g>
<text transform="matrix(1 0 0 1 2496.8391 -338.4227)" fill="#FFFFFF" font-family="'OpenSans-Semibold'" font-size="24.3911">Choose a location and launch the demo app</text>
<path opacity="0.9" fill="#FFFFFF" enable-background="new    " d="M2643.488,4.884c-12.598,0-22.811,10.213-22.811,22.811
	s10.213,22.811,22.811,22.811c12.598,0,22.811-10.213,22.811-22.811S2656.086,4.884,2643.488,4.884z M2639.598,40.053l-9.802-7.842
	l2.982-3.728l6.112,4.89l13.889-17.002l3.697,3.02L2639.598,40.053z"/>
<text transform="matrix(1 0 0 1 2577.209 452.4516)" fill="#2B3E50" font-family="'OpenSans-Semibold'" font-size="43.8593">WHY ROUTE 360°?</text>
<g>
	<g>
		<text transform="matrix(1 0 0 1 2280.895 738.0013)" fill="#2B3E50" font-family="'OpenSans-Semibold'" font-size="34.78">USP1</text>
		<rect x="2131.247" y="764.38" fill="none" width="385.481" height="307.485"/>
		<text transform="matrix(1 0 0 1 2131.2473 779.5807)" fill="#2B3E50" font-family="'OpenSans-Light'" font-size="20">Lorem ipsum dolor sit amet, consetetur </text>
		<text transform="matrix(1 0 0 1 2131.2473 803.5807)" fill="#2B3E50" font-family="'OpenSans-Light'" font-size="20">sadipscing elitr, sed diam nonumy eirmod </text>
		<text transform="matrix(1 0 0 1 2131.2473 827.5807)" fill="#2B3E50" font-family="'OpenSans-Light'" font-size="20">tempor invidunt ut labore et dolore magna </text>
		<text transform="matrix(1 0 0 1 2131.2473 851.5807)" fill="#2B3E50" font-family="'OpenSans-Light'" font-size="20">aliquyam erat, sed diam voluptua. At vero </text>
		<text transform="matrix(1 0 0 1 2131.2473 875.5807)" fill="#2B3E50" font-family="'OpenSans-Light'" font-size="20">eos et accusam et justo duo dolores et ea </text>
		<text transform="matrix(1 0 0 1 2131.2473 899.5807)" fill="#2B3E50" font-family="'OpenSans-Light'" font-size="20">rebum. Stet clita kasd gubergren, amet</text>
		<circle fill="#2B3E50" cx="2323.988" cy="618.701" r="66.747"/>
	</g>
	<g>
		<text transform="matrix(1 0 0 1 2711.395 734.0013)" fill="#2B3E50" font-family="'OpenSans-Semibold'" font-size="34.78">USP2</text>
		<rect x="2561.747" y="760.38" fill="none" width="385.481" height="307.485"/>
		<text transform="matrix(1 0 0 1 2561.7473 775.5807)" fill="#2B3E50" font-family="'OpenSans-Light'" font-size="20">Lorem ipsum dolor sit amet, consetetur </text>
		<text transform="matrix(1 0 0 1 2561.7473 799.5807)" fill="#2B3E50" font-family="'OpenSans-Light'" font-size="20">sadipscing elitr, sed diam nonumy eirmod </text>
		<text transform="matrix(1 0 0 1 2561.7473 823.5807)" fill="#2B3E50" font-family="'OpenSans-Light'" font-size="20">tempor invidunt ut labore et dolore magna </text>
		<text transform="matrix(1 0 0 1 2561.7473 847.5807)" fill="#2B3E50" font-family="'OpenSans-Light'" font-size="20">aliquyam erat, sed diam voluptua. At vero </text>
		<text transform="matrix(1 0 0 1 2561.7473 871.5807)" fill="#2B3E50" font-family="'OpenSans-Light'" font-size="20">eos et accusam et justo duo dolores et ea </text>
		<text transform="matrix(1 0 0 1 2561.7473 895.5807)" fill="#2B3E50" font-family="'OpenSans-Light'" font-size="20">rebum. Stet clita kasd gubergren, amet</text>
		<circle fill="#2B3E50" cx="2754.488" cy="614.701" r="66.747"/>
	</g>
	<g>
		<text transform="matrix(1 0 0 1 3141.895 733.0013)" fill="#2B3E50" font-family="'OpenSans-Semibold'" font-size="34.78">USP3</text>
		<rect x="2992.247" y="759.38" fill="none" width="385.481" height="307.485"/>
		<text transform="matrix(1 0 0 1 2992.2476 774.5807)" fill="#2B3E50" font-family="'OpenSans-Light'" font-size="20">Lorem ipsum dolor sit amet, consetetur </text>
		<text transform="matrix(1 0 0 1 2992.2476 798.5807)" fill="#2B3E50" font-family="'OpenSans-Light'" font-size="20">sadipscing elitr, sed diam nonumy eirmod </text>
		<text transform="matrix(1 0 0 1 2992.2476 822.5807)" fill="#2B3E50" font-family="'OpenSans-Light'" font-size="20">tempor invidunt ut labore et dolore magna </text>
		<text transform="matrix(1 0 0 1 2992.2476 846.5807)" fill="#2B3E50" font-family="'OpenSans-Light'" font-size="20">aliquyam erat, sed diam voluptua. At vero </text>
		<text transform="matrix(1 0 0 1 2992.2476 870.5807)" fill="#2B3E50" font-family="'OpenSans-Light'" font-size="20">eos et accusam et justo duo dolores et ea </text>
		<text transform="matrix(1 0 0 1 2992.2476 894.5807)" fill="#2B3E50" font-family="'OpenSans-Light'" font-size="20">rebum. Stet clita kasd gubergren, amet</text>
		<circle fill="#2B3E50" cx="3184.988" cy="613.701" r="66.747"/>
	</g>
</g>
<line fill="none" stroke="#2B3E50" stroke-width="6" stroke-miterlimit="10" x1="2636.488" y1="495.331" x2="2871.488" y2="495.331"/>
<rect x="1325.488" y="-2733.669" fill="#FFFFFF" width="368" height="367"/>
<g>
	<path fill="none" stroke="#FFFFFF" stroke-width="2" stroke-miterlimit="10" d="M2865.488,255.281c0,1.132-0.918,2.05-2.05,2.05
		h-217.9c-1.132,0-2.05-0.918-2.05-2.05v-59.9c0-1.132,0.918-2.05,2.05-2.05h217.9c1.132,0,2.05,0.918,2.05,2.05V255.281z"/>
	<text transform="matrix(1 0 0 1 2668.947 236.3481)" fill="#FFFFFF" font-family="'OpenSans-Bold'" font-size="26.6137">LAUNCH APP</text>
</g>
<g>
	<path fill="#FFFFFF" d="M6405.259-1393.437c0,1.53,0.032,3.003-0.013,4.474c-0.024,0.821-0.85,1.228-1.758,0.922
		c-1.58-0.533-3.097-1.211-4.517-2.086c-6-3.697-9.856-8.964-11.016-15.927c-1.437-8.626,1.272-15.917,7.834-21.7
		c3.367-2.968,7.358-4.693,11.792-5.371c11.646-1.78,22.867,5.331,26.132,16.624c3.159,10.923-2.012,22.323-12.25,27.322
		c-0.875,0.427-1.798,0.758-2.705,1.118c-0.184,0.073-0.395,0.099-0.594,0.103c-0.788,0.015-1.23-0.423-1.229-1.216
		c0.003-2.083,0.013-4.166,0.022-6.25c0.004-0.948-0.081-1.887-0.484-2.753c-0.264-0.567-0.629-1.086-0.943-1.619
		c0.734-0.131,1.542-0.256,2.34-0.423c1.209-0.254,2.368-0.658,3.454-1.261c1.738-0.965,3.031-2.347,3.772-4.191
		c1.064-2.648,1.333-5.383,0.671-8.173c-0.31-1.305-0.974-2.447-1.855-3.456c-0.145-0.166-0.207-0.297-0.127-0.535
		c0.635-1.916,0.442-3.805-0.252-5.662c-0.048-0.127-0.274-0.255-0.425-0.264c-0.865-0.052-1.708,0.135-2.478,0.497
		c-1.146,0.537-2.246,1.17-3.373,1.746c-0.161,0.082-0.384,0.14-0.55,0.099c-3.733-0.925-7.461-0.931-11.195-0.004
		c-0.177,0.044-0.425-0.008-0.583-0.107c-1.447-0.905-2.92-1.751-4.612-2.111c-0.418-0.089-0.854-0.113-1.283-0.115
		c-0.129-0.001-0.333,0.146-0.379,0.27c-0.693,1.873-0.87,3.771-0.244,5.705c0.038,0.115,0.008,0.309-0.069,0.396
		c-1.978,2.232-2.47,4.879-2.194,7.747c0.136,1.41,0.411,2.786,0.99,4.087c1.171,2.628,3.25,4.207,5.946,5.004
		c1.101,0.326,2.252,0.481,3.381,0.713c0.072,0.015,0.145,0.025,0.232,0.04c-0.014,0.054-0.012,0.097-0.032,0.117
		c-0.738,0.754-1.121,1.683-1.304,2.7c-0.043,0.238-0.141,0.343-0.354,0.424c-0.754,0.287-1.527,0.472-2.336,0.478
		c-1.837,0.014-3.166-0.863-4.108-2.385c-0.489-0.79-1.081-1.475-1.881-1.958c-0.665-0.401-1.376-0.651-2.169-0.571
		c-0.138,0.014-0.278,0.04-0.407,0.087c-0.352,0.128-0.424,0.352-0.176,0.64c0.188,0.219,0.407,0.43,0.652,0.577
		c1.257,0.753,2.056,1.885,2.59,3.201c0.848,2.086,2.479,3.018,4.606,3.284C6402.926-1393.057,6404.055-1393.212,6405.259-1393.437z
		"/>
</g>
<image overflow="visible" enable-background="new    " width="1910" height="976" xlink:href="F9451EA.jpeg"  transform="matrix(1.1078 0 0 1.1065 4566.5693 -1066.6426)">
</image>
<g>
	<text transform="matrix(1 0 0 1 4873.4087 -996.0109)" fill="#1A1A1A" font-family="'OpenSans'" font-size="36.8489">ROUTE</text>
	<text transform="matrix(1 0 0 1 4992.5918 -996.0109)" fill="#1A1A1A" font-family="'OpenSans-Light'" font-size="36.8489"> </text>
	<text transform="matrix(1 0 0 1 5002.1636 -996.0109)" fill="#1A1A1A" font-family="'OpenSans-Bold'" font-size="36.8489">360°</text>
	<path fill="#56BA64" d="M4833.8-1009.981c-0.995-0.961-1.085-1.526-0.039-2.536c3.621-3.496,7.186-7.052,10.682-10.672
		c2.145-2.221,2.753-4.913,1.616-7.837c-1.037-2.666-2.921-4.385-5.875-4.718c-0.798-0.343-1.596-0.341-2.393,0.002l0,0
		c-1.864,0.119-3.269,1.119-4.531,2.377c-3.433,3.423-6.89,6.824-10.266,10.302c-0.897,0.924-1.419,0.876-2.291-0.02
		c-3.38-3.474-6.828-6.884-10.271-10.298c-1.256-1.246-2.635-2.31-4.526-2.363c-0.797-0.347-1.595-0.339-2.392,0.002l0,0
		c-3.24,0.494-5.508,2.651-6.087,5.789c-0.428,1.014-0.427,2.03-0.014,3.047c0.156,1.668,1.051,2.943,2.188,4.082
		c3.427,3.434,6.827,6.898,10.313,10.272c0.988,0.956,1.089,1.525,0.042,2.533c-3.454,3.325-6.813,6.749-10.192,10.153
		c-1.163,1.171-2.186,2.443-2.337,4.189c-0.427,1.014-0.426,2.03-0.013,3.047c0.489,2.914,2.26,4.746,4.97,5.679
		c2.904,1,5.5,0.274,7.652-1.823c3.604-3.513,7.161-7.076,10.672-10.682c0.873-0.897,1.378-0.952,2.281-0.021
		c3.384,3.493,6.844,6.913,10.299,10.336c3.378,3.346,7.904,3.484,11.033,0.375c3.142-3.122,3.028-7.675-0.307-11.038
		C4840.631-1003.215,4837.255-1006.64,4833.8-1009.981z M4827.313-1009.045c-1.19,2.704-2.829,5.143-4.627,7.475
		c-0.383,0.496-0.771,1.11-1.421,0.263c-2.243-2.92-4.423-5.823-5.479-9.412c-1.254-4.26,0.334-7.188,4.781-9.225l0,0
		c0.856,0,1.713-0.07,2.57-0.071C4828.157-1017.728,4829.555-1014.138,4827.313-1009.045z"/>
</g>
<circle fill="#56BA64" cx="6595.878" cy="-997.553" r="34.498"/>
<g>
	
		<line fill="none" stroke="#FFFFFF" stroke-width="2" stroke-miterlimit="10" x1="6582.488" y1="-1004.669" x2="6608.488" y2="-1004.669"/>
	
		<line fill="none" stroke="#FFFFFF" stroke-width="2" stroke-miterlimit="10" x1="6582.488" y1="-997.669" x2="6608.488" y2="-997.669"/>
	
		<line fill="none" stroke="#FFFFFF" stroke-width="2" stroke-miterlimit="10" x1="6582.488" y1="-990.669" x2="6608.488" y2="-990.669"/>
</g>
<g>
	<g>
		<text transform="matrix(1 0 0 1 2611.937 -546.1265)" fill="#FFFFFF" font-family="'OpenSans'" font-size="74.9429">ROUTE</text>
		<text transform="matrix(1 0 0 1 2854.3311 -546.1265)" fill="#FFFFFF" font-family="'OpenSans-Light'" font-size="74.9429"> </text>
		<text transform="matrix(1 0 0 1 2873.7981 -546.1265)" fill="#FFFFFF" font-family="'OpenSans-Bold'" font-size="74.9429">360°</text>
	</g>
	<path fill="#56BA64" d="M2516.096-555.259c0,0,13.319-15.591,13.319-25.989c0-7.382-6.125-13.998-13.319-13.998
		c-7.191,0-13.313,6.615-13.313,13.998C2502.784-570.85,2516.096-555.259,2516.096-555.259 M2562.022-553.089
		c0.019,0.023,0.041,0.038,0.062,0.056c6.042,6.043,6.042,15.838,0,21.887c-6.042,6.042-15.844,6.042-21.883-0.004
		c-0.004,0-0.004,0-0.004,0h-0.003l-24.093-24.094l-24.033,24.03c-0.019,0.023-0.033,0.045-0.058,0.068
		c-6.042,6.042-15.839,6.042-21.881,0s-6.042-15.841-0.004-21.883l24.093-24.098l-24.093-24.094v-0.003
		c-6.039-6.042-6.039-15.834,0.004-21.876c6.042-6.042,15.839-6.042,21.881,0c0.021,0.019,0.039,0.038,0.058,0.056l24.033,24.035
		l24.093-24.091l0.003,0.004c0-0.004,0-0.004,0.004-0.004c6.042-6.042,15.841-6.042,21.883,0s6.042,15.837,0,21.879
		c-0.021,0.022-0.043,0.041-0.062,0.06l-24.04,24.035L2562.022-553.089"/>
</g>
<g>
	<g>
		<g>
			<path fill="#FFFFFF" d="M159.916,59.257v22.249h-6.221V28.007h14.674c6.562,0,11.41,1.257,14.546,3.769
				c3.134,2.514,4.702,6.294,4.702,11.344c0,7.075-3.586,11.856-10.759,14.345l14.527,24.042h-7.354l-12.954-22.249h-11.161V59.257z
				 M159.916,53.915h8.526c4.391,0,7.611-0.872,9.66-2.617c2.05-1.743,3.074-4.36,3.074-7.849c0-3.537-1.043-6.087-3.129-7.648
				c-2.086-1.561-5.435-2.342-10.045-2.342h-8.087L159.916,53.915L159.916,53.915z"/>
			<path fill="#FFFFFF" d="M246.459,54.683c0,8.563-2.165,15.296-6.495,20.2c-4.331,4.903-10.351,7.354-18.059,7.354
				c-7.881,0-13.961-2.408-18.242-7.227s-6.422-11.618-6.422-20.401c0-8.709,2.146-15.46,6.44-20.254
				c4.293-4.794,10.393-7.19,18.297-7.19c7.685,0,13.686,2.439,18.004,7.318C244.3,39.363,246.459,46.097,246.459,54.683z
				 M203.829,54.683c0,7.246,1.542,12.741,4.629,16.485c3.086,3.745,7.568,5.617,13.448,5.617c5.928,0,10.404-1.866,13.43-5.599
				c3.024-3.732,4.537-9.233,4.537-16.504c0-7.196-1.507-12.654-4.52-16.375c-3.013-3.72-7.471-5.58-13.374-5.58
				c-5.929,0-10.436,1.872-13.521,5.616C205.371,42.089,203.829,47.535,203.829,54.683z"/>
			<path fill="#FFFFFF" d="M298.788,28.007v34.617c0,6.099-1.842,10.893-5.525,14.381c-3.684,3.489-8.746,5.232-15.187,5.232
				s-11.423-1.756-14.948-5.269c-3.525-3.514-5.287-8.344-5.287-14.491v-34.47h6.221v34.91c0,4.464,1.22,7.892,3.659,10.282
				c2.439,2.392,6.025,3.586,10.759,3.586c4.513,0,7.989-1.201,10.429-3.604c2.439-2.402,3.659-5.849,3.659-10.337V28.007H298.788z"
				/>
			<path fill="#FFFFFF" d="M329.416,81.506h-6.221V33.532h-16.943v-5.525h40.106v5.525h-16.942V81.506z"/>
			<path fill="#FFFFFF" d="M384.233,81.506H354.41V28.007h29.823v5.525H360.63v17.235h22.176v5.489H360.63v19.687h23.603V81.506z"/>
			<path fill="#FFFFFF" d="M446.515,39.973c0,3.343-1.013,6.185-3.038,8.526c-2.024,2.342-4.866,3.952-8.525,4.83v0.22
				c4.317,0.537,7.586,1.848,9.807,3.934c2.22,2.086,3.33,4.897,3.33,8.435c0,5.147-1.866,9.154-5.599,12.021
				c-3.732,2.866-9.063,4.299-15.991,4.299c-5.807,0-10.954-0.963-15.442-2.891v-9.624c2.073,1.05,4.354,1.903,6.843,2.562
				c2.488,0.659,4.952,0.988,7.392,0.988c3.732,0,6.489-0.634,8.271-1.903c1.78-1.268,2.671-3.305,2.671-6.11
				c0-2.513-1.024-4.294-3.073-5.343c-2.05-1.049-5.319-1.573-9.808-1.573h-4.062V49.67h4.135c4.147,0,7.178-0.543,9.094-1.629
				c1.915-1.085,2.872-2.945,2.872-5.58c0-4.049-2.537-6.074-7.611-6.074c-1.756,0-3.544,0.292-5.36,0.878
				c-1.818,0.586-3.837,1.598-6.057,3.037l-5.232-7.794c4.879-3.514,10.697-5.27,17.455-5.27c5.537,0,9.91,1.122,13.118,3.366
				C444.911,32.85,446.515,35.972,446.515,39.973z"/>
			<path fill="#FFFFFF" d="M453.614,58.781c0-10.587,2.238-18.467,6.715-23.639s11.179-7.758,20.108-7.758
				c3.049,0,5.439,0.183,7.172,0.549v9.038c-2.172-0.487-4.318-0.731-6.44-0.731c-3.879,0-7.044,0.585-9.496,1.756
				c-2.451,1.172-4.288,2.904-5.507,5.196c-1.221,2.294-1.939,5.551-2.159,9.771h0.476c2.415-4.146,6.281-6.221,11.6-6.221
				c4.781,0,8.526,1.5,11.234,4.501s4.062,7.148,4.062,12.441c0,5.709-1.609,10.229-4.83,13.559
				c-3.22,3.329-7.685,4.994-13.393,4.994c-3.952,0-7.398-0.914-10.338-2.744s-5.209-4.501-6.807-8.014
				S453.614,63.734,453.614,58.781z M472.935,73.199c2.415,0,4.269-0.811,5.563-2.434c1.292-1.622,1.939-3.934,1.939-6.935
				c0-2.609-0.604-4.665-1.812-6.166c-1.208-1.5-3.032-2.25-5.471-2.25c-2.294,0-4.251,0.744-5.873,2.232
				c-1.623,1.488-2.434,3.22-2.434,5.196c0,2.903,0.762,5.354,2.287,7.354C468.66,72.199,470.593,73.199,472.935,73.199z"/>
			<path fill="#FFFFFF" d="M533.863,54.756c0,9.344-1.531,16.261-4.593,20.749s-7.776,6.732-14.144,6.732
				c-6.172,0-10.825-2.317-13.96-6.952s-4.702-11.478-4.702-20.529c0-9.44,1.524-16.399,4.574-20.876
				c3.049-4.477,7.745-6.715,14.088-6.715c6.172,0,10.838,2.342,13.997,7.025C532.283,38.875,533.863,45.73,533.863,54.756z
				 M507.699,54.756c0,6.563,0.566,11.266,1.701,14.107s3.043,4.263,5.727,4.263c2.635,0,4.538-1.439,5.709-4.318
				c1.171-2.878,1.756-7.562,1.756-14.052c0-6.562-0.591-11.276-1.774-14.143s-3.08-4.3-5.69-4.3c-2.659,0-4.561,1.434-5.708,4.3
				C508.271,43.479,507.699,48.194,507.699,54.756z"/>
			<path fill="#FFFFFF" d="M539.9,39.899c0-2.244,0.562-4.342,1.684-6.294c1.122-1.951,2.659-3.5,4.61-4.647
				c1.952-1.146,4.074-1.72,6.367-1.72c2.245,0,4.349,0.562,6.313,1.684s3.514,2.671,4.647,4.646
				c1.135,1.977,1.702,4.087,1.702,6.331c0,2.269-0.567,4.386-1.702,6.349c-1.134,1.964-2.678,3.495-4.629,4.593
				c-1.952,1.098-4.062,1.646-6.331,1.646c-3.537,0-6.531-1.213-8.983-3.641C541.126,46.419,539.9,43.436,539.9,39.899z
				 M546.889,39.899c0,1.562,0.543,2.891,1.629,3.988c1.085,1.099,2.434,1.647,4.043,1.647c1.61,0,2.965-0.562,4.063-1.684
				s1.646-2.439,1.646-3.952c0-1.537-0.555-2.878-1.665-4.025c-1.11-1.146-2.458-1.72-4.044-1.72c-1.561,0-2.896,0.562-4.007,1.684
				S546.889,38.313,546.889,39.899z"/>
		</g>
	</g>
	<path fill="#56BA64" d="M50.5,72.373c0,0,13.318-15.591,13.318-25.989c0-7.382-6.125-13.998-13.318-13.998
		c-7.191,0-13.313,6.615-13.313,13.998C37.187,56.782,50.5,72.373,50.5,72.373 M96.425,74.543c0.019,0.023,0.041,0.038,0.062,0.056
		c6.042,6.043,6.042,15.838,0,21.887c-6.042,6.042-15.845,6.042-21.883-0.004c-0.004,0-0.004,0-0.004,0h-0.003L50.504,72.388
		L26.471,96.419c-0.019,0.023-0.033,0.045-0.058,0.068c-6.042,6.042-15.839,6.042-21.881,0C-1.51,90.444-1.51,80.646,4.528,74.604
		l24.093-24.098L4.528,26.411v-0.003C-1.51,20.365-1.51,10.574,4.532,4.531c6.042-6.042,15.839-6.042,21.881,0
		c0.021,0.019,0.039,0.038,0.058,0.056l24.033,24.035L74.597,4.531L74.6,4.535c0-0.004,0-0.004,0.004-0.004
		c6.042-6.042,15.841-6.042,21.883,0c6.042,6.042,6.042,15.837,0,21.879c-0.021,0.022-0.043,0.041-0.062,0.06l-24.04,24.035
		L96.425,74.543"/>
</g>
</svg>
