<svg xmlns="http://www.w3.org/2000/svg" xmlns:xlink="http://www.w3.org/1999/xlink" width="568.626" height="103.462" viewBox="0 0 568.626 103.462"><path fill="#DAECF2" d="M1790.488-2423.67h1930v1494h-1930zM1795.488-61.67h1930v1494h-1930z"/><path fill="#2B3E50" d="M1790.488-2435.67h1920v75h-1920zM1790.488-2159.67h1920v437h-1920zM1790.488-1531.67h1920v611h-1920z"/><circle fill="#2B3E50" cx="2853.718" cy="-2695.439" r="128.314"/><path fill="#56BA64" d="M2888.884-2691.818c-2.93-2.832-3.196-4.496-.115-7.47 10.666-10.3 21.17-20.777 31.47-31.443 6.32-6.544 8.115-14.476 4.763-23.092-3.056-7.855-8.607-12.92-17.31-13.9-2.35-1.012-4.7-1.004-7.05.006-5.49.35-9.632 3.296-13.35 7.003-10.113 10.086-20.298 20.104-30.245 30.353-2.643 2.723-4.18 2.58-6.748-.058-9.96-10.237-20.115-20.283-30.26-30.34-3.7-3.67-7.76-6.804-13.334-6.962-2.35-1.02-4.7-1-7.047.007-9.547 1.455-16.23 7.81-17.936 17.056-1.26 2.987-1.258 5.98-.04 8.977.458 4.915 3.097 8.672 6.446 12.028 10.097 10.12 20.113 20.323 30.383 30.263 2.91 2.818 3.208 4.495.122 7.465-10.177 9.797-20.074 19.885-30.028 29.912-3.426 3.45-6.44 7.197-6.885 12.342-1.26 2.986-1.255 5.98-.038 8.977 1.443 8.586 6.66 13.983 14.644 16.732 8.555 2.944 16.205.807 22.545-5.37 10.62-10.35 21.1-20.85 31.444-31.473 2.573-2.642 4.06-2.806 6.72-.06 9.97 10.29 20.162 20.367 30.344 30.45 9.954 9.858 23.29 10.267 32.508 1.106 9.256-9.198 8.92-22.61-.904-32.52-9.974-10.058-19.918-20.15-30.1-29.99zm-19.113 2.757c-3.507 7.966-8.332 15.15-13.63 22.022-1.128 1.463-2.273 3.27-4.187.776-6.607-8.604-13.03-17.406-16.143-27.98-3.694-12.55.984-21.426 14.086-27.426 2.524 0 5.048.042 7.57.04 14.794 6.736 18.91 17.56 12.305 32.567z"/><circle fill="#2B3E50" cx="2596.718" cy="-2695.439" r="128.314"/><path fill="#56BA64" d="M2631.884-2691.818c-2.93-2.832-3.196-4.496-.115-7.47 10.666-10.3 21.17-20.777 31.47-31.443 6.32-6.544 8.115-14.476 4.763-23.092-3.056-7.855-8.607-12.92-17.31-13.9-2.35-1.012-4.7-1.004-7.05.006-5.49.35-9.632 3.296-13.35 7.003-10.113 10.086-20.298 20.104-30.245 30.353-2.643 2.723-4.18 2.58-6.748-.058-9.96-10.237-20.115-20.283-30.26-30.34-3.7-3.67-7.76-6.804-13.334-6.962-2.35-1.02-4.7-1-7.047.007-9.547 1.455-16.23 7.81-17.936 17.056-1.26 2.987-1.258 5.98-.04 8.977.458 4.915 3.097 8.672 6.446 12.028 10.097 10.12 20.113 20.323 30.383 30.263 2.91 2.818 3.208 4.495.122 7.465-10.177 9.797-20.074 19.885-30.028 29.912-3.426 3.45-6.44 7.197-6.885 12.342-1.26 2.986-1.255 5.98-.038 8.977 1.443 8.586 6.66 13.983 14.644 16.732 8.555 2.944 16.205.807 22.545-5.37 10.62-10.35 21.1-20.85 31.444-31.473 2.573-2.642 4.06-2.806 6.72-.06 9.97 10.29 20.162 20.367 30.344 30.45 9.954 9.858 23.29 10.267 32.508 1.106 9.256-9.198 8.92-22.61-.904-32.52-9.974-10.058-19.918-20.15-30.1-29.99zm-19.113 2.757c-3.507 7.966-8.332 15.15-13.63 22.022-1.128 1.463-2.273 3.27-4.187.776-6.607-8.604-13.03-17.406-16.143-27.98-3.694-12.55.984-21.426 14.086-27.426 2.524 0 5.048.042 7.57.04 14.794 6.736 18.91 17.56 12.305 32.567z"/><text transform="translate(2697.42 -2385.852)" fill="#FFF" font-family="'OpenSans'" font-size="29.78">ROUTE</text><text transform="translate(2793.74 -2385.852)" fill="#FFF" font-family="'OpenSans-Light'" font-size="29.78"></text><text transform="translate(2801.475 -2385.852)" fill="#FFF" font-family="'OpenSans-Bold'" font-size="29.78">360°</text><path fill="#56BA64" d="M2665.408-2397.14c-.804-.778-.877-1.234-.03-2.05 2.925-2.825 5.806-5.7 8.632-8.625 1.734-1.795 2.226-3.97 1.306-6.334-.838-2.154-2.36-3.543-4.748-3.812-.645-.277-1.29-.275-1.934.002-1.506.096-2.642.904-3.662 1.92-2.774 2.768-5.568 5.516-8.296 8.327-.725.747-1.147.708-1.85-.016-2.733-2.807-5.52-5.563-8.3-8.32-1.016-1.008-2.13-1.868-3.66-1.91-.644-.28-1.288-.275-1.932 0-2.618.4-4.45 2.143-4.92 4.68-.345.818-.345 1.64-.01 2.46.125 1.35.85 2.38 1.767 3.3 2.77 2.776 5.518 5.574 8.335 8.3.798.774.88 1.234.033 2.048-2.792 2.688-5.506 5.455-8.237 8.205-.94.947-1.766 1.974-1.887 3.385-.345.82-.344 1.64-.01 2.463.396 2.356 1.827 3.837 4.017 4.59 2.347.81 4.445.223 6.184-1.472 2.913-2.84 5.788-5.72 8.625-8.633.705-.725 1.113-.77 1.842-.017 2.735 2.823 5.53 5.587 8.323 8.353 2.73 2.705 6.388 2.817 8.917.304 2.54-2.523 2.447-6.202-.248-8.92-2.735-2.758-5.463-5.525-8.256-8.225zm-5.242.755c-.962 2.186-2.286 4.156-3.74 6.04-.308.402-.623.898-1.148.214-1.812-2.36-3.574-4.707-4.428-7.607-1.013-3.443.27-5.81 3.864-7.455.692 0 1.384-.057 2.077-.058 4.058 1.848 5.188 4.75 3.376 8.865z"/><path fill="#FFF" d="M3650.058-2384.728c0 1.193.025 2.342-.01 3.49-.02.64-.664.958-1.372.72-1.232-.417-2.416-.945-3.523-1.628-4.68-2.884-7.688-6.992-8.592-12.424-1.12-6.728.993-12.415 6.112-16.926 2.626-2.315 5.74-3.66 9.198-4.19 9.083-1.387 17.836 4.16 20.384 12.968 2.464 8.52-1.57 17.412-9.555 21.312-.683.333-1.403.59-2.11.872-.144.057-.31.078-.464.08-.615.012-.96-.33-.96-.948.004-1.625.01-3.25.02-4.875.002-.74-.064-1.472-.378-2.147-.206-.442-.49-.848-.736-1.263.573-.103 1.203-.2 1.825-.33.944-.198 1.847-.513 2.694-.984 1.357-.754 2.365-1.832 2.943-3.27.83-2.065 1.04-4.2.523-6.375-.24-1.018-.76-1.908-1.447-2.696-.114-.13-.162-.233-.1-.418.495-1.494.345-2.968-.197-4.417-.037-.1-.214-.2-.33-.206-.676-.042-1.333.104-1.934.386-.894.42-1.752.912-2.632 1.362-.125.064-.3.11-.43.077-2.91-.72-5.82-.727-8.73-.003-.14.034-.333-.006-.456-.083-1.13-.707-2.278-1.367-3.598-1.647-.326-.07-.667-.088-1-.09-.102 0-.26.115-.297.212-.54 1.46-.678 2.942-.19 4.45.03.09.006.24-.054.31-1.543 1.74-1.927 3.804-1.71 6.042.105 1.1.32 2.173.77 3.188.915 2.05 2.537 3.282 4.64 3.903.858.254 1.756.375 2.637.556.056.01.113.02.18.03-.01.043-.008.076-.024.092-.575.588-.875 1.313-1.017 2.106-.034.186-.11.268-.277.33-.588.224-1.19.37-1.822.374-1.433.01-2.468-.673-3.204-1.86-.382-.616-.843-1.15-1.467-1.527-.52-.314-1.074-.51-1.693-.447-.107.01-.217.03-.318.068-.275.1-.332.275-.138.5.147.17.317.335.51.45.98.587 1.603 1.47 2.02 2.497.66 1.627 1.934 2.354 3.593 2.56.894.112 1.774-.01 2.713-.185z"/><path fill="none" stroke="#2B3E50" stroke-width="2" stroke-miterlimit="10" d="M2861.488-1594.72c0 1.133-.918 2.05-2.05 2.05h-217.9c-1.132 0-2.05-.917-2.05-2.05v-59.9c0-1.13.918-2.05 2.05-2.05h217.9c1.132 0 2.05.92 2.05 2.05v59.9z"/><text transform="translate(2664.947 -1613.705)" fill="#2B3E50" font-family="'OpenSans-Bold'" font-size="26.614">LAUNCH APP</text><path fill="#2B3E50" d="M1266.488-1027.947c0 1.81-1.468 3.278-3.278 3.278H-333.234c-1.81 0-3.278-1.467-3.278-3.277V-2624.39c0-1.812 1.468-3.28 3.278-3.28H1263.21c1.81 0 3.278 1.47 3.278 3.28v1596.443z"/><text transform="translate(1867.15 -2258.193)" fill="#2B3E50" font-family="'OpenSans-Semibold'" font-size="34.979">Route 360° is available for the following locations</text><defs><path id="a" d="M2170.488-1782.31c0 .353-.287.64-.642.64H1857.13c-.354 0-.642-.286-.642-.64v-312.717c0-.354.287-.642.642-.642h312.716c.354 0 .642.288.642.643v312.716z"/></defs><clipPath id="b"><use xlink:href="#a" overflow="visible"/></clipPath><g clip-path="url(#b)"><image overflow="visible" width="2563" height="1608" xlink:href="614932A5.jpeg" transform="matrix(.1978 0 0 .197 1760.552 -2096.46)"/></g><text transform="translate(2044.6 -2047.657)" fill="#FFF" font-family="'OpenSans-Extrabold'" font-size="34.979">PARIS</text><defs><path id="c" d="M2540.488-1782.31c0 .353-.287.64-.642.64H2227.13c-.354 0-.642-.286-.642-.64v-312.717c0-.354.287-.642.642-.642h312.716c.354 0 .642.288.642.643v312.716z"/></defs><clipPath id="d"><use xlink:href="#c" overflow="visible"/></clipPath><g clip-path="url(#d)"><image overflow="visible" width="1957" height="770" xlink:href="614932A7.jpeg" transform="matrix(.4668 0 0 .466 1932.395 -2130.125)"/></g><text transform="translate(2423.14 -2052.743)" fill="#FFF" font-family="'OpenSans-Extrabold'" font-size="34.979">OSLO</text><defs><path id="e" d="M2910.488-1782.31c0 .353-.287.64-.642.64H2597.13c-.354 0-.642-.286-.642-.64v-312.717c0-.354.287-.642.642-.642h312.716c.354 0 .642.288.642.643v312.716z"/></defs><clipPath id="f"><use xlink:href="#e" overflow="visible"/></clipPath><g clip-path="url(#f)"><image overflow="visible" width="1914" height="1078" xlink:href="614932A5.jpeg" transform="matrix(.61 0 0 .6093 2070.577 -2166.67)"/></g><defs><path id="g" d="M2910.488-1782.31c0 .353-.287.64-.642.64H2597.13c-.354 0-.642-.286-.642-.64v-312.717c0-.354.287-.642.642-.642h312.716c.354 0 .642.288.642.643v312.716z"/></defs><clipPath id="h"><use xlink:href="#g" overflow="visible"/></clipPath><path opacity=".3" clip-path="url(#h)" fill="#FFF" d="M2566.488-2137.67h368v367h-368z"/><text transform="translate(2762.885 -2052.743)" fill="#FFF" font-family="'OpenSans-Extrabold'" font-size="34.979">BERLIN</text><defs><path id="i" d="M3280.488-1782.31c0 .353-.287.64-.642.64H2967.13c-.354 0-.642-.286-.642-.64v-312.717c0-.354.287-.642.642-.642h312.716c.354 0 .642.288.642.643v312.716z"/></defs><clipPath id="j"><use xlink:href="#i" overflow="visible"/></clipPath><g clip-path="url(#j)"><image overflow="visible" width="2004" height="1002" xlink:href="614932A3.jpeg" transform="matrix(.333 0 0 .333 2766.526 -2105.55)"/></g><text transform="translate(3031.482 -2047.657)" fill="#FFF" font-family="'OpenSans-Extrabold'" font-size="34.979">VANCOUVER</text><defs><path id="k" d="M3650.488-1782.31c0 .353-.287.64-.642.64H3337.13c-.354 0-.642-.286-.642-.64v-312.717c0-.354.287-.642.642-.642h312.716c.354 0 .642.288.642.643v312.716z"/></defs><clipPath id="l"><use xlink:href="#k" overflow="visible"/></clipPath><g clip-path="url(#l)"><image overflow="visible" width="1926" height="1086" xlink:href="614932AD.jpeg" transform="matrix(.3033 0 0 .3025 3287.488 -2102.077)"/></g><text transform="translate(3466.367 -2052.743)" fill="#FFF" font-family="'OpenSans-Extrabold'" font-size="34.979">LONDON</text><text transform="translate(1867.588 -2232.098)" fill="#2B3E50" font-family="'OpenSans-Bold'" font-size="18.442">Choose a location and launch the demo app</text><path fill="#FFF" d="M4234.488-2283.67c-23.748 0-43 19.253-43 43s19.252 43 43 43 43-19.25 43-43-19.252-43-43-43zm-7.333 66.297l-18.478-14.782 5.622-7.028 11.52 9.218 26.183-32.05 6.97 5.693-31.818 38.95z"/><g fill="#FFF"><path d="M4015.82-1658.965l-11.52-9.218-5.623 7.028 18.478 14.782 31.818-38.95-6.97-5.693"/><path d="M3819.488-1874.67v410h410v-410h-410zm205 248c-23.748 0-43-19.25-43-43s19.252-43 43-43 43 19.253 43 43c0 23.75-19.252 43-43 43z"/></g><path opacity=".9" fill="#FFF" d="M2641.427-1855.657c-12.598 0-22.81 10.213-22.81 22.81s10.212 22.812 22.81 22.812c12.598 0 22.81-10.213 22.81-22.81s-10.212-22.812-22.81-22.812zm-3.89 35.17l-9.802-7.843 2.982-3.728 6.112 4.89 13.888-17.002 3.698 3.02-16.88 20.662z"/><text transform="translate(2573.21 -1450.6)" fill="#FFF" font-family="'OpenSans-Semibold'" font-size="43.859">WHY ROUTE 360°?</text><g><text transform="translate(2276.895 -1165.052)" fill="#FFF" font-family="'OpenSans-Semibold'" font-size="34.78">USP1</text><path fill="none" d="M2127.247-1138.673h385.48v307.485h-385.48z"/><text transform="translate(2127.247 -1123.472)" fill="#FFF" font-family="'OpenSans-Light'" font-size="20">Lorem ipsum dolor sit amet, consetetur</text><text transform="translate(2127.247 -1099.472)" fill="#FFF" font-family="'OpenSans-Light'" font-size="20">sadipscing elitr, sed diam nonumy eirmod</text><text transform="translate(2127.247 -1075.472)" fill="#FFF" font-family="'OpenSans-Light'" font-size="20">tempor invidunt ut labore et dolore magna</text><text transform="translate(2127.247 -1051.472)" fill="#FFF" font-family="'OpenSans-Light'" font-size="20">aliquyam erat, sed diam voluptua. At vero</text><text transform="translate(2127.247 -1027.472)" fill="#FFF" font-family="'OpenSans-Light'" font-size="20">eos et accusam et justo duo dolores et ea</text><text transform="translate(2127.247 -1003.472)" fill="#FFF" font-family="'OpenSans-Light'" font-size="20">rebum. Stet clita kasd gubergren, amet</text><circle fill="#FFF" cx="2319.988" cy="-1284.352" r="66.747"/><g><text transform="translate(2707.395 -1169.052)" fill="#FFF" font-family="'OpenSans-Semibold'" font-size="34.78">USP2</text><path fill="none" d="M2557.747-1142.673h385.48v307.485h-385.48z"/><text transform="translate(2557.747 -1127.472)" fill="#FFF" font-family="'OpenSans-Light'" font-size="20">Lorem ipsum dolor sit amet, consetetur</text><text transform="translate(2557.747 -1103.472)" fill="#FFF" font-family="'OpenSans-Light'" font-size="20">sadipscing elitr, sed diam nonumy eirmod</text><text transform="translate(2557.747 -1079.472)" fill="#FFF" font-family="'OpenSans-Light'" font-size="20">tempor invidunt ut labore et dolore magna</text><text transform="translate(2557.747 -1055.472)" fill="#FFF" font-family="'OpenSans-Light'" font-size="20">aliquyam erat, sed diam voluptua. At vero</text><text transform="translate(2557.747 -1031.472)" fill="#FFF" font-family="'OpenSans-Light'" font-size="20">eos et accusam et justo duo dolores et ea</text><text transform="translate(2557.747 -1007.472)" fill="#FFF" font-family="'OpenSans-Light'" font-size="20">rebum. Stet clita kasd gubergren, amet</text><circle fill="#FFF" cx="2750.488" cy="-1288.352" r="66.747"/></g><g><text transform="translate(3137.895 -1170.052)" fill="#FFF" font-family="'OpenSans-Semibold'" font-size="34.78">USP3</text><path fill="none" d="M2988.247-1143.673h385.48v307.485h-385.48z"/><text transform="translate(2988.247 -1128.472)" fill="#FFF" font-family="'OpenSans-Light'" font-size="20">Lorem ipsum dolor sit amet, consetetur</text><text transform="translate(2988.247 -1104.472)" fill="#FFF" font-family="'OpenSans-Light'" font-size="20">sadipscing elitr, sed diam nonumy eirmod</text><text transform="translate(2988.247 -1080.472)" fill="#FFF" font-family="'OpenSans-Light'" font-size="20">tempor invidunt ut labore et dolore magna</text><text transform="translate(2988.247 -1056.472)" fill="#FFF" font-family="'OpenSans-Light'" font-size="20">aliquyam erat, sed diam voluptua. At vero</text><text transform="translate(2988.247 -1032.472)" fill="#FFF" font-family="'OpenSans-Light'" font-size="20">eos et accusam et justo duo dolores et ea</text><text transform="translate(2988.247 -1008.472)" fill="#FFF" font-family="'OpenSans-Light'" font-size="20">rebum. Stet clita kasd gubergren, amet</text><circle fill="#FFF" cx="3180.988" cy="-1289.352" r="66.747"/></g></g><path fill="none" stroke="#FFF" stroke-width="4" stroke-miterlimit="10" d="M2632.488-1410.67h235"/><g><image overflow="visible" opacity=".75" width="1960" height="1145" xlink:href="614932AF.png" transform="translate(1779.488 -787.67)"/><path fill="#2B3E50" d="M1794.488-775.67h1930v1114h-1930z"/></g><g><path fill="#FFF" d="M3607.514-655.382c0 1.53.03 3.003-.012 4.474-.025.82-.85 1.228-1.76.922-1.58-.533-3.096-1.21-4.516-2.086-6-3.697-9.856-8.964-11.016-15.927-1.437-8.625 1.272-15.915 7.834-21.7 3.367-2.967 7.358-4.692 11.792-5.37 11.645-1.78 22.866 5.33 26.132 16.624 3.16 10.923-2.012 22.323-12.25 27.322-.875.427-1.798.758-2.705 1.118-.183.073-.395.1-.594.103-.79.015-1.232-.423-1.23-1.216.004-2.082.013-4.165.023-6.25.004-.946-.08-1.886-.484-2.752-.265-.567-.63-1.087-.945-1.62.735-.13 1.542-.255 2.34-.423 1.21-.254 2.368-.658 3.453-1.26 1.738-.966 3.03-2.348 3.772-4.192 1.064-2.648 1.333-5.383.67-8.173-.31-1.305-.973-2.447-1.854-3.456-.145-.166-.206-.297-.127-.535.634-1.917.442-3.806-.253-5.663-.047-.127-.274-.255-.424-.264-.865-.052-1.708.135-2.478.497-1.145.537-2.245 1.17-3.373 1.746-.16.082-.384.14-.55.1-3.733-.925-7.46-.932-11.195-.005-.177.045-.425-.007-.583-.106-1.447-.905-2.92-1.75-4.612-2.11-.418-.09-.855-.114-1.283-.116-.13 0-.334.146-.38.27-.692 1.873-.87 3.77-.244 5.705.037.115.008.31-.07.396-1.978 2.23-2.47 4.878-2.194 7.746.136 1.41.41 2.786.99 4.087 1.172 2.628 3.25 4.207 5.946 5.004 1.1.326 2.253.48 3.38.713.073.015.146.025.233.04-.013.054-.01.096-.03.117-.74.754-1.122 1.683-1.305 2.7-.043.238-.14.343-.354.424-.753.288-1.526.473-2.335.48-1.838.013-3.166-.864-4.108-2.386-.49-.79-1.08-1.475-1.88-1.958-.666-.4-1.377-.65-2.17-.572-.137.014-.278.04-.407.087-.352.13-.424.352-.176.64.188.22.407.43.652.577 1.258.753 2.056 1.885 2.59 3.2.85 2.087 2.48 3.02 4.607 3.285 1.15.146 2.277-.01 3.48-.234z"/></g><text transform="translate(2181.55 -372.31)" fill="#FFF" font-family="'OpenSans-Light'" font-size="52.253">Route 360° is available for the following locations</text><g><path fill="#2B3E50" d="M1794.488-290.67h1920v437h-1920z"/><defs><path id="m" d="M2174.488 86.69c0 .354-.287.64-.642.64H1861.13c-.354 0-.642-.286-.642-.64v-312.717c0-.355.287-.642.642-.642h312.716c.354 0 .642.288.642.643V86.69z"/></defs><clipPath id="n"><use xlink:href="#m" overflow="visible"/></clipPath><g clip-path="url(#n)"><image overflow="visible" width="2563" height="1608" xlink:href="614932AD.jpeg" transform="matrix(.1978 0 0 .197 1764.552 -227.408)"/></g><text transform="translate(2048.6 -178.604)" fill="#FFF" font-family="'OpenSans-Extrabold'" font-size="34.979">PARIS</text><defs><path id="o" d="M2544.488 86.69c0 .354-.287.64-.642.64H2231.13c-.354 0-.642-.286-.642-.64v-312.717c0-.355.287-.642.642-.642h312.716c.354 0 .642.288.642.643V86.69z"/></defs><clipPath id="p"><use xlink:href="#o" overflow="visible"/></clipPath><g clip-path="url(#p)"><image overflow="visible" width="1957" height="770" xlink:href="614932A3.jpeg" transform="matrix(.4668 0 0 .466 1936.395 -261.072)"/></g><text transform="translate(2427.14 -183.69)" fill="#FFF" font-family="'OpenSans-Extrabold'" font-size="34.979">OSLO</text><g><defs><path id="q" d="M2914.488 86.69c0 .354-.287.64-.642.64H2601.13c-.354 0-.642-.286-.642-.64v-312.717c0-.355.287-.642.642-.642h312.716c.354 0 .642.288.642.643V86.69z"/></defs><clipPath id="r"><use xlink:href="#q" overflow="visible"/></clipPath><g clip-path="url(#r)"><image overflow="visible" width="1914" height="1077" xlink:href="614932A5.jpeg" transform="matrix(.61 0 0 .61 2074.577 -297.616)"/></g><g><defs><path id="s" d="M2914.488 86.69c0 .354-.287.64-.642.64H2601.13c-.354 0-.642-.286-.642-.64v-312.717c0-.355.287-.642.642-.642h312.716c.354 0 .642.288.642.643V86.69z"/></defs><clipPath id="t"><use xlink:href="#s" overflow="visible"/></clipPath><path opacity=".3" clip-path="url(#t)" fill="#FFF" d="M2570.488-268.67h368v367h-368z"/></g><text transform="translate(2766.885 -183.69)" fill="#FFF" font-family="'OpenSans-Extrabold'" font-size="34.979">BERLIN</text></g><g><defs><path id="u" d="M3284.488 86.69c0 .354-.287.64-.642.64H2971.13c-.354 0-.642-.286-.642-.64v-312.717c0-.355.287-.642.642-.642h312.716c.354 0 .642.288.642.643V86.69z"/></defs><clipPath id="v"><use xlink:href="#u" overflow="visible"/></clipPath><g clip-path="url(#v)"><image overflow="visible" width="2004" height="1002" xlink:href="F9451EE.jpeg" transform="matrix(.333 0 0 .333 2770.526 -236.496)"/></g><text transform="translate(3035.482 -178.604)" fill="#FFF" font-family="'OpenSans-Extrabold'" font-size="34.979">VANCOUVER</text></g><g><defs><path id="w" d="M3654.488 86.69c0 .354-.287.64-.642.64H3341.13c-.354 0-.642-.286-.642-.64v-312.717c0-.355.287-.642.642-.642h312.716c.354 0 .642.288.642.643V86.69z"/></defs><clipPath id="x"><use xlink:href="#w" overflow="visible"/></clipPath><g clip-path="url(#x)"><image overflow="visible" width="1926" height="1086" xlink:href="F9451EE.jpeg" transform="matrix(.3033 0 0 .3025 3291.488 -233.024)"/></g><text transform="translate(3470.367 -183.69)" fill="#FFF" font-family="'OpenSans-Extrabold'" font-size="34.979">LONDON</text></g></g><text transform="translate(2496.84 -338.423)" fill="#FFF" font-family="'OpenSans-Semibold'" font-size="24.391">Choose a location and launch the demo app</text><path opacity=".9" fill="#FFF" d="M2643.488 4.884c-12.598 0-22.81 10.213-22.81 22.81s10.212 22.812 22.81 22.812c12.598 0 22.81-10.213 22.81-22.81s-10.212-22.812-22.81-22.812zm-3.89 35.17l-9.802-7.843 2.982-3.727 6.112 4.89 13.89-17.002 3.696 3.02-16.878 20.663z"/><text transform="translate(2577.21 452.452)" fill="#2B3E50" font-family="'OpenSans-Semibold'" font-size="43.859">WHY ROUTE 360°?</text><g><text transform="translate(2280.895 738)" fill="#2B3E50" font-family="'OpenSans-Semibold'" font-size="34.78">USP1</text><path fill="none" d="M2131.247 764.38h385.48v307.485h-385.48z"/><text transform="translate(2131.247 779.58)" fill="#2B3E50" font-family="'OpenSans-Light'" font-size="20">Lorem ipsum dolor sit amet, consetetur</text><text transform="translate(2131.247 803.58)" fill="#2B3E50" font-family="'OpenSans-Light'" font-size="20">sadipscing elitr, sed diam nonumy eirmod</text><text transform="translate(2131.247 827.58)" fill="#2B3E50" font-family="'OpenSans-Light'" font-size="20">tempor invidunt ut labore et dolore magna</text><text transform="translate(2131.247 851.58)" fill="#2B3E50" font-family="'OpenSans-Light'" font-size="20">aliquyam erat, sed diam voluptua. At vero</text><text transform="translate(2131.247 875.58)" fill="#2B3E50" font-family="'OpenSans-Light'" font-size="20">eos et accusam et justo duo dolores et ea</text><text transform="translate(2131.247 899.58)" fill="#2B3E50" font-family="'OpenSans-Light'" font-size="20">rebum. Stet clita kasd gubergren, amet</text><circle fill="#2B3E50" cx="2323.988" cy="618.701" r="66.747"/><g><text transform="translate(2711.395 734)" fill="#2B3E50" font-family="'OpenSans-Semibold'" font-size="34.78">USP2</text><path fill="none" d="M2561.747 760.38h385.48v307.485h-385.48z"/><text transform="translate(2561.747 775.58)" fill="#2B3E50" font-family="'OpenSans-Light'" font-size="20">Lorem ipsum dolor sit amet, consetetur</text><text transform="translate(2561.747 799.58)" fill="#2B3E50" font-family="'OpenSans-Light'" font-size="20">sadipscing elitr, sed diam nonumy eirmod</text><text transform="translate(2561.747 823.58)" fill="#2B3E50" font-family="'OpenSans-Light'" font-size="20">tempor invidunt ut labore et dolore magna</text><text transform="translate(2561.747 847.58)" fill="#2B3E50" font-family="'OpenSans-Light'" font-size="20">aliquyam erat, sed diam voluptua. At vero</text><text transform="translate(2561.747 871.58)" fill="#2B3E50" font-family="'OpenSans-Light'" font-size="20">eos et accusam et justo duo dolores et ea</text><text transform="translate(2561.747 895.58)" fill="#2B3E50" font-family="'OpenSans-Light'" font-size="20">rebum. Stet clita kasd gubergren, amet</text><circle fill="#2B3E50" cx="2754.488" cy="614.701" r="66.747"/></g><g><text transform="translate(3141.895 733)" fill="#2B3E50" font-family="'OpenSans-Semibold'" font-size="34.78">USP3</text><path fill="none" d="M2992.247 759.38h385.48v307.485h-385.48z"/><text transform="translate(2992.248 774.58)" fill="#2B3E50" font-family="'OpenSans-Light'" font-size="20">Lorem ipsum dolor sit amet, consetetur</text><text transform="translate(2992.248 798.58)" fill="#2B3E50" font-family="'OpenSans-Light'" font-size="20">sadipscing elitr, sed diam nonumy eirmod</text><text transform="translate(2992.248 822.58)" fill="#2B3E50" font-family="'OpenSans-Light'" font-size="20">tempor invidunt ut labore et dolore magna</text><text transform="translate(2992.248 846.58)" fill="#2B3E50" font-family="'OpenSans-Light'" font-size="20">aliquyam erat, sed diam voluptua. At vero</text><text transform="translate(2992.248 870.58)" fill="#2B3E50" font-family="'OpenSans-Light'" font-size="20">eos et accusam et justo duo dolores et ea</text><text transform="translate(2992.248 894.58)" fill="#2B3E50" font-family="'OpenSans-Light'" font-size="20">rebum. Stet clita kasd gubergren, amet</text><circle fill="#2B3E50" cx="3184.988" cy="613.701" r="66.747"/></g></g><path fill="none" stroke="#2B3E50" stroke-width="6" stroke-miterlimit="10" d="M2636.488 495.33h235"/><path fill="#FFF" d="M1325.488-2733.67h368v367h-368z"/><g><path fill="none" stroke="#FFF" stroke-width="2" stroke-miterlimit="10" d="M2865.488 255.28c0 1.133-.918 2.05-2.05 2.05h-217.9c-1.132 0-2.05-.917-2.05-2.05v-59.9c0-1.13.918-2.05 2.05-2.05h217.9c1.132 0 2.05.92 2.05 2.05v59.9z"/><text transform="translate(2668.947 236.348)" fill="#FFF" font-family="'OpenSans-Bold'" font-size="26.614">LAUNCH APP</text></g><g><path fill="#FFF" d="M6405.26-1393.437c0 1.53.03 3.003-.014 4.474-.024.82-.85 1.228-1.758.922-1.58-.534-3.097-1.212-4.517-2.087-6-3.697-9.855-8.964-11.015-15.927-1.437-8.626 1.272-15.917 7.834-21.7 3.366-2.968 7.357-4.693 11.79-5.37 11.647-1.78 22.868 5.33 26.133 16.623 3.16 10.922-2.012 22.322-12.25 27.32-.875.428-1.798.76-2.705 1.12-.184.072-.395.098-.594.102-.788.015-1.23-.423-1.23-1.216.004-2.083.014-4.166.023-6.25.004-.948-.08-1.887-.484-2.753-.264-.567-.63-1.086-.943-1.62.734-.13 1.542-.255 2.34-.422 1.21-.253 2.368-.657 3.454-1.26 1.738-.965 3.03-2.347 3.772-4.19 1.064-2.65 1.333-5.384.67-8.174-.31-1.305-.973-2.447-1.854-3.456-.145-.166-.207-.297-.127-.535.635-1.916.442-3.805-.252-5.662-.048-.127-.274-.255-.425-.264-.865-.053-1.708.134-2.478.496-1.146.537-2.246 1.17-3.373 1.746-.16.082-.384.14-.55.1-3.733-.926-7.46-.932-11.195-.005-.177.044-.425-.008-.583-.107-1.448-.905-2.92-1.75-4.613-2.11-.418-.09-.854-.114-1.283-.116-.13 0-.333.146-.38.27-.692 1.873-.87 3.77-.243 5.705.04.114.01.308-.068.395-1.978 2.232-2.47 4.88-2.194 7.747.136 1.41.41 2.786.99 4.087 1.17 2.627 3.25 4.206 5.946 5.003 1.1.326 2.252.48 3.38.713.073.015.146.025.233.04-.014.054-.012.097-.032.117-.738.754-1.12 1.683-1.304 2.7-.042.238-.14.343-.353.424-.754.287-1.527.472-2.336.478-1.836.014-3.165-.863-4.107-2.385-.49-.79-1.08-1.475-1.88-1.958-.666-.4-1.377-.65-2.17-.57-.138.013-.278.04-.407.086-.352.128-.424.352-.176.64.188.22.407.43.652.577 1.257.753 2.056 1.885 2.59 3.2.848 2.087 2.48 3.02 4.606 3.285 1.148.143 2.277-.012 3.48-.237z"/></g><image overflow="visible" width="1910" height="976" xlink:href="F9451EA.jpeg" transform="matrix(1.1078 0 0 1.1065 4566.57 -1066.643)"/><g><text transform="translate(4873.41 -996.01)" fill="#1A1A1A" font-family="'OpenSans'" font-size="36.849">ROUTE</text><text transform="translate(4992.592 -996.01)" fill="#1A1A1A" font-family="'OpenSans-Light'" font-size="36.849"></text><text transform="translate(5002.164 -996.01)" fill="#1A1A1A" font-family="'OpenSans-Bold'" font-size="36.849">360°</text><path fill="#56BA64" d="M4833.8-1009.98c-.995-.962-1.085-1.527-.04-2.537 3.622-3.496 7.187-7.052 10.683-10.672 2.145-2.22 2.753-4.912 1.616-7.836-1.038-2.666-2.922-4.385-5.876-4.718-.798-.343-1.596-.34-2.393.002-1.863.12-3.268 1.12-4.53 2.377-3.433 3.423-6.89 6.824-10.266 10.302-.897.924-1.42.876-2.29-.02-3.38-3.474-6.83-6.884-10.272-10.298-1.256-1.247-2.635-2.31-4.526-2.364-.797-.347-1.595-.34-2.392.002-3.24.494-5.508 2.65-6.087 5.79-.428 1.013-.427 2.03-.014 3.046.156 1.668 1.05 2.943 2.188 4.082 3.428 3.434 6.828 6.898 10.314 10.272.988.956 1.09 1.525.042 2.533-3.454 3.326-6.813 6.75-10.192 10.154-1.163 1.17-2.186 2.443-2.337 4.19-.427 1.013-.426 2.03-.013 3.046.49 2.914 2.26 4.746 4.97 5.68 2.904 1 5.5.273 7.652-1.824 3.604-3.513 7.16-7.076 10.672-10.682.873-.897 1.378-.952 2.28-.02 3.385 3.492 6.845 6.912 10.3 10.335 3.378 3.345 7.904 3.483 11.033.374 3.143-3.122 3.03-7.675-.306-11.038-3.383-3.41-6.76-6.836-10.214-10.177zm-6.487.935c-1.19 2.704-2.83 5.143-4.627 7.475-.383.496-.77 1.11-1.42.263-2.244-2.92-4.424-5.823-5.48-9.412-1.254-4.26.334-7.187 4.78-9.224.857 0 1.714-.07 2.57-.07 5.02 2.286 6.42 5.876 4.177 10.97z"/></g><circle fill="#56BA64" cx="6595.878" cy="-997.553" r="34.498"/><g fill="none" stroke="#FFF" stroke-width="2" stroke-miterlimit="10"><path d="M6582.488-1004.67h26M6582.488-997.67h26M6582.488-990.67h26"/></g><g><g fill="#FFF" font-size="74.943"><text transform="translate(2611.937 -546.126)" font-family="'OpenSans'">ROUTE</text><text transform="translate(2854.33 -546.126)" font-family="'OpenSans-Light'"></text><text transform="translate(2873.798 -546.126)" font-family="'OpenSans-Bold'">360°</text></g><path fill="#56BA64" d="M2516.096-555.26s13.32-15.59 13.32-25.988c0-7.382-6.126-13.998-13.32-13.998-7.19 0-13.313 6.615-13.313 13.998 0 10.398 13.313 25.99 13.313 25.99m45.926 2.17c.02.022.04.037.062.055 6.042 6.043 6.042 15.838 0 21.887-6.042 6.042-15.844 6.042-21.883-.004h-.006l-24.093-24.094-24.032 24.03c-.02.023-.033.045-.058.068-6.042 6.042-15.84 6.042-21.88 0s-6.043-15.84-.005-21.883l24.093-24.097-24.093-24.094v-.004c-6.04-6.042-6.04-15.834.004-21.876 6.04-6.042 15.838-6.042 21.88 0l.058.056 24.033 24.035 24.094-24.09.003.004c0-.004 0-.004.004-.004 6.043-6.042 15.842-6.042 21.884 0s6.042 15.837 0 21.88c-.02.02-.043.04-.062.06l-24.04 24.034 24.04 24.037"/></g><g><g fill="#FFF"><path d="M159.916 59.257v22.25h-6.22v-53.5h14.673c6.56 0 11.41 1.257 14.545 3.77 3.134 2.513 4.702 6.293 4.702 11.343 0 7.075-3.586 11.856-10.76 14.345l14.528 24.042h-7.354l-12.953-22.25h-11.16zm0-5.342h8.526c4.39 0 7.61-.872 9.66-2.617 2.05-1.743 3.074-4.36 3.074-7.85 0-3.536-1.043-6.086-3.13-7.647-2.085-1.56-5.434-2.34-10.044-2.34h-8.087v20.455zM246.46 54.683c0 8.563-2.166 15.296-6.496 20.2-4.33 4.903-10.35 7.354-18.06 7.354-7.88 0-13.96-2.408-18.24-7.227s-6.423-11.618-6.423-20.4c0-8.71 2.147-15.46 6.44-20.255 4.294-4.794 10.394-7.19 18.298-7.19 7.685 0 13.686 2.44 18.004 7.318 4.318 4.88 6.477 11.614 6.477 20.2zm-42.63 0c0 7.246 1.54 12.74 4.628 16.485 3.086 3.745 7.568 5.617 13.448 5.617 5.928 0 10.404-1.866 13.43-5.6 3.024-3.73 4.537-9.232 4.537-16.503 0-7.196-1.507-12.654-4.52-16.375-3.013-3.72-7.47-5.58-13.374-5.58-5.93 0-10.437 1.872-13.522 5.616-3.087 3.746-4.63 9.192-4.63 16.34zM298.788 28.007v34.617c0 6.1-1.842 10.893-5.525 14.38-3.684 3.49-8.746 5.233-15.187 5.233s-11.423-1.756-14.948-5.27c-3.525-3.513-5.287-8.343-5.287-14.49v-34.47h6.222v34.91c0 4.464 1.22 7.892 3.66 10.282 2.438 2.39 6.024 3.585 10.758 3.585 4.513 0 7.99-1.2 10.43-3.604 2.438-2.4 3.658-5.848 3.658-10.336V28.007h6.22zM329.416 81.506h-6.22V33.532H306.25v-5.525h40.106v5.525h-16.942v47.974zM384.233 81.506H354.41v-53.5h29.823v5.526H360.63v17.235h22.176v5.49H360.63v19.686h23.603v5.563zM446.515 39.973c0 3.343-1.013 6.185-3.038 8.526-2.024 2.34-4.866 3.95-8.525 4.83v.22c4.317.536 7.586 1.847 9.807 3.933 2.22 2.086 3.33 4.897 3.33 8.435 0 5.147-1.867 9.154-5.6 12.02-3.732 2.867-9.063 4.3-15.99 4.3-5.808 0-10.955-.963-15.443-2.89v-9.625c2.073 1.05 4.354 1.903 6.843 2.562 2.488.66 4.952.988 7.392.988 3.732 0 6.49-.634 8.27-1.903 1.78-1.268 2.672-3.305 2.672-6.11 0-2.513-1.024-4.294-3.073-5.343-2.05-1.05-5.318-1.573-9.807-1.573h-4.062V49.67h4.136c4.147 0 7.178-.543 9.094-1.63 1.915-1.084 2.872-2.944 2.872-5.58 0-4.048-2.537-6.073-7.61-6.073-1.757 0-3.545.292-5.36.878-1.82.586-3.838 1.598-6.058 3.037l-5.232-7.794c4.88-3.514 10.697-5.27 17.455-5.27 5.537 0 9.91 1.122 13.118 3.366 3.206 2.246 4.81 5.368 4.81 9.37zM453.614 58.78c0-10.586 2.238-18.466 6.715-23.638s11.178-7.758 20.107-7.758c3.05 0 5.44.183 7.172.55v9.037c-2.173-.486-4.32-.73-6.44-.73-3.88 0-7.045.585-9.497 1.756-2.45 1.172-4.288 2.904-5.507 5.196-1.22 2.294-1.94 5.55-2.16 9.77h.477c2.415-4.145 6.28-6.22 11.6-6.22 4.78 0 8.526 1.5 11.234 4.5s4.062 7.15 4.062 12.442c0 5.71-1.61 10.23-4.83 13.56-3.22 3.328-7.686 4.993-13.394 4.993-3.952 0-7.398-.914-10.338-2.744s-5.21-4.5-6.807-8.014-2.396-7.746-2.396-12.7zm19.32 14.42c2.416 0 4.27-.812 5.564-2.435 1.292-1.622 1.94-3.934 1.94-6.935 0-2.61-.605-4.665-1.813-6.166-1.208-1.5-3.032-2.25-5.47-2.25-2.295 0-4.252.744-5.874 2.232-1.622 1.488-2.433 3.22-2.433 5.196 0 2.903.762 5.354 2.287 7.354 1.526 2.003 3.46 3.003 5.8 3.003zM533.863 54.756c0 9.344-1.53 16.26-4.593 20.75s-7.776 6.73-14.144 6.73c-6.172 0-10.825-2.316-13.96-6.95s-4.702-11.48-4.702-20.53c0-9.44 1.524-16.4 4.574-20.876 3.05-4.477 7.745-6.715 14.088-6.715 6.172 0 10.838 2.342 13.997 7.025 3.16 4.685 4.74 11.54 4.74 20.566zm-26.164 0c0 6.563.565 11.266 1.7 14.107s3.043 4.263 5.727 4.263c2.635 0 4.538-1.44 5.71-4.318 1.17-2.878 1.755-7.562 1.755-14.052 0-6.562-.59-11.276-1.774-14.143s-3.08-4.3-5.69-4.3c-2.66 0-4.56 1.434-5.708 4.3-1.15 2.866-1.72 7.58-1.72 14.143zM539.9 39.9c0-2.245.562-4.343 1.684-6.295 1.122-1.95 2.66-3.5 4.61-4.647 1.952-1.146 4.074-1.72 6.367-1.72 2.246 0 4.35.562 6.314 1.684s3.514 2.67 4.647 4.646c1.136 1.977 1.703 4.087 1.703 6.33 0 2.27-.567 4.387-1.702 6.35-1.133 1.964-2.677 3.495-4.628 4.593-1.952 1.1-4.062 1.647-6.33 1.647-3.538 0-6.532-1.213-8.984-3.64-2.452-2.428-3.678-5.41-3.678-8.948zm6.99 0c0 1.56.542 2.89 1.628 3.987 1.085 1.1 2.434 1.647 4.043 1.647 1.61 0 2.966-.562 4.064-1.684s1.646-2.44 1.646-3.952c0-1.537-.555-2.878-1.665-4.025-1.11-1.146-2.458-1.72-4.044-1.72-1.56 0-2.895.562-4.006 1.684s-1.665 2.476-1.665 4.062z"/></g><path fill="#56BA64" d="M50.5 72.373s13.318-15.59 13.318-25.99c0-7.38-6.125-13.997-13.318-13.997-7.19 0-13.313 6.615-13.313 13.998 0 10.398 13.313 25.99 13.313 25.99m45.925 2.17c.02.022.04.037.062.055 6.042 6.042 6.042 15.837 0 21.886-6.042 6.042-15.845 6.042-21.883-.004h-.007L50.504 72.388 26.47 96.418c-.018.024-.032.046-.057.07-6.042 6.04-15.84 6.04-21.88 0-6.043-6.044-6.043-15.842-.005-21.884L28.62 50.506 4.53 26.41v-.002C-1.51 20.365-1.51 10.574 4.532 4.53c6.042-6.04 15.84-6.04 21.88 0 .022.02.04.04.06.057l24.032 24.035 24.093-24.09.003.003c0-.004 0-.004.004-.004 6.042-6.04 15.84-6.04 21.883 0 6.042 6.043 6.042 15.838 0 21.88-.02.022-.043.04-.062.06l-24.04 24.035 24.04 24.038"/></g></svg>