<?xml version="1.0" encoding="utf-8"?>
<!-- Generator: Adobe Illustrator 17.0.1, SVG Export Plug-In . SVG Version: 6.00 Build 0)  -->
<!DOCTYPE svg PUBLIC "-//W3C//DTD SVG 1.1//EN" "http://www.w3.org/Graphics/SVG/1.1/DTD/svg11.dtd">
<svg version="1.1" id="Ebene_1" xmlns="http://www.w3.org/2000/svg" xmlns:xlink="http://www.w3.org/1999/xlink" x="0px" y="0px"
	 width="15px" height="15px" viewBox="-0.602 6.078 15 15" enable-background="new -0.602 6.078 15 15" xml:space="preserve">
<g>
	<g>
		<path fill="#4a5b50" d="M6.898,20.078c-3.584,0-6.5-2.916-6.5-6.5s2.916-6.5,6.5-6.5s6.5,2.916,6.5,6.5
			S10.482,20.078,6.898,20.078z"/>
		<path fill="#1b211d" d="M6.898,8.078c3.033,0,5.5,2.467,5.5,5.5s-2.467,5.5-5.5,5.5s-5.5-2.467-5.5-5.5S3.866,8.078,6.898,8.078
			 M6.898,6.078c-4.142,0-7.5,3.358-7.5,7.5s3.358,7.5,7.5,7.5s7.5-3.358,7.5-7.5S11.041,6.078,6.898,6.078L6.898,6.078z"/>
	</g>
</g>
</svg>
